<svg width="51" height="51" viewBox="0 0 51 51" fill="none" xmlns="http://www.w3.org/2000/svg">
<g id="balsamic-vinegar 1" clip-path="url(#clip0_509_4324)">
<path id="Vector" d="M17.1299 25.9666V47.0603H33.5361V25.9666H17.1299Z" fill="#E6ECF4"/>
<path id="Vector_2" d="M33.5361 47.0603V49.0525C33.5359 49.3529 33.4165 49.6409 33.2041 49.8533C32.9917 50.0657 32.7037 50.1851 32.4033 50.1853H18.2627C17.9623 50.1851 17.6743 50.0657 17.4619 49.8533C17.2495 49.6409 17.1301 49.3529 17.1299 49.0525V47.0603H33.5361Z" fill="#A05454"/>
<g id="Group">
<path id="Vector_3" d="M23.7705 35.3416C24.8492 35.3416 25.7236 34.4671 25.7236 33.3884C25.7236 32.3097 24.8492 31.4353 23.7705 31.4353C22.6918 31.4353 21.8174 32.3097 21.8174 33.3884C21.8174 34.4671 22.6918 35.3416 23.7705 35.3416Z" fill="#B18FFF"/>
<path id="Vector_4" d="M23.7705 40.0291C24.8492 40.0291 25.7236 39.1546 25.7236 38.0759C25.7236 36.9972 24.8492 36.1228 23.7705 36.1228C22.6918 36.1228 21.8174 36.9972 21.8174 38.0759C21.8174 39.1546 22.6918 40.0291 23.7705 40.0291Z" fill="#B18FFF"/>
<path id="Vector_5" d="M27.6768 37.6853C28.7554 37.6853 29.6299 36.8109 29.6299 35.7322C29.6299 34.6535 28.7554 33.7791 27.6768 33.7791C26.5981 33.7791 25.7236 34.6535 25.7236 35.7322C25.7236 36.8109 26.5981 37.6853 27.6768 37.6853Z" fill="#B18FFF"/>
</g>
<path id="Vector_6" d="M30.4111 6.09155V8.34155C30.4112 8.39903 30.4 8.45597 30.378 8.50909C30.3561 8.56221 30.3238 8.61048 30.2832 8.65112C30.2426 8.69177 30.1943 8.72399 30.1412 8.74594C30.088 8.7679 30.0311 8.77915 29.9736 8.77905H20.6924C20.6349 8.77915 20.578 8.7679 20.5248 8.74594C20.4717 8.72399 20.4235 8.69177 20.3828 8.65112C20.3422 8.61048 20.3099 8.56221 20.288 8.50909C20.266 8.45597 20.2548 8.39903 20.2549 8.34155V6.09155C20.2548 6.03407 20.266 5.97714 20.288 5.92402C20.3099 5.87089 20.3422 5.82263 20.3828 5.78198C20.4235 5.74134 20.4717 5.70912 20.5248 5.68716C20.578 5.66521 20.6349 5.65396 20.6924 5.65405H29.9736C30.0311 5.65396 30.088 5.66521 30.1412 5.68716C30.1943 5.70912 30.2426 5.74134 30.2832 5.78198C30.3238 5.82263 30.3561 5.87089 30.378 5.92402C30.4 5.97714 30.4112 6.03407 30.4111 6.09155Z" fill="#636A74"/>
<path id="Vector_7" d="M28.8486 1.7478V5.65405H21.8174V2.52905C24.1611 2.27124 26.5049 2.00562 28.8486 1.7478Z" fill="#4D5662"/>
<path id="Vector_8" d="M21.8174 13.8103V8.77905H28.8486V13.8103C28.8502 15.0401 29.1167 16.2552 29.6299 17.3728H21.0361C21.5493 16.2552 21.8158 15.0401 21.8174 13.8103Z" fill="#4D5662"/>
<path id="Vector_9" d="M33.5361 25.365V25.9666H17.1299V25.365C17.1409 23.6597 17.7272 22.008 18.7939 20.6775L19.8799 19.2791C20.3378 18.6906 20.7259 18.0509 21.0361 17.3728H29.6299C29.9402 18.0509 30.3282 18.6906 30.7861 19.2791L31.8721 20.6775C32.9388 22.008 33.5251 23.6597 33.5361 25.365Z" fill="#A05454"/>
<path id="Vector_10" d="M27.2864 32.9978C27.1371 32.9979 26.9909 32.9551 26.8651 32.8746C26.7393 32.7942 26.6392 32.6793 26.5767 32.5438C26.5142 32.4082 26.4918 32.2575 26.5122 32.1096C26.5327 31.9617 26.5951 31.8227 26.692 31.7092C26.9773 31.3767 27.1812 30.9824 27.2875 30.5574C27.3938 30.1325 27.3997 29.6886 27.3047 29.2609C27.2604 29.0588 27.2981 28.8475 27.4095 28.6731C27.5208 28.4988 27.6968 28.3757 27.8987 28.3308C28.1007 28.286 28.3122 28.3231 28.4869 28.4339C28.6615 28.5448 28.7851 28.7204 28.8306 28.9222C28.9781 29.5861 28.9691 30.2753 28.8042 30.9351C28.6393 31.595 28.3232 32.2074 27.8807 32.7239C27.8074 32.8099 27.7162 32.8789 27.6136 32.9262C27.511 32.9734 27.3994 32.9979 27.2864 32.9978Z" fill="#A0D964"/>
<path id="Vector_11" d="M29.6299 44.7166H21.0361C20.8289 44.7166 20.6302 44.6342 20.4837 44.4877C20.3372 44.3412 20.2549 44.1425 20.2549 43.9353C20.2549 43.7281 20.3372 43.5294 20.4837 43.3829C20.6302 43.2364 20.8289 43.1541 21.0361 43.1541H29.6299C29.8371 43.1541 30.0358 43.2364 30.1823 43.3829C30.3288 43.5294 30.4111 43.7281 30.4111 43.9353C30.4111 44.1425 30.3288 44.3412 30.1823 44.4877C30.0358 44.6342 29.8371 44.7166 29.6299 44.7166Z" fill="#CAD1E1"/>
<path id="Vector_12" d="M24.1611 15.0291C24.0585 15.0291 23.9569 15.0089 23.8621 14.9697C23.7673 14.9305 23.6811 14.8729 23.6086 14.8004C23.536 14.7278 23.4785 14.6417 23.4392 14.5468C23.4 14.452 23.3798 14.3504 23.3799 14.2478V11.9041C23.3799 11.6969 23.4622 11.4981 23.6087 11.3516C23.7552 11.2051 23.9539 11.1228 24.1611 11.1228C24.3683 11.1228 24.567 11.2051 24.7136 11.3516C24.8601 11.4981 24.9424 11.6969 24.9424 11.9041V14.2478C24.9424 14.3504 24.9223 14.452 24.883 14.5468C24.8438 14.6417 24.7862 14.7278 24.7137 14.8004C24.6411 14.8729 24.555 14.9305 24.4602 14.9697C24.3654 15.0089 24.2637 15.0291 24.1611 15.0291Z" fill="#636A74"/>
</g>
<defs>
<clipPath id="clip0_509_4324">
<rect width="50" height="50" fill="white" transform="translate(0.333008 0.966553)"/>
</clipPath>
</defs>
</svg>
