<svg width="51" height="50" viewBox="0 0 51 50" fill="none" xmlns="http://www.w3.org/2000/svg">
<g id="chocolate 2">
<g id="Group">
<g id="Group_2">
<path id="Vector" d="M23.0047 0V6.21184H16.7929V12.4237H10.5811V25.7348L40.7529 7.09925V0H23.0047Z" fill="#FFF9C5"/>
</g>
<g id="Group_3">
<path id="Vector_2" d="M40.7523 43.4829V7.09924L32.7656 36.3836L10.5805 26.6222V43.4829L8.80566 47.9199C10.3542 49.3797 14.5667 49.4844 16.2421 48.2332C16.4595 48.0708 16.7701 48.0708 16.9867 48.2332C18.5334 49.3886 20.7297 49.3886 22.2765 48.2332C22.4939 48.0708 22.8045 48.0708 23.021 48.2332C24.5678 49.3886 26.7641 49.3886 28.3108 48.2332C28.5283 48.0708 28.8389 48.0708 29.0554 48.2332C30.6021 49.3886 32.7985 49.3886 34.3452 48.2332C34.5626 48.0708 34.8732 48.0708 35.0897 48.2332C36.7652 49.4844 40.9777 49.3797 42.5262 47.9199L40.7523 43.4829Z" fill="#FFF8E0"/>
</g>
<path id="Vector_3" d="M40.7529 5.32444H36.3158V0H34.541V5.32444H30.104V0H28.3292V5.32444H23.8921V0H23.0047V6.21184H16.7929V12.4237H10.5811V13.3111H15.9055V17.7481H10.5811V19.5229H15.9055V21.4033L10.5811 24.6921V25.7348L40.7529 7.09925V5.32444ZM17.6803 20.3074V19.5229H18.9502L17.6803 20.3074ZM22.1173 17.5662L21.8236 17.7481H17.6803V13.3111H22.1173V17.5662ZM22.1173 11.5363H17.6803V7.09925H22.1173V11.5363ZM28.3292 13.7299L23.8921 16.4703V13.3111H28.3292V13.7299ZM28.3292 11.5363H23.8921V7.09925H28.3292V11.5363ZM34.541 9.8928L31.8788 11.5372V11.5363H30.104V7.09925H34.541V9.8928ZM36.3158 8.79685V7.09925H39.0641L36.3158 8.79685Z" fill="#E6E0B1"/>
<path id="Vector_4" d="M12.8295 50C11.0299 50 9.19737 49.5092 8.19727 48.5659L9.41479 47.2748C10.6199 48.4098 14.3284 48.5553 15.7118 47.5223C16.2425 47.1239 16.9852 47.1248 17.5186 47.5215C18.7432 48.4364 20.5207 48.4355 21.7462 47.5223C22.2795 47.1239 23.0223 47.1239 23.5538 47.5223C24.7767 48.4355 26.555 48.4355 27.7814 47.5223C28.3121 47.1239 29.0549 47.1248 29.5882 47.5215C30.8128 48.4364 32.5903 48.4355 33.8158 47.5223C34.3473 47.1239 35.0901 47.1248 35.6225 47.5215C37.0078 48.5553 40.7145 48.4106 41.9196 47.2748L43.1371 48.5659C41.3437 50.2564 36.8782 50.4925 34.7209 49.0576C32.9177 50.3035 30.4889 50.3026 28.6848 49.0584C26.8807 50.3035 24.4537 50.3026 22.6504 49.0584C20.8455 50.3035 18.4175 50.3026 16.6143 49.0576C15.6603 49.6912 14.2547 50 12.8295 50Z" fill="#D4C9A1"/>
<path id="Vector_5" d="M15.9057 42.5955H14.1309V44.3703H15.9057V42.5955Z" fill="#D4C9A1"/>
<path id="Vector_6" d="M18.5678 42.5955H16.793V44.3703H18.5678V42.5955Z" fill="#D4C9A1"/>
<path id="Vector_7" d="M21.2299 42.5955H19.4551V44.3703H21.2299V42.5955Z" fill="#D4C9A1"/>
<path id="Vector_8" d="M23.892 42.5955H22.1172V44.3703H23.892V42.5955Z" fill="#D4C9A1"/>
<path id="Vector_9" d="M26.5541 42.5955H24.7793V44.3703H26.5541V42.5955Z" fill="#D4C9A1"/>
<path id="Vector_10" d="M29.2162 42.5955H27.4414V44.3703H29.2162V42.5955Z" fill="#D4C9A1"/>
<path id="Vector_11" d="M31.8783 42.5955H30.1035V44.3703H31.8783V42.5955Z" fill="#D4C9A1"/>
<path id="Vector_12" d="M34.5404 42.5955H32.7656V44.3703H34.5404V42.5955Z" fill="#D4C9A1"/>
<path id="Vector_13" d="M37.2025 42.5955H35.4277V44.3703H37.2025V42.5955Z" fill="#D4C9A1"/>
<path id="Vector_14" d="M10.5811 25.7348L40.7529 7.09924L34.541 40.8207L10.5811 26.6222V25.7348Z" fill="#D5C9A1"/>
<g id="Group_4">
<path id="Vector_15" d="M10.5811 25.7348L40.7529 7.09924L32.7662 36.3836L10.5811 26.6222V25.7348Z" fill="#FFFBEC"/>
<path id="Vector_16" d="M33.0584 36.9969L10.1367 26.9115V25.4872L41.4772 6.13025L33.0584 36.9969ZM11.025 26.3329L32.4736 35.7705L40.029 8.06834L11.025 25.9824V26.3329Z" fill="#FFFBEC"/>
</g>
</g>
</g>
</svg>
