<svg width="51" height="50" viewBox="0 0 51 50" fill="none" xmlns="http://www.w3.org/2000/svg">
<g id="chocolate 1">
<g id="Group">
<g id="Group_2">
<path id="Vector" d="M22.6717 0V6.21184H16.4599V12.4237H10.248V25.7348L40.4198 7.09925V0H22.6717Z" fill="#4C312C"/>
</g>
<g id="Group_3">
<path id="Vector_2" d="M40.4193 43.4829V7.09924L32.4326 36.3836L10.2475 26.6222V43.4829L8.47266 47.9199C10.0212 49.3797 14.2337 49.4844 15.9091 48.2332C16.1265 48.0708 16.4371 48.0708 16.6537 48.2332C18.2004 49.3886 20.3967 49.3886 21.9435 48.2332C22.1609 48.0708 22.4715 48.0708 22.688 48.2332C24.2348 49.3886 26.4311 49.3886 27.9778 48.2332C28.1953 48.0708 28.5058 48.0708 28.7224 48.2332C30.2691 49.3886 32.4655 49.3886 34.0122 48.2332C34.2296 48.0708 34.5402 48.0708 34.7567 48.2332C36.4322 49.4844 40.6447 49.3797 42.1932 47.9199L40.4193 43.4829Z" fill="#583E68"/>
</g>
<path id="Vector_3" d="M40.4198 5.32444H35.9828V0H34.208V5.32444H29.771V0H27.9962V5.32444H23.5591V0H22.6717V6.21184H16.4599V12.4237H10.248V13.3111H15.5725V17.7481H10.248V19.5229H15.5725V21.4033L10.248 24.6921V25.7348L40.4198 7.09925V5.32444ZM17.3473 20.3074V19.5229H18.6172L17.3473 20.3074ZM21.7843 17.5662L21.4906 17.7481H17.3473V13.3111H21.7843V17.5662ZM21.7843 11.5363H17.3473V7.09925H21.7843V11.5363ZM27.9962 13.7299L23.5591 16.4703V13.3111H27.9962V13.7299ZM27.9962 11.5363H23.5591V7.09925H27.9962V11.5363ZM34.208 9.8928L31.5458 11.5372V11.5363H29.771V7.09925H34.208V9.8928ZM35.9828 8.79686V7.09925H38.7311L35.9828 8.79686Z" fill="#291C19"/>
<path id="Vector_4" d="M12.4965 50C10.6969 50 8.86436 49.5092 7.86426 48.5659L9.08178 47.2748C10.2869 48.4098 13.9953 48.5553 15.3788 47.5223C15.9095 47.1239 16.6522 47.1248 17.1856 47.5215C18.4102 48.4364 20.1877 48.4355 21.4132 47.5223C21.9465 47.1239 22.6893 47.1239 23.2208 47.5223C24.4437 48.4355 26.222 48.4355 27.4484 47.5223C27.9791 47.1239 28.7218 47.1248 29.2552 47.5215C30.4798 48.4364 32.2573 48.4355 33.4828 47.5223C34.0143 47.1239 34.7571 47.1248 35.2895 47.5215C36.6748 48.5553 40.3815 48.4106 41.5866 47.2748L42.8041 48.5659C41.0106 50.2564 36.5452 50.4925 34.3879 49.0576C32.5847 50.3035 30.1559 50.3026 28.3518 49.0584C26.5477 50.3035 24.1206 50.3026 22.3174 49.0584C20.5125 50.3035 18.0845 50.3026 16.2813 49.0576C15.3273 49.6912 13.9217 50 12.4965 50Z" fill="#6F58A8"/>
<path id="Vector_5" d="M15.5727 42.5955H13.7979V44.3703H15.5727V42.5955Z" fill="#6F58A8"/>
<path id="Vector_6" d="M18.2348 42.5955H16.46V44.3703H18.2348V42.5955Z" fill="#6F58A8"/>
<path id="Vector_7" d="M20.8969 42.5955H19.1221V44.3703H20.8969V42.5955Z" fill="#6F58A8"/>
<path id="Vector_8" d="M23.559 42.5955H21.7842V44.3703H23.559V42.5955Z" fill="#6F58A8"/>
<path id="Vector_9" d="M26.2211 42.5955H24.4463V44.3703H26.2211V42.5955Z" fill="#6F58A8"/>
<path id="Vector_10" d="M28.8832 42.5955H27.1084V44.3703H28.8832V42.5955Z" fill="#6F58A8"/>
<path id="Vector_11" d="M31.5453 42.5955H29.7705V44.3703H31.5453V42.5955Z" fill="#6F58A8"/>
<path id="Vector_12" d="M34.2074 42.5955H32.4326V44.3703H34.2074V42.5955Z" fill="#6F58A8"/>
<path id="Vector_13" d="M36.8695 42.5955H35.0947V44.3703H36.8695V42.5955Z" fill="#6F58A8"/>
<path id="Vector_14" d="M10.248 25.7348L40.4198 7.09924L34.208 40.8207L10.248 26.6222V25.7348Z" fill="#372742"/>
<g id="Group_4">
<path id="Vector_15" d="M10.248 25.7348L40.4198 7.09924L32.4332 36.3836L10.248 26.6222V25.7348Z" fill="#E6E6E6"/>
<path id="Vector_16" d="M32.7254 36.9969L9.80371 26.9115V25.4872L41.1442 6.13025L32.7254 36.9969ZM10.692 26.3329L32.1406 35.7705L39.696 8.06834L10.692 25.9824V26.3329Z" fill="#E6E6E6"/>
</g>
</g>
</g>
</svg>
