<svg width="51" height="51" viewBox="0 0 51 51" fill="none" xmlns="http://www.w3.org/2000/svg">
<g id="cinnamon-roll 1">
<g id="Group">
<path id="Vector" d="M32.1529 11.9763C30.5637 9.93924 27.8496 9.96375 26.4035 10.7421C25.4192 11.2715 3.17188 24.9736 3.17188 24.9736L3.38311 25.1875C4.00692 24.7746 4.73786 24.5531 5.48594 24.5504C7.82393 24.5504 9.98789 26.6752 10.8025 28.0145C11.0846 28.4785 11.324 28.9672 11.5177 29.4745C12.4024 31.8111 11.6909 32.8 11.256 33.1579L11.4629 33.3674C11.4629 33.3674 30.6797 20.0823 32.4303 18.6787C34.0169 17.4066 34.0913 14.4609 32.1529 11.9763Z" fill="#B98241"/>
<path id="Vector_2" d="M11.7917 29.3707L9.56456 30.8776C9.37811 31.1031 9.23943 31.3643 9.15694 31.6451C9.07445 31.9258 9.04986 32.2205 9.08468 32.5111C9.18351 33.4622 10.5047 34.0583 11.3457 33.4583C12.4845 32.6456 12.3925 30.9573 11.7917 29.3707Z" fill="#7D4605"/>
<path id="Vector_3" d="M11.0531 27.8622C9.78971 25.7855 6.09791 22.6705 2.84645 25.2092C-0.427573 27.7654 2.65251 34.0063 5.8611 33.1779L6.89303 32.6805L11.7919 29.3709C11.5921 28.8465 11.3448 28.3415 11.0531 27.8622Z" fill="#7D4605"/>
<path id="Vector_4" d="M7.09202 28.0828C6.06243 26.2687 3.86937 26.5008 4.11585 28.3296C4.30843 29.757 5.13987 30.5464 5.13987 30.5464L7.52855 29.0681C7.41542 28.7263 7.26923 28.3963 7.09202 28.0828Z" fill="#642D0F"/>
<path id="Vector_5" d="M7.96621 24.9442C6.78027 25.6732 5.64912 26.3689 4.63184 26.995C5.2998 26.5999 6.4333 26.9234 7.0915 28.0831C7.91279 29.5303 8.1918 31.6495 6.88105 32.6884L6.89258 32.6806L11.7914 29.3711C11.5916 28.8467 11.3444 28.3418 11.0526 27.8625C10.2819 26.6487 9.2212 25.6458 7.96621 24.9442Z" fill="#915A19"/>
</g>
<g id="Group_2">
<g id="Group_3">
<path id="Vector_6" d="M41.4699 15.84L18.4394 31.8393C16.8189 33.0338 16.6986 35.8361 18.368 38.3837C19.8544 40.6518 23.4873 41.3255 25.2235 40.2392C25.5025 40.0647 26.1301 39.5865 26.3507 39.4198L47.5363 23.1255L47.9652 19.0406L41.4699 15.84Z" fill="#7D4605"/>
<path id="Vector_7" d="M22.3673 32.2161L19.7855 34.179C19.7855 34.179 19.1668 34.7635 19.8237 35.6457C20.6211 36.7166 22.5231 36.1512 22.952 34.6928C23.1614 33.9804 22.967 32.961 22.3673 32.2161Z" fill="#915A19"/>
<path id="Vector_8" d="M25.5038 35.8103C24.7952 36.3474 24.5869 37.4086 24.5869 37.4086L26.8106 35.7127C26.453 35.4112 25.972 35.4553 25.5038 35.8103Z" fill="#915A19"/>
</g>
<g id="Group_4">
<path id="Vector_9" d="M44.8457 16.1768C43.9961 14.7542 42.4189 14.5193 40.6867 15.6885C40.1672 16.0394 18.4395 31.8395 18.4395 31.8395L18.4405 31.8406C18.8018 31.5773 19.2174 31.3983 19.6569 31.3167C22.2601 30.8088 23.3549 33.3207 22.9515 34.6928C22.833 35.0926 22.5977 35.4479 22.2757 35.7128L43.2952 19.7031L44.1051 19.0721C44.1051 19.0721 45.9064 17.9519 44.8457 16.1768Z" fill="#B98241"/>
<path id="Vector_10" d="M49.4879 19.4669C48.5788 18.4499 47.644 18.8444 46.7313 19.4762C46.6519 19.5312 28.5282 33.4971 25.7197 35.6696C26.4474 35.2678 27.156 35.6268 27.3352 36.878C27.4847 37.9214 27.2032 38.6718 26.3346 39.435C29.0959 37.3406 49.1038 22.0186 49.1038 22.0186C49.8746 21.3143 50.2285 20.295 49.4879 19.4669Z" fill="#B98241"/>
</g>
</g>
<g id="Group_5">
<path id="Vector_11" d="M48.1782 25.1374L48.127 24.9688L13.2824 18.3705C13.2824 18.3705 13.3732 17.4224 13.2524 16.8167C13.1718 16.4119 12.9709 16.3148 12.9709 16.3148L9.8415 15.7087C9.8415 15.7087 11.029 16.1329 10.4665 19.2195C9.99355 21.8102 7.49219 22.0509 7.49219 22.0509C7.49219 22.0509 42.8712 29.6176 45.1094 29.9875C46.8477 30.2748 49.6016 28.4266 48.1782 25.1374Z" fill="#A56E2D"/>
<path id="Vector_12" d="M49.8851 25.4585C49.8851 22.3783 48.5983 20.9639 47.0015 20.6245C44.9788 20.1943 10.7755 13.7533 10.7755 13.7533L10.7217 13.745C11.4119 13.9587 12.4639 14.8372 12.8912 16.0535C13.3 17.2169 13.0062 18.5189 13.0062 18.5189L49.8851 25.4585Z" fill="#CD9655"/>
<path id="Vector_13" d="M9.95422 15.7459L12.9709 16.3148C12.9479 16.2269 12.9214 16.1399 12.8909 16.0533C12.4636 14.837 11.4116 13.9584 10.7214 13.7448C10.7214 13.7448 7.77922 12.7989 6.13566 15.8067C4.61222 18.5943 5.24816 21.9386 7.79582 22.0854C9.3382 22.1743 10.4062 20.7948 10.8365 18.8146C10.8477 18.763 10.8581 18.7118 10.8678 18.6608C11.1343 17.2543 10.8127 16.0778 9.95422 15.7459Z" fill="#915A19"/>
<path id="Vector_14" d="M9.27539 15.6588C7.75127 15.7844 7.5332 17.8448 7.5332 17.8448L10.8382 18.6456L10.8682 18.6612C11.196 16.9298 10.6325 15.5471 9.27539 15.6588Z" fill="#7D4605"/>
</g>
</g>
</svg>
