<svg width="57" height="50" viewBox="0 0 57 50" fill="none" xmlns="http://www.w3.org/2000/svg">
<g id="Group">
<path id="Vector" d="M55.1394 38.226L33.3777 48.9057C32.136 49.5153 30.8042 49.871 29.459 49.9702C27.5851 50.1099 25.6843 49.7555 23.9546 48.9057L2.19294 38.226C1.02624 37.6541 0.445312 36.5354 0.445312 35.4184C0.445312 35.1556 0.476916 34.8929 0.541329 34.6377L2.78146 13.3744H54.5508L56.791 34.6377C57.1303 35.98 56.5793 37.5189 55.1394 38.226Z" fill="#F19F2D"/>
<path id="Vector_2" d="M29.459 13.3744V49.9703C27.5851 50.1101 25.6843 49.7557 23.9546 48.9059L2.19294 38.2262C1.02624 37.6543 0.445312 36.5356 0.445312 35.4186C0.445312 35.1558 0.476916 34.8931 0.541329 34.6379L2.78146 13.3746L29.459 13.3744Z" fill="#FCA62F"/>
<path id="Vector_3" d="M24.3457 25.7442L4.38669 15.9484C2.24741 14.8984 2.24741 11.8489 4.38669 10.7991L24.3457 1.00324C27.0711 -0.334414 30.2622 -0.334414 32.9874 1.00324L52.9464 10.7991C55.0857 11.849 55.0857 14.8986 52.9464 15.9484L32.9874 25.7442C30.2622 27.0817 27.0711 27.0817 24.3457 25.7442Z" fill="#FCC16D"/>
<g id="Group_2">
<path id="Vector_4" d="M44.5625 13.3744L41.3673 14.9435L30.3423 9.53239C29.8228 9.27716 29.2447 9.1435 28.6667 9.1435C28.0901 9.1435 27.5105 9.27716 26.9926 9.53239L15.9676 14.9435L12.7725 13.3744L26.9926 6.39427C27.5107 6.14059 28.0902 6.00537 28.6667 6.00537C29.2447 6.00537 29.8228 6.14041 30.3423 6.39427L44.5625 13.3744Z" fill="#FCA62F"/>
<g id="Group_3">
<path id="Vector_5" d="M33.3791 44.6923C32.9631 44.6923 32.5632 44.4608 32.3673 44.0621C32.0934 43.5038 32.3238 42.8291 32.8821 42.555L52.6146 32.8713C53.1727 32.5974 53.8476 32.8276 54.1216 33.3861C54.3955 33.9444 54.1651 34.6191 53.6068 34.8931L33.8746 44.5769C33.7148 44.6551 33.5458 44.6923 33.3791 44.6923Z" fill="#E4972C"/>
<path id="Vector_6" d="M33.3791 39.8504C32.9631 39.8504 32.5632 39.619 32.3673 39.2203C32.0934 38.662 32.3238 37.9873 32.8821 37.7132L51.8955 28.3823C52.4536 28.1084 53.1285 28.3386 53.4025 28.897C53.6764 29.4554 53.4461 30.1301 52.8877 30.4041L33.8746 39.7351C33.7148 39.8133 33.5458 39.8504 33.3791 39.8504Z" fill="#E4972C"/>
<path id="Vector_7" d="M33.3791 35.0085C32.9631 35.0085 32.5632 34.7771 32.3673 34.3784C32.0934 33.8201 32.3238 33.1453 32.8821 32.8713L51.2279 23.8681C51.786 23.5942 52.4609 23.8244 52.7349 24.3829C53.0088 24.9412 52.7784 25.6159 52.2201 25.89L33.8746 34.893C33.7148 34.9714 33.5458 35.0085 33.3791 35.0085Z" fill="#E4972C"/>
<path id="Vector_8" d="M33.3791 30.1666C32.9631 30.1666 32.5632 29.9352 32.3673 29.5365C32.0934 28.9782 32.3238 28.3035 32.8821 28.0294L50.4074 19.4288C50.9655 19.1549 51.6404 19.3851 51.9145 19.9436C52.1884 20.5019 51.958 21.1766 51.3997 21.4506L33.8746 30.0511C33.7148 30.1295 33.5458 30.1666 33.3791 30.1666Z" fill="#E4972C"/>
</g>
</g>
</g>
</svg>
