<svg width="51" height="51" viewBox="0 0 51 51" fill="none" xmlns="http://www.w3.org/2000/svg">
<g id="plum (1) 1" clip-path="url(#clip0_491_2324)">
<g id="Group">
<path id="Vector" d="M29.164 7.33059C29.7276 5.77542 30.7141 4.37821 32.0491 3.31426C31.3093 2.38584 30.5694 1.45743 29.8295 0.530029C27.6089 2.30023 26.0822 4.73185 25.4229 7.4111L27.1408 9.76027L29.164 7.33059Z" fill="#AD7136"/>
<path id="Vector_2" d="M32.083 6.97131C30.3586 6.97131 28.6982 7.34085 27.1411 8.02212C25.584 7.34085 23.9236 6.97131 22.1992 6.97131C13.3235 6.97131 6.12842 16.7223 6.12842 28.7506C6.12842 40.779 13.3236 50.53 22.1992 50.53C23.9235 50.53 25.584 50.1605 27.1411 49.4792C28.6982 50.1605 30.3585 50.53 32.083 50.53C40.9587 50.53 48.1537 40.7791 48.1537 28.7506C48.1537 16.7222 40.9587 6.97131 32.083 6.97131Z" fill="#654B87"/>
<path id="Vector_3" d="M23.8809 50.4117C23.3286 50.4902 22.767 50.5299 22.1994 50.5299C13.3239 50.5299 6.12793 40.779 6.12793 28.7504C6.12793 16.7217 13.3239 6.97083 22.1994 6.97083C22.767 6.97083 23.3286 7.01057 23.8809 7.08904C19.9074 8.23249 16.8083 17.4942 16.8083 28.7504C16.8083 40.0065 19.9074 49.2682 23.8809 50.4117Z" fill="#654B87"/>
<path id="Vector_4" d="M21.5043 22.9445C17.3178 27.1311 11.5761 28.8157 6.13811 27.9983C5.2209 27.8618 4.31287 27.6528 3.42216 27.3736C1.48278 21.1998 2.95846 14.1842 7.85124 9.29142C12.744 4.39864 19.7586 2.92296 25.9324 4.86336C25.9895 5.04578 26.0445 5.22922 26.0944 5.41368C27.7821 11.4509 26.2524 18.1965 21.5043 22.9445Z" fill="#70D65B"/>
<path id="Vector_5" d="M26.0944 5.41368C17.3097 8.83587 7.25506 22.3106 6.13811 27.9983C5.2209 27.8618 4.31287 27.6528 3.42216 27.3736C1.48278 21.1998 2.95846 14.1842 7.85124 9.29142C12.744 4.39864 19.7586 2.92296 25.9324 4.86336C25.9895 5.04578 26.0445 5.22922 26.0944 5.41368Z" fill="#58B741"/>
<path id="Vector_6" d="M8.99805 22.5612C8.86465 22.5612 8.72962 22.5262 8.60681 22.4529C8.24441 22.2364 8.1262 21.7671 8.34266 21.4047C11.4229 16.2487 15.9282 11.8518 19.1654 9.07125C22.6659 6.06435 25.4039 4.29424 25.5187 4.22036C25.8736 3.99197 26.3464 4.0947 26.575 4.44956C26.8033 4.80452 26.7007 5.27739 26.3459 5.50587C26.2366 5.57619 15.3525 12.6515 9.65487 22.1887C9.51189 22.4283 9.25823 22.5612 8.99805 22.5612Z" fill="#4AA032"/>
<path id="Vector_7" d="M19.6069 16.0362C19.5622 16.0362 19.5169 16.0322 19.4713 16.0241C19.0558 15.9497 18.7792 15.5525 18.8537 15.1369L19.8475 9.58806L14.6468 10.1874C14.2274 10.2358 13.8483 9.93497 13.8 9.5156C13.7517 9.09624 14.0524 8.71712 14.4718 8.66882L20.6935 7.95177C20.9335 7.92425 21.1727 8.01159 21.3381 8.18779C21.5036 8.3639 21.576 8.60798 21.5334 8.84584L20.3584 15.4064C20.2922 15.7764 19.9701 16.0362 19.6069 16.0362Z" fill="#4AA032"/>
<path id="Vector_8" d="M14.7251 19.0907C14.303 19.0907 13.9607 18.7484 13.9607 18.3263V15.1942L10.6461 15.5016C10.2258 15.5403 9.85329 15.2315 9.81436 14.8112C9.77533 14.3908 10.0845 14.0185 10.5048 13.9795L14.6544 13.5946C14.8688 13.5748 15.0812 13.6459 15.2399 13.7907C15.3988 13.9356 15.4894 14.1406 15.4894 14.3556V18.3263C15.4894 18.7484 15.1472 19.0907 14.7251 19.0907Z" fill="#4AA032"/>
</g>
</g>
<defs>
<clipPath id="clip0_491_2324">
<rect width="50" height="50" fill="white" transform="translate(0.375 0.530029)"/>
</clipPath>
</defs>
</svg>
