<svg width="50" height="50" viewBox="0 0 50 50" fill="none" xmlns="http://www.w3.org/2000/svg">
<g id="coconut-drink 1" clip-path="url(#clip0_738_135)">
<g id="Group">
<path id="Vector" d="M1.76457 22.7662C-0.510426 37.0969 10.5517 49.9999 25.0013 49.9999L26.4719 36.0528L25.0013 22.1056L19.9359 19.1995L5.26281 19.9851L1.76457 22.7662Z" fill="#C2715A"/>
<path id="Vector_2" d="M35.747 0C35.2105 1.43059 31.8728 10.3311 31.3352 11.7647L32.9058 13.2353L34.4764 11.7647C35.3724 9.37539 37.2563 4.35157 37.7852 2.94118H44.119C44.119 1.91255 44.119 1.02863 44.119 0C43.1072 0 36.7655 0 35.747 0Z" fill="#6AA9FF"/>
<path id="Vector_3" d="M17.6484 7.35291V11.7647L18.3837 13.2353L19.119 11.7647L19.936 9.55879L19.119 7.35291L18.3837 5.88232L17.6484 7.35291Z" fill="#004C9C"/>
<path id="Vector_4" d="M19.1189 11.7647L19.8542 13.2353L20.5895 11.7647C20.5895 10.296 20.5895 8.82164 20.5895 7.35291L19.8542 5.88232L19.1189 7.35291V11.7647Z" fill="#00366D"/>
<path id="Vector_5" d="M19.1191 0C15.0647 0 11.7661 3.29853 11.7661 7.35294H19.1191L20.5896 3.67647L19.1191 0Z" fill="#E26058"/>
<path id="Vector_6" d="M26.4718 7.35294C26.4718 3.29863 23.1734 0 19.1189 0V7.35294H26.4718Z" fill="#CF3F59"/>
<path id="Vector_7" d="M9.18634 11.7646C8.89242 12.7933 8.63987 13.6772 8.34595 14.7058L16.6737 16.1764L25.0014 14.7058L26.472 13.2352L25.0014 11.7646C24.5552 11.7646 9.63222 11.7646 9.18634 11.7646Z" fill="#CFDBFD"/>
<path id="Vector_8" d="M40.8166 11.7646C40.3704 11.7646 25.4473 11.7646 25.0015 11.7646V14.7058L33.3292 16.1764L41.657 14.7058C41.363 13.6772 41.1105 12.7933 40.8166 11.7646Z" fill="#B3C7EF"/>
<path id="Vector_9" d="M8.34591 14.7059C8.08924 15.6042 7.86855 16.3768 7.6062 17.295L9.48669 18.6765L17.2318 19.9851L25.0014 19.1647L26.472 16.9353L25.0014 14.706C20.5283 14.7059 11.0574 14.7059 8.34591 14.7059Z" fill="#E8F1FD"/>
<path id="Vector_10" d="M48.2338 22.7396L42.7137 19.5751L29.6091 19.1646L25.0021 22.1057C25.0021 22.1057 25.0018 22.1057 25.0016 22.1057C25.0014 22.1057 25.0012 22.1057 25.0012 22.1057V49.9999C31.2859 49.9999 37.1948 47.5526 41.639 43.1083C47.1214 37.626 49.4056 30.0669 48.2338 22.7396Z" fill="#AF5F49"/>
<path id="Vector_11" d="M27.1093 19.4363L38.5064 19.4118L42.3908 17.2744C42.1342 16.3763 41.9154 15.6106 41.657 14.7059C37.1838 14.7059 27.7129 14.7059 25.0015 14.7059V19.1647H25.0019H25.0023L27.1093 19.4363Z" fill="#CFDBFD"/>
<g id="Group_2">
<path id="Vector_12" d="M30.8838 32.3529H27.9426C27.9426 31.3243 27.9426 30.4404 27.9426 29.4117H30.8838V32.3529Z" fill="#804231"/>
</g>
<g id="Group_3">
<path id="Vector_13" d="M39.7073 32.3529H36.7661V29.4117H39.7073V32.3529Z" fill="#804231"/>
</g>
<g id="Group_4">
<path id="Vector_14" d="M35.2954 38.2352C34.2667 38.2352 33.3829 38.2352 32.3542 38.2352V35.2941H35.2954V38.2352Z" fill="#804231"/>
</g>
<g id="Group_5">
<path id="Vector_15" d="M21.7961 17.6358C20.5118 17.0755 18.9076 17.0829 17.7072 17.5157C16.4817 17.9577 15.89 18.7 15.1837 18.9937C14.6303 19.2239 13.7691 19.224 13.2152 18.9936C12.5081 18.6996 11.9165 17.9573 10.6915 17.5157C9.14637 16.9586 6.99715 17.0564 5.09313 18.3027C3.83637 19.1253 2.52225 19.4339 2.53205 19.4308C2.15891 20.6887 1.91862 21.7946 1.7644 22.7662C4.36362 21.9318 4.73744 21.8393 5.48882 21.4727C6.00578 21.2205 6.38911 20.9696 6.70391 20.7636C7.82058 20.0328 9.07597 20.0223 9.78205 20.3159C10.4891 20.6099 11.0808 21.3523 12.3058 21.7938C13.4637 22.2113 14.9352 22.2114 16.0933 21.7938C16.8161 21.5333 17.3363 21.1554 17.7643 20.8448C19.081 19.8887 20.1172 19.8862 21.4375 20.8448C22.5588 21.6588 23.4893 22.1055 25.0013 22.1057L26.4719 20.6351L25.0013 19.1645C23.5538 19.1642 23.2803 18.283 21.7961 17.6358Z" fill="#AF5F49"/>
<path id="Vector_16" d="M47.4694 19.4266C46.0047 18.9989 45.6193 18.7671 44.9099 18.3026C44.3508 17.9367 43.8375 17.6315 43.153 17.4364C42.0025 17.1083 40.3151 17.0667 39.0107 17.6357C37.9849 18.0829 37.4286 18.7275 36.7887 18.9937C36.2352 19.2239 35.3743 19.224 34.8205 18.9937C34.1134 18.6996 33.5221 17.9573 32.2971 17.5157C31.0252 17.057 29.2607 17.0504 27.8237 17.8228C26.495 18.537 26.4647 19.095 25.0015 19.1646V22.1058H25.0023C27.5441 22.1058 28.4544 20.7171 29.4194 20.3158C29.9728 20.0856 30.8338 20.0855 31.3875 20.3158C32.1 20.612 32.6813 21.3505 33.9109 21.7938C35.0687 22.2113 36.5402 22.2114 37.6982 21.7938C38.9254 21.3513 39.5127 20.6107 40.2217 20.3159C40.7972 20.0766 41.799 20.1159 42.3122 20.2561C42.6748 20.3551 42.9298 20.5218 43.2988 20.7635C44.8731 21.7941 45.4214 21.8664 48.2339 22.7396C48.0804 21.78 47.8422 20.6813 47.4694 19.4266Z" fill="#804231"/>
</g>
</g>
</g>
<defs>
<clipPath id="clip0_738_135">
<rect width="50" height="50" fill="white"/>
</clipPath>
</defs>
</svg>
