<?xml version="1.0" encoding="utf-8"?>
<!-- Generator: Adobe Illustrator 26.4.1, SVG Export Plug-In . SVG Version: 6.00 Build 0)  -->
<svg version="1.1" id="Capa_1" xmlns="http://www.w3.org/2000/svg" xmlns:xlink="http://www.w3.org/1999/xlink" x="0px" y="0px"
	 viewBox="0 0 165 164" style="enable-background:new 0 0 165 164;" xml:space="preserve">
<style type="text/css">
	.st0{fill:#EFEAF3;}
	.st1{fill:#FFFFFF;filter:url(#Adobe_OpacityMaskFilter);}
	.st2{mask:url(#mask0_487_1315_00000003787985682136121950000018376926495372675253_);}
	.st3{fill:#FFC6C5;}
	.st4{fill:#312B44;}
	.st5{fill:#FF5E33;}
	.st6{fill:#8C5147;}
	.st7{fill:#E1654B;}
</style>
<g>
	<circle class="st0" cx="82.5" cy="82.5" r="82"/>
	<defs>
		<filter id="Adobe_OpacityMaskFilter" filterUnits="userSpaceOnUse" x="-50.3" y="19.2" width="155.8" height="140.2">
			<feColorMatrix  type="matrix" values="1 0 0 0 0  0 1 0 0 0  0 0 1 0 0  0 0 0 1 0"/>
		</filter>
	</defs>
	
		<mask maskUnits="userSpaceOnUse" x="-50.3" y="19.2" width="155.8" height="140.2" id="mask0_487_1315_00000003787985682136121950000018376926495372675253_">
		<circle class="st1" cx="82.5" cy="82" r="82"/>
	</mask>
	<g class="st2">
		<path class="st3" d="M77.2,97.2C57.8,114.6,19.4,144.1-2,159.4l-48.3-10.5c22.9-10.2,94.4-54.1,116.2-67L77.2,97.2z"/>
		<path class="st3" d="M62.8,80.1c0.6-0.7,1.3-1.4,2.1-2c1.7-1.2,3.8-1.8,5.8-2.2c3.2-0.7,6.5-1.2,9.7-1.5c1.4-0.1,2.9-0.2,4.1,0.6
			c0.9,0.6,1.4,1.7,1.8,2.8c0.7,2,2,4,1.7,6.2l-0.7,10.6l2.4-0.7c2.5,0.1,3.3,2.3,3.3,3.3c0,0.7-0.3,1.4-0.8,2.1l0,0
			c0,0,0,0.1-0.1,0.1c-0.1,0.2-0.3,0.4-0.4,0.5c-0.1,0.1-0.2,0.2-0.3,0.3c-1.2,1.3-2.6,2.5-4.3,3.5c-1,0.6-2.1,1.1-3.2,1.3
			c-0.6,0.1-1.1,0.3-1.7,0.3l-0.8,0.1c-0.3,0-0.5,0.1-1.2-0.6l-0.2-0.5c0-0.1,0-0.2,0-0.2c-1.3,1.3-2.8,2.4-4.4,3.3
			c-2.3,1.2-5.2,1.7-7.6,0.8c-1.1-0.4-2.1-1.1-3.1-1.8c-3.3-2.4-6.1-5.3-8.6-8.5C56.4,91.3,58.7,85,62.8,80.1L62.8,80.1z"/>
		<path class="st4" d="M80.6,105.4c-1.8-0.5-1.1-2.3-0.3-3.4c1.5-2.2,3.5-4.2,5.2-6.2c0.4-0.5,1.1,0.2,0.7,0.7l-3.1,3.6
			c-0.3,0.4-3.7,4-2.2,4.4C81.4,104.6,81.2,105.6,80.6,105.4L80.6,105.4z"/>
		<path class="st5" d="M72.6,21.9l0.1-0.1C72.7,21.8,72.7,21.8,72.6,21.9z"/>
		<path class="st5" d="M75.9,25.2L75.9,25.2C75.9,25.2,75.9,25.2,75.9,25.2z"/>
		<path class="st5" d="M77,19.4L77,19.4L77,19.4L77,19.4z"/>
		<path class="st5" d="M70.7,20.7c1.6-0.5,2-0.8,3.7-1c0.8-0.2,1.7-0.2,2.5-0.3c0.4,0.1,1.1-0.1,1.5,0l0.2-0.1c0.2,0,0.3,0.1,0.5,0
			l0,0c0.2,0.1,0.5,0,0.6,0l0,0l0.3,0l-0.1,0c0.4,0.1,0.8,0.1,1.2,0l0,0.1c0.8-0.2,1.1,0.1,1.8,0l0,0c0.9,0.4,1.5-0.2,2.4,0.3
			c-0.1-0.1,0.1-0.1,0.1-0.1c0.4,0.1,0.9,0.2,0.9,0.4c0.3,0.1,0.3,0,0.3-0.1c0,0.1,0.2,0.2,0.5,0.3L87,20c0.2,0.1,0.5,0.1,0.7,0.2
			l-0.2,0.1c0.4,0.1,0.2-0.2,0.5,0l-0.1,0.2c0.5,0.2,1.2,0.2,1.6,0.9c0.3,0.8-0.2,1.6-0.9,2.1c-0.6,0.4-1.1,0.6-1.6,0.8
			c-1,0.4-2,0.6-2.9,1l-0.1,0.1c0,0.2-0.6-0.1-0.6,0l-0.2,0c-0.1,0-0.2,0.1-0.1,0.1c-0.2,0.1-0.2,0-0.4,0l-0.2,0.2
			c-0.8,0.3-1.5,0.2-2.3,0.3c-1,0.4-2.9,0.4-4.1,0.3c-1.6-0.2-3.4,0.6-5,0.2c-0.1,0-0.2,0-0.2-0.1c-0.5,0-1-0.1-1.5-0.1
			c0,0-1.8-0.2-2.9-1.1c-0.6-0.5-0.6-1.3-0.3-1.1c0.2,0.2,0.7,0.5,1.9,0.4l0,0c0.7,0.1,1.2,0.2,1.7,0.4c0.1-0.2,0.6,0,0.8,0l0,0
			c0.5,0.2,1-0.1,1.4,0.1c0,0,0-0.1-0.1-0.1c0.3,0,0.8,0.1,0.8,0c0.8,0.1,1.9,0,2.4,0.2l0,0c0.3,0.1,0.4,0,0.7,0.1c0,0,0,0,0,0
			c0.3,0.1,0.9,0,1.2,0l0-0.1l0.6,0l-0.2,0c0.1,0.3,0.5-0.2,0.9-0.1c0.4-0.1,0.9,0.4,1.4,0.2c0.2,0.1-0.2-0.2,0.1-0.1
			c0-0.1-0.2-0.1-0.1-0.2c0.3,0,0.5-0.2,0.9-0.2l0-0.1c0.5,0.1,0.9-0.3,1.3-0.2c0.5,0,0.3-0.4,0.8-0.3l0.2-0.2
			c0.2-0.1,0.2,0.1,0.4,0c0-0.1,0.3-0.1,0.1-0.2c0.5-0.3,1.2-0.1,1.8-0.6c0.2,0.1,0.5-0.1,0.7,0c0-0.1,0.7-0.3,0.2-0.3
			c0,0-0.1,0-0.1,0.1L86,22.9c0.3-0.3,0.7-0.2,1-0.4c-0.1,0.1-0.2,0.1-0.1,0.2c0.1-0.1,0.2-0.1,0.3-0.2l-0.1,0
			c0.1-0.1,0.3-0.2,0.3-0.3l0.1,0.1c0-0.1-0.1-0.2,0-0.2c0.1,0,0.1,0.1,0.2,0.1c0-0.1-0.2-0.3-0.3-0.2c0.1-0.1,0.1-0.1,0.1-0.1
			l-0.1,0.1c0-0.2-0.1,0.2-0.4,0l0,0.1l0-0.3c-0.3-0.3-0.3,0.1-0.7-0.2c0.2,0.1,0.1-0.2-0.1-0.2l0,0.1c-0.1,0-0.2-0.1-0.3-0.1
			c0.1,0.1,0,0.2-0.2,0.1l0.1,0.2c-0.1-0.1-0.2-0.2-0.3-0.2c-0.3,0.1-0.7-0.1-0.9,0c0,0-0.6,0-0.8-0.2c0.1,0.1-0.2,0.1-0.1,0.2
			c-0.2-0.1-0.6-0.2-0.8-0.1l0,0c-0.7,0.1-1.2-0.2-1.9,0c0-0.1-0.3-0.1-0.2-0.2c-0.7-0.1-1.2,0.4-1.5-0.1c-0.3,0-0.4,0.1-0.5,0.2
			l0.1,0c-0.6,0-0.8,0-1.2,0.1c-0.2,0-0.3-0.3-0.7-0.2c0.1,0.1,0,0.1-0.2,0.1c0.1,0,0.1,0-0.1,0.1c0,0-0.1,0-0.1,0l0,0
			c-0.2,0-0.2,0-0.1-0.1c0,0,0,0,0-0.1c-0.2,0.1-0.7,0.1-0.7,0.2c-0.7,0.1-1.3,0-1.9,0c-0.1,0.1,0.1,0.1,0.3,0.1l-0.4,0
			c0,0.1,0.3,0,0.4,0c-0.5,0.3-1.1,0-1.6,0.3l-0.1-0.1l0,0c0,0-0.2-0.1-0.2-0.1c-0.1,0.1,0.1,0.2-0.2,0.3c-0.2,0.2-0.7,0.1-1,0.1
			c0.2-0.1,0.1-0.1,0-0.1c-0.1,0-0.2,0.2-0.3,0.2l0,0.1c0-0.1-0.4,0-0.5-0.1c-0.1,0.1,0.2,0,0.3,0.1c-0.6,0.2-0.3,0.1-0.8,0.3
			c-0.3,0,0-0.1-0.2-0.2c-0.3,0.1-0.6,0.1-0.8,0.3l0-0.2c-0.5,0.1-0.8,0.3-1.1,0.5c-2,0.3-1.9,1.8-2.2,1.1c-0.1-0.3,0.1-0.9,0.3-1.2
			c0.2-0.3,0.4-0.5,0.4-0.5C67.9,21.1,68.9,21.2,70.7,20.7L70.7,20.7z"/>
		<path class="st5" d="M98.4,108.4l0.2,0C98.6,108.4,98.5,108.4,98.4,108.4z"/>
		<path class="st5" d="M105.4,110.6L105.4,110.6c0-0.1,0-0.1,0-0.1L105.4,110.6z"/>
		<path class="st5" d="M96.3,106.7c2.5,0.1,3.2-0.1,5.8,0.6c0.6,0.2,1.3,0.4,2,0.8c0.2,0.1,0.3,0.2,0.5,0.4c0.2,0.1,0.3,0.3,0.5,0.5
			c0.2,0.2,0.3,0.5,0.4,0.8c0.1,0.3,0.1,0.5,0,0.8c-0.3,1.2-1.2,1.9-1.9,2.2l-0.2,0.2c-0.2,0.1-0.5,0.2-0.7,0.4l0,0
			c-0.4,0.1-0.7,0.3-0.9,0.4l0,0l-0.4,0.2l0.1,0c-0.6,0.2-1.2,0.4-1.7,0.6l0-0.1c-1.1,0.5-1.6,0.4-2.5,0.8l0,0c-1.4,0-2,0.7-3.4,0.7
			c0.2,0-0.1,0.1,0,0.1c-0.6,0.1-1.3,0.2-1.3-0.1c-0.5,0.1-0.4,0.1-0.4,0.2c0-0.1-0.4-0.1-0.8,0l0.2,0l-1,0.1l0.2-0.2
			c-0.5,0.1-0.1,0.3-0.6,0.3l0-0.2c-0.7,0.1-1.1,0.4-1.9,0.6c-3,0.4-6.3,0.1-9.1,0.4l-0.1,0.1c-0.1,0.2-0.8-0.3-0.9-0.1l-0.3-0.1
			c-0.1,0-0.3,0-0.1,0.1c-0.3,0-0.3,0-0.5-0.1l-0.3,0.1c-1.2,0-2.2-0.4-3.5-0.6c-0.8-0.1-1.9-0.3-3.1-1.2c-0.6-0.4-1.1-1.5-0.7-2.3
			c0.3-0.8,0.8-1,1.2-1.3c2.1-1.3,4.5-2.7,6.9-3c0.1,0,0.3,0,0.3,0c0.7-0.2,1.4-0.4,2.1-0.5c0-0.2,10.3-1.7,2.7,1l0.1,0
			c-1.1,0.3-1.8,0.5-2.7,0.4c-0.1,0.3-0.9,0.2-1.2,0.4l0,0c-0.7,0-1.4,0.5-2.1,0.5c0,0,0.1,0.1,0.2,0c-0.5,0.1-1.1,0.3-1.1,0.4
			c-1.1,0.3-2.6,1-3.3,1.1l0.1,0c-0.4,0.1-0.5,0.2-0.9,0.4c0,0,0,0.1,0,0.1c-0.5,0.1-1,0.8-1,0.9l0.1,0c-0.1,0.1-0.1,0.3,0,0.4
			l-0.1-0.1c-0.2,0.2,0.2,0.2,0.6,0.6c0.5,0.2,0.9,1,1.6,1.1c0.3,0.2-0.2-0.3,0.2-0.1c0-0.1-0.2-0.1,0-0.2c0.4,0.2,0.8,0,1.3,0.2
			l0-0.1c0.7,0.3,1.4,0.1,1.9,0.3c0.8,0.2,0.5-0.3,1.3,0l0.3-0.1c0.3,0,0.2,0.2,0.6,0.1c0-0.1,0.5-0.1,0.3-0.1
			c0.9-0.1,1.7,0.2,2.9,0c0.2,0.2,0.8,0.1,1,0.2c0-0.1,1.1-0.1,0.5-0.2c-0.1,0-0.2,0-0.1,0l-0.1-0.1c0.6-0.2,1.2,0.1,1.8,0
			c-0.2,0.1-0.4,0.1-0.3,0.1l0.6-0.1l-0.1-0.1l0.9-0.1l-0.1,0.1c0.4-0.1,0.6-0.3,1.1-0.2c0.2,0.1-0.4,0.2,0.1,0.2
			c0.6-0.1,1.4-0.3,2.1-0.5c-0.1,0.1,0.1,0.1,0.3,0.1l0-0.1c0.8,0,0.3-0.3,1-0.3l-0.1-0.1l0.2,0.2c0.7,0.1,0.3-0.3,1.2-0.1
			c-0.3,0-0.1,0.3,0.3,0.1l-0.1-0.1c0.2,0,0.3,0,0.4,0c-0.1,0-0.1-0.1,0.2-0.2l-0.2-0.1l0.6,0.1c0.4-0.2,1.1-0.2,1.3-0.4
			c0,0,0.9-0.3,1.2-0.2c-0.2-0.1,0.3-0.2,0.1-0.3c0.3,0.1,1,0,1.3-0.2l-0.1,0c1-0.4,1.8-0.3,2.7-0.8c0,0.1,0.5-0.1,0.4,0.1
			c1-0.2,1.5-1,2.1-0.7c0.4-0.2,0.4-0.3,0.6-0.5l-0.1,0c0.7-0.4,0.9-0.5,1.3-0.9c0.2-0.1,0.5-0.1,0.5-0.4c-0.1,0.1-0.1,0-0.1-0.1
			c0,0.1,0,0.1-0.1,0c0,0,0,0,0-0.1l0,0c0-0.2,0-0.1,0.1-0.1c0,0,0,0,0.1,0c-0.1-0.1-0.5-0.5-0.6-0.4c-0.8-0.5-1.5-0.8-2.3-1.1
			c-0.1,0.1,0.1,0.2,0.3,0.3l-0.6-0.2c0,0.1,0.3,0.1,0.5,0.2c-0.7,0-1.5-0.5-2.4-0.4l-0.2-0.1l-0.1,0c0,0-0.2-0.1-0.3-0.2
			c-0.1,0.1,0,0.2-0.5,0.2c-0.4,0.1-1-0.1-1.4-0.2c0.2,0,0.2-0.1,0.1-0.1c-0.2,0-0.4,0.1-0.5,0l0,0.1c0.1-0.1-0.6-0.2-0.7-0.2
			c-0.1,0.1,0.3,0.1,0.4,0.2c-0.9,0-0.4,0-1.3,0c-0.5-0.1,0.1-0.1-0.1-0.2c-0.4,0-0.8-0.1-1.3,0l0.2-0.1c-0.8-0.1-1.3,0-1.8,0.1
			c-3-0.3-3.3-0.6-2.9-0.8c0.4-0.2,1.6-0.4,1.6-0.4C92.2,106.2,93.5,106.5,96.3,106.7L96.3,106.7z"/>
		<path class="st5" d="M92.9,34.4l0.1,0.2C93,34.6,93,34.6,92.9,34.4z"/>
		<path class="st5" d="M85.7,89C85.7,89,85.7,89,85.7,89C85.7,89,85.7,89,85.7,89z"/>
		<path class="st5" d="M97.2,42.6L97.2,42.6C97.2,42.6,97.2,42.6,97.2,42.6L97.2,42.6z"/>
		<path class="st5" d="M93.5,31.2c1.1,2.9,1.6,3.7,2.5,6.8c0.5,1.5,0.9,3.1,1.3,4.6c0,0.7,0.5,1.9,0.6,2.8l0.2,0.3
			c0,0.3,0.1,0.6,0.2,0.9l0,0c0,0.4,0.2,0.9,0.2,1.1l0,0l0.1,0.5l0-0.1c0.1,0.8,0.2,1.5,0.4,2.2l-0.1,0c0.4,1.4,0.3,2,0.6,3.4l0,0
			c-0.1,1.8,0.5,2.8-0.1,4.6c0.1-0.2,0,0.1,0.1,0.1c-0.2,0.8-0.5,1.7-0.7,1.6c-0.2,0.6-0.1,0.5,0,0.6c-0.1,0-0.3,0.4-0.5,0.9
			c0-0.1,0.1-0.1,0.1-0.2c-0.2,0.4-0.4,0.8-0.6,1.2l-0.1-0.3c-0.3,0.7,0.2,0.3-0.2,0.9L97.3,63c-0.5,0.9-0.5,1.5-1,2.3
			c-2.2,3.3-5.5,6-7.2,9.1l0,0.2c0.1,0.2-0.8,0.6-0.7,0.9l-0.3,0.3c0,0.1-0.1,0.3,0,0.2c-0.2,0.3-0.2,0.3-0.4,0.5l-0.1,0.4
			c-0.5,1.3-1.2,2.4-1.2,3.9c0.2,1.8,0.4,5.5,0.5,7.5c0,3,1.1,6.3,1,9.3c0,0.1,0,0.4,0,0.4l0.3,2.7c0,0,1.3,13.3-1.1,3.3l0,0.1
			c-0.2-1.5-0.4-2.4-0.3-3.5c-0.3-0.1-0.1-1.2-0.3-1.6l0,0c0.1-0.9-0.3-1.9-0.3-2.8c0,0-0.1,0.1-0.1,0.3c0-0.6-0.1-1.5-0.2-1.6
			c-0.1-1.5-0.4-3.7-0.2-4.7l0,0.1c0.1-0.6,0-0.7,0-1.4c0,0,0-0.1,0-0.1c0.1-0.6-0.1-1.8-0.1-2.3l-0.1,0l-0.1-1.2l0.1,0.5
			c0.3-0.2-0.3-0.9-0.2-1.8c-0.1-0.8,0.4-1.7,0.2-2.6c0.1-0.4-0.2,0.4-0.1-0.3c-0.1,0-0.1,0.3-0.2,0.1c0.1-0.6-0.1-1,0.1-1.8l-0.1,0
			c0.3-1,0.4-1.9,0.8-2.5c0.5-0.9,0-0.8,0.7-1.7l0.1-0.4c0.2-0.4,0.3-0.2,0.5-0.7c-0.1,0,0.3-0.6,0.1-0.4c0.5-1.1,1.5-1.8,2.2-3.1
			c0.3-0.1,0.7-0.8,1-0.9c0-0.1,0.9-1.2,0.3-0.6c-0.1,0-0.1,0.1-0.1,0.2l-0.1,0c0.4-0.8,1.1-1.1,1.6-1.8c-0.1,0.2-0.3,0.5-0.2,0.3
			l0.5-0.6l-0.2,0.1l0.7-0.9l0,0.2c0.3-0.5,0.3-0.7,0.8-1.1c0.2-0.2-0.2,0.5,0.2,0.1c0.4-0.7,1-1.7,1.4-2.4c0.1,0.1,0.2-0.1,0.3-0.3
			L95.7,63c0.6-0.8,0-0.4,0.5-1.2l-0.1,0l0.3-0.1c0.6-0.7,0-0.5,0.6-1.3c-0.1,0.3,0.2,0.3,0.3-0.2l-0.1,0.1c0.1-0.2,0.2-0.3,0.2-0.5
			c-0.1,0.1-0.2,0,0-0.3c-0.1,0.1-0.1,0.1-0.2,0.2c0.2-0.2,0.2-0.4,0.4-0.6c0-0.6,0.4-1.4,0.2-1.6c0,0,0-1.2,0.2-1.4
			c-0.1,0.2-0.1-0.4-0.3-0.2c0.1-0.3,0.1-1.2,0-1.6l0,0.1c-0.3-1.3-0.2-2.4-0.6-3.6c0.1,0-0.1-0.6,0.1-0.5c-0.1-1.3-0.8-2.3-0.5-2.9
			c-0.1-0.6-0.3-0.7-0.4-1l0,0.1c-0.2-1.1-0.3-1.4-0.5-2.2c-0.1-0.4,0.2-0.5-0.1-1.2c0,0.3-0.1,0-0.2-0.3c0,0.2,0,0.2-0.1-0.1
			c0-0.1,0-0.1,0-0.2c0,0,0,0,0,0c-0.1-0.5,0-0.4,0-0.2c0,0,0,0,0.1,0.1C95.3,41.9,95.1,41,95,41c-0.3-1.1-0.6-2.5-0.8-3.5
			c-0.1-0.1-0.1,0.2,0,0.5l-0.2-0.8c-0.1,0,0.1,0.5,0.1,0.7c-0.5-0.9-0.4-2-1-3l0-0.3l0-0.1c0,0,0-0.3,0-0.4
			c-0.2-0.1-0.2,0.1-0.4-0.5c-0.2-0.4-0.4-1.2-0.5-1.8c0.1,0.3,0.1,0.2,0.1,0c-0.1-0.3-0.2-0.4-0.3-0.6l-0.1,0
			c0.2,0.1-0.1-0.8-0.1-0.9c-0.1-0.1,0.1,0.4,0,0.5c-0.4-1.1-0.2-0.5-0.6-1.6c-0.1-0.6,0.2,0.1,0.2-0.3c-0.2-0.5-0.3-1-0.6-1.6
			l0.2,0.1c-0.3-1-0.5-1.5-0.9-2.1c-2-7.4,0.6-2,0.6-2C92.1,26.2,92.3,27.8,93.5,31.2L93.5,31.2z"/>
		<path class="st5" d="M84.5,94.9l-0.1-0.2C84.4,94.7,84.5,94.7,84.5,94.9z"/>
		<path class="st5" d="M64.7,43.1C64.7,43.1,64.7,43,64.7,43.1C64.7,43,64.7,43.1,64.7,43.1z"/>
		<path class="st5" d="M81.8,86.1L81.8,86.1C81.8,86.1,81.8,86.1,81.8,86.1L81.8,86.1L81.8,86.1z"/>
		<path class="st5" d="M83.3,97.9c-0.4-3.1-0.8-3.9-1-7.1c-0.2-1.5-0.3-3.2-0.5-4.7c0.1-0.7-0.2-2-0.2-2.8L81.4,83
			c0-0.3,0-0.6-0.1-0.9l0,0c0-0.4-0.2-0.9-0.2-1l0,0l-0.1-0.5l0,0.1c-0.1-0.7-0.5-1.3-0.9-1.8l0.1,0c-0.9-1.1-1-1.6-2-2.5l0,0
			c-0.9-1.4-2-1.6-3.2-2.9c0.1,0.2-0.1,0-0.1,0c-0.6-0.5-1.3-1.1-1.1-1.3c-0.5-0.4-0.4-0.2-0.5-0.2c0.1-0.1-0.3-0.4-0.7-0.7l0.1,0.2
			l-1-0.8l0.3,0c-0.6-0.4-0.3,0.1-0.8-0.4l0.1-0.1c-0.8-0.6-1.4-0.7-2.2-1.3c-1.5-1.3-2.9-2.9-4-4.6c-1.1-1.8-1.7-3.8-2.1-5.6
			L63,58.5c-0.2-0.1,0.2-1.1,0-1.2l0.1-0.4c0-0.1-0.1-0.4-0.1-0.2c0-0.4,0-0.4,0-0.7l-0.1-0.4c-0.1-1.5,0.1-2.8,0.1-4.5
			c-0.2-1.9,0.1-5.6,0.4-7.7c0.5-2.9,0.1-6.4,0.8-9.4c0-0.1,0.1-0.3,0.1-0.3l0.4-2.7c-0.1,0,2.2-13.2,1.9-2.9l0.1-0.1
			c-0.2,1.5-0.3,2.4-0.6,3.4c0.2,0.2-0.2,1.2-0.1,1.6l0,0c-0.3,0.9-0.1,1.9-0.4,2.7c0,0,0.1,0,0.1-0.2c-0.1,0.6-0.3,1.5-0.1,1.6
			c-0.2,1.5-0.4,3.7-0.7,4.6l0-0.1c-0.2,0.5-0.1,0.7-0.2,1.3c0,0,0,0.1,0,0.1c-0.2,0.6-0.1,1.8-0.2,2.3l0.1,0l-0.1,1.2l0-0.5
			c-0.3,0.1,0.1,0.9-0.1,1.8c0,0.8-0.6,1.7-0.5,2.5c-0.1,0.4,0.2-0.4,0.1,0.3c0.1,0,0.1-0.3,0.2-0.1c-0.1,0.6,0.1,1,0,1.7l0.1,0
			c-0.2,1,0.1,1.8,0,2.5c-0.1,1,0.3,0.7,0.2,1.7l0.2,0.4c0.1,0.4-0.2,0.3,0,0.8c0.1,0,0.1,0.6,0.2,0.3c0.3,1,0.1,2.2,0.8,3.4
			c-0.1,0.3,0.4,0.9,0.3,1.2c0,0,0.7,1.2,0.4,0.5c0-0.1-0.1-0.2-0.1-0.1l0.1-0.1c0.6,0.6,0.6,1.3,1.2,1.9c-0.2-0.2-0.4-0.4-0.3-0.2
			l0.5,0.6l0-0.2c0.2,0.3,0.5,0.5,0.8,0.8l-0.2,0c0.4,0.4,0.6,0.4,1,0.9c0.1,0.3-0.5-0.3-0.1,0.2c0.6,0.5,1.6,1.2,2.2,1.7
			c-0.1,0,0.1,0.2,0.2,0.4l0.1-0.1c0.7,0.7,0.4,0.1,1.1,0.8l0-0.1l0.1,0.3c0.6,0.7,0.5,0.1,1.1,1c-0.3-0.3-0.3,0.1,0.1,0.3l0-0.2
			c0.2,0.2,0.3,0.3,0.4,0.4c-0.1-0.1,0-0.2,0.3,0.1l-0.1-0.3l0.5,0.6c0.5,0.3,1.2,1,1.5,1c0,0,1,0.8,1.2,1.1c-0.1-0.2,0.4,0.2,0.4,0
			c0.2,0.3,0.8,1.1,1.2,1.3l0-0.1c1.1,1,1.6,2,2.5,3.1c-0.1,0,0.3,0.6,0.1,0.5c0.6,1.3,1.3,2.4,1,2.9c0.1,0.6,0.3,0.7,0.3,1l0-0.2
			c0.1,1.2,0.2,1.5,0.3,2.3c0,0.4-0.2,0.5-0.1,1.3c0.1-0.3,0.1,0.1,0.1,0.3c0-0.2,0-0.2,0.1,0.1c0,0.1,0,0.1,0,0.2c0,0,0,0,0,0
			c0,0.5,0,0.4-0.1,0.2c0,0,0,0-0.1-0.1c0.2,0.5,0.2,1.4,0.3,1.4c0.1,1.4,0.1,2.4,0.2,3.6c0.1,0.1,0.1-0.2,0.1-0.5l0.1,0.8
			c0.1,0,0-0.5,0-0.7c0.3,1,0.1,2.1,0.4,3.2l-0.1,0.3l0,0.1c0,0-0.1,0.3-0.1,0.4c0.1,0.2,0.2,0,0.3,0.5c0.2,0.4,0.1,1.3,0.1,1.9
			c-0.1-0.3-0.1-0.2-0.1-0.1c0,0.3,0.2,0.4,0.1,0.7l0.1,0c-0.1-0.1,0,0.8-0.1,0.9c0.1,0.1,0-0.5,0.1-0.5c0.1,1.1,0.1,0.6,0.2,1.7
			c0,0.6-0.1-0.1-0.2,0.2c0,0.5,0,1.1,0.2,1.7l-0.1-0.2c0,1,0.1,1.6,0.3,2.3c-0.1,7.7-1.1,1.7-1.1,1.7
			C83.5,103,83.6,101.5,83.3,97.9z"/>
		<path class="st6" d="M66.4,53.3c0.3-4.2,0.8-13.3,0.8-13.3s18.7-2.1,24.4-2.9c1.6,5.6,3.2,11.3,3.9,17c0.2,1.5,0.3,2.9,0,4.4
			c-0.4,2.3-1.8,4.3-3.3,6.1c-1.8,2.3-3.8,4.5-5.9,6.6c-0.5,0.5-1,1-1.6,1.2c-1,0.4-2.1,0.4-3.1,0.2c-1.1-0.2-2.1-0.7-3-1.2
			c-0.7-0.5-1.4-1.1-2.1-1.6c-2.1-1.9-4.3-3.8-6.4-5.7c-0.9-0.8-1.7-1.5-2.4-2.5C66.1,59.2,66.2,56.2,66.4,53.3L66.4,53.3z"/>
		<path class="st7" d="M67.1,40c0,0,18.7-2.1,24.4-2.9L67.1,40z"/>
		<path class="st7" d="M67.6,39.7c0,0-0.1,0-0.3,0.2C67.4,39.9,67.5,39.8,67.6,39.7z M91.5,37.1L91.5,37.1
			C91.4,37.2,91.4,37.2,91.5,37.1z M73.3,37l0,0.2c0.3-0.1,0.1-0.2,0.3-0.3c0.1,0.2,0.4-0.2,0.5,0c0,0,0.1-0.1,0.1-0.1
			c0.1,0.1,0.1,0,0.2,0c0,0,0,0,0,0.1l0.2,0c0.1-0.1,0.1-0.2,0-0.2c0.5-0.2,2.8-0.9,3.4-0.9c-0.1,0.1-0.2,0.1-0.3,0.3
			c0.2,0.1,0.2-0.1,0.3,0c0-0.3,0.3-0.1,0.4-0.4l0.1,0.2l0.1-0.1c0.6,0.1,0.2,0.1,0.7-0.1c0.3,0,0.5,0.2,0.7,0.1c0,0-0.1,0.1,0,0.1
			c0-0.1,0.2,0.1,0.3-0.1c0.1,0,0.3,0,0.3,0.2c0-0.1,0.3-0.2,0.1-0.2c0.1,0,0.2,0,0.2,0l-0.1,0.1c0.3,0,0.4-0.2,0.6,0l-0.1,0.1
			c0.2,0,0.3,0,0.3-0.2l-0.2,0c0.3,0,0.4,0,0.7,0.1l-0.1,0c0.3,0.2,1.8,0.2,2.1,0.4l-0.1,0.1l0.2,0.1c0,0-0.2-0.4-0.2-0.4
			c0.5,0,3,0.1,3.5,0.1c0.2,0,0-0.1,0-0.1c0.2,0.1,0.1,0.1,0.3,0.1c0,0,0-0.1-0.1-0.1c0.1,0,0.2,0,0.2,0c-0.1,0,0,0.1-0.1,0.2l0.2,0
			l0-0.1c0.1,0,0.2,0.2,0.4,0.2c0.4,0,0.9,0.2,1.3,0.2c0,0-0.1-0.1-0.2-0.1c0.1,0,0.1,0,0.2,0c-0.1,0,0.2,0.1,0.1,0.1
			c0.3,0.1,1.3,0.3,1.5,0.4c0,0,0,0.2,0,0.2c0,0,0.1-0.1,0.2-0.1c-0.2,0.1-0.2,0.1-0.2,0.2l0,0c-0.2,0.1,0,0-0.2,0.1
			c0,0,0.2-0.1,0.3-0.2c-0.1,0.1-0.2,0.2-0.3,0.2c-0.1,0.1,0,0-0.1,0.1c-0.1,0.1-0.2,0.1-0.4,0.2c-0.3,0.2-0.4,0.2-0.7,0.4l0,0
			c-0.1,0.1-0.3,0.2-0.4,0.3c0,0,0.1-0.1,0,0c-0.2,0.1-0.3,0.2-0.5,0.3l-0.1,0c-0.3,0.2-1.2,0.6-2,0.9c-0.9,0.3-1.7,0.6-2.1,0.7l0,0
			c-1.1,0.3-3.3,0.9-4.4,0.9c-0.2,0.2-0.4,0.2-0.6,0.2c0.1-0.1,0-0.2,0-0.1c-0.6,0.1,0-0.1-0.6-0.1c-0.7,0-3.1,0.3-3.7,0.3
			c-0.3-0.2-0.7-0.1-1-0.2l0,0c-0.3-0.1-2.2-0.1-2.6-0.3l0,0c-0.3-0.1-0.3,0-0.6,0c0-0.1-0.3-0.2-0.4-0.3l0,0
			c-0.1,0-0.9-0.2-1.8-0.4c-0.4-0.1-0.8-0.2-1.2-0.3c-0.3-0.1-0.5-0.2-0.5-0.2l0,0c0,0-0.1-0.1-0.2-0.1c0,0,0,0,0.3-0.2l0,0l0.1-0.1
			c0.1-0.1,0.2-0.1,0.2-0.1l-0.2,0.1c0.1-0.1,0,0,0,0c0,0,0.1-0.1,0.2-0.1c0,0,0,0,0,0c0.1-0.1,0.2-0.1,0.3-0.2c0.1-0.1,0,0,0.2-0.1
			c0.9-0.5,1.8-1.1,2.8-1.5c0,0,0,0,0,0c0.3-0.1,0.5-0.2,0.8-0.3c0.1-0.1,0.1-0.1,0.1-0.2C71.8,37.5,73.2,37,73.3,37L73.3,37z"/>
		<path class="st3" d="M88.1,71.2c-1.3-0.3-1.6,0-2,0.3L85,72.4c-0.8,0.6-1.5,1.2-2.2,1.7c-1.5,1.1-2.7,2.3-4.1,3.3
			c-1.4,1-2.6,1.9-4,2.6c-1.4,0.8-2.9,1.6-4.5,2.5l4.5,8.2c1.7-0.8,3.4-1.9,5.1-3.2c1.7-1.3,3.3-2.9,4.5-4.6
			c1.3-1.7,2.4-3.4,3.2-5.2c0.4-0.9,0.8-1.8,1.1-2.8l0.5-1.4c0.2-0.4,0.4-0.9-0.4-2L88.1,71.2z"/>
		<path class="st3" d="M85.2,87.5l0.5,0.3l0.3,0.1c0.1,0.1,0.4,0.2,0.5,0.2l0.5,0c0.3,0,0.6-0.1,0.8-0.2c0.4-0.2,0.8-0.5,1.2-0.8
			c0.8-0.6,1.4-1.3,1.9-2c0.5-0.7,0.9-1.6,1.2-2.5c0.1-0.5,0.3-0.9,0.3-1.4c0-0.3,0-0.5-0.1-0.9C92,80,92,79.7,90.8,78.8L90,78.4
			C88.6,77.9,88.4,78,88,78c-0.3,0-0.6,0.1-0.8,0.3c-0.4,0.3-0.6,0.6-1,0.8c-0.6,0.5-1.1,1.2-1.6,1.8c-0.4,0.7-0.8,1.4-1.1,2.2
			l-0.4,1.2c-0.1,0.2-0.1,0.5,0,0.8l0.1,0.5c0,0.1,0.2,0.3,0.3,0.4l0.2,0.2l0.4,0.4L85.2,87.5L85.2,87.5z"/>
		<path class="st3" d="M84.4,95.5l0.4,0.3L85,96c0.1,0.1,0.3,0.2,0.4,0.2l0.5,0.1c0.3,0,0.6,0,0.8-0.1c0.5-0.2,0.9-0.3,1.3-0.5
			c0.9-0.4,1.6-0.9,2.3-1.5c0.7-0.6,1.3-1.2,1.8-2c0.3-0.4,0.5-0.8,0.8-1.2c0.1-0.2,0.2-0.5,0.2-0.9c0-0.3,0.1-0.6-0.7-1.8l-0.6-0.7
			c-1.1-1-1.4-0.9-1.7-1c-0.4-0.1-0.6,0-0.9,0c-0.5,0.2-0.9,0.4-1.3,0.6c-0.9,0.4-1.6,0.9-2.3,1.5c-0.7,0.6-1.3,1.2-1.8,2
			c-0.2,0.4-0.5,0.8-0.7,1.2c-0.1,0.2-0.2,0.5-0.2,0.8l0,0.5c0,0.1,0.1,0.3,0.2,0.5l0.1,0.3l0.3,0.5L84.4,95.5L84.4,95.5z"/>
		<path class="st4" d="M87.6,78.1c-2.6,4.8-6.2,8.7-10.7,11.6c-0.5,0.3-1-0.5-0.5-0.8c4.4-2.8,7.9-6.6,10.3-11.2
			C87.1,77,87.9,77.5,87.6,78.1z"/>
		<path class="st4" d="M76.9,89.4c1.1,3.9,0.9,7.8-0.7,11.5c-0.2,0.6-1.1,0.1-0.8-0.5C76.8,97,77,93.3,76,89.7
			C75.8,89.1,76.7,88.8,76.9,89.4z"/>
		<path class="st4" d="M91.3,94c-2.2,2.3-5.9,3.9-8.1,0.7c-1.9-2.9,2-6.5,4.3-7.9c0.5-0.3,1,0.5,0.5,0.8c-1.7,1-5.2,3.9-4.2,6.2
			c1.4,3.2,5.1,1.1,6.8-0.6C91,92.9,91.7,93.6,91.3,94L91.3,94z"/>
		<path class="st4" d="M91.7,84.4c-1.5,2.2-4.5,4.9-7.2,2.9c-2.9-2.1-0.2-5.5,1.1-7.6c0.3-0.5,1.2-0.1,0.8,0.5c-1,1.5-3.2,4-1.9,5.8
			c2,2.7,5.1-0.4,6.3-2.1C91.2,83.4,92,83.9,91.7,84.4z"/>
		<path class="st4" d="M82.8,74.4c-2.5,2.4-5.4,4.3-8.5,5.8c-0.6,0.3-1.1-0.6-0.5-0.8c3-1.5,5.8-3.4,8.3-5.7
			C82.5,73.3,83.2,74,82.8,74.4z"/>
	</g>
</g>
</svg>
