<?xml version="1.0" encoding="utf-8"?>
<!-- Generator: Adobe Illustrator 26.4.1, SVG Export Plug-In . SVG Version: 6.00 Build 0)  -->
<svg version="1.1" id="Capa_1" xmlns="http://www.w3.org/2000/svg" xmlns:xlink="http://www.w3.org/1999/xlink" x="0px" y="0px"
	 viewBox="0 0 334 309" style="enable-background:new 0 0 334 309;" xml:space="preserve">
<style type="text/css">
	.st0{clip-path:url(#SVGID_00000049184000345756415730000008172742863888686264_);}
	.st1{fill:#FFC6C5;}
	.st2{clip-path:url(#SVGID_00000173862850128245132290000010319327507130989456_);}
	.st3{fill:#6B8DF2;}
	.st4{fill:#B5C8FF;}
	.st5{fill:#FFCA21;}
	.st6{fill:#EB67A5;}
	.st7{fill:#F2A7D0;}
	.st8{fill:#312B44;}
	.st9{fill:#FF5E33;}
	.st10{fill:#8C5147;}
	.st11{fill:#E1654B;}
</style>
<g>
	<g>
		<defs>
			<rect id="SVGID_1_" x="8" y="0" width="326" height="309"/>
		</defs>
		<clipPath id="SVGID_00000072990707934579616080000001186904002664085685_">
			<use xlink:href="#SVGID_1_"  style="overflow:visible;"/>
		</clipPath>
		<g style="clip-path:url(#SVGID_00000072990707934579616080000001186904002664085685_);">
			<path class="st1" d="M210.2,191.5c-30.7,37.3-92.9,102.1-127.9,136.1l-91.4-5.9C30,296.6,148.8,196.2,185.3,166.5L210.2,191.5z"
				/>
			<g>
				<g>
					<defs>
						
							<rect id="SVGID_00000157304933133397276670000016421664102746909094_" x="35.8" y="-20.1" transform="matrix(0.8374 -0.5465 0.5465 0.8374 -49.1366 132.4331)" width="324.5" height="337.8"/>
					</defs>
					<clipPath id="SVGID_00000100366943456102608830000004165541975481593484_">
						<use xlink:href="#SVGID_00000157304933133397276670000016421664102746909094_"  style="overflow:visible;"/>
					</clipPath>
					<g style="clip-path:url(#SVGID_00000100366943456102608830000004165541975481593484_);">
						<path class="st3" d="M204.9,173.1c4.3-2.8,5.5-8.6,2.7-12.9c-2.8-4.3-8.6-5.5-12.9-2.7c-4.3,2.8-5.5,8.6-2.7,12.9
							S200.6,175.9,204.9,173.1z"/>
						<path class="st4" d="M194.1,204.5c-0.9,0.6-1.9,0.8-3,0.6c-2.2-0.5-3.6-2.6-3.1-4.8l2.2-10.5c0.5-2.2,2.6-3.6,4.8-3.1
							s3.6,2.6,3.1,4.8l-2.2,10.5C195.6,203,194.9,203.9,194.1,204.5z"/>
						<path class="st3" d="M259.8,79.1c4.3-2.8,5.5-8.6,2.7-12.9s-8.6-5.5-12.9-2.7c-4.3,2.8-5.5,8.6-2.7,12.9
							C249.7,80.7,255.4,81.9,259.8,79.1z"/>
						<path class="st3" d="M225,280.2c4.3-2.8,5.5-8.6,2.7-12.9s-8.6-5.5-12.9-2.7c-4.3,2.8-5.5,8.6-2.7,12.9
							C214.9,281.8,220.6,283,225,280.2z"/>
						<path class="st5" d="M317.1,101.4l-11.2,0.9l-5.6,9.7l-4.3-10.4l-11-2.3l8.5-7.3l-1.1-11.1l9.6,5.9l10.3-4.6l-2.6,10.9
							L317.1,101.4z"/>
						<path class="st5" d="M316.2,253.9l-11.2,0.9l-5.6,9.7l-4.3-10.4l-11-2.3l8.5-7.3l-1.1-11.1l9.6,5.9l10.3-4.6l-2.6,10.9
							L316.2,253.9z"/>
						<path class="st6" d="M256.8,111.1c4.3-2.8-0.1-9.6-4.4-6.7C248.1,107.2,252.5,114,256.8,111.1z"/>
						<path class="st6" d="M314.4,135.6c4.3-2.8-0.1-9.6-4.4-6.7C305.6,131.7,310,138.5,314.4,135.6z"/>
						<path class="st6" d="M111.8,93.1c4.3-2.8-0.1-9.6-4.4-6.7C103.1,89.2,107.5,95.9,111.8,93.1z"/>
						<path class="st6" d="M315.3,164.5c4.3-2.8-0.1-9.6-4.4-6.7C306.5,160.6,310.9,167.3,315.3,164.5z"/>
						<path class="st4" d="M163.7,213.9c-0.5,0.3-1.1,0.6-1.8,0.6c-2.2,0.2-4.2-1.4-4.4-3.6c-1.7-17.9-10-52-46-78.9
							c-1.8-1.3-2.1-3.9-0.8-5.6c1.3-1.8,3.9-2.1,5.6-0.8c38.4,28.8,47.3,65.3,49.1,84.6C165.6,211.7,164.9,213.1,163.7,213.9z"/>
						<path class="st3" d="M129.7,206.2c4.3-2.8,5.5-8.6,2.7-12.9c-2.8-4.3-8.6-5.5-12.9-2.7s-5.5,8.6-2.7,12.9
							C119.6,207.8,125.4,209,129.7,206.2z"/>
						<path class="st7" d="M315.7,190c-1.3,0.4-1.9,0.2-3.8-0.7c-2.2-1.1-5.4-2.7-9.9-1.2s-6.1,4.8-7.2,6.9
							c-0.9,1.8-1.3,2.4-2.5,2.9c-1.3,0.4-1.9,0.2-3.8-0.7c-2.2-1.1-5.4-2.7-9.9-1.2c-2.1,0.7-3.2,3-2.5,5.1s3,3.2,5.1,2.5
							c1.3-0.4,1.9-0.2,3.8,0.7c2.2,1.1,5.4,2.7,9.9,1.2s6.1-4.8,7.2-6.9c0.9-1.8,1.3-2.4,2.5-2.9c1.3-0.4,1.9-0.2,3.8,0.7
							c2.2,1.1,5.4,2.7,9.9,1.2c0.3-0.1,0.6-0.3,0.9-0.4c1.5-1,2.2-2.9,1.6-4.7C320.1,190.4,317.8,189.3,315.7,190z"/>
						<path class="st7" d="M285.6,124.5c1.1-2,0.3-4.4-1.6-5.4c-2-1-4.4-0.3-5.4,1.6c-0.6,1.2-1.3,1.4-3.3,2c-2.3,0.7-5.8,1.7-8,5.9
							c-2.2,4.2-1.2,7.7-0.5,10c0.6,2,0.8,2.6,0.1,3.8c-0.6,1.2-1.3,1.4-3.3,2c-2.3,0.7-5.8,1.7-8,5.9c-1.1,2-0.3,4.4,1.6,5.4
							c2,1.1,4.4,0.3,5.4-1.6c0.6-1.2,1.3-1.4,3.3-2c1.2-0.4,2.8-0.8,4.4-1.9c1.3-0.9,2.6-2.1,3.7-4.1c2.2-4.2,1.2-7.7,0.5-10
							c-0.6-2-0.8-2.6-0.1-3.8c0.6-1.2,1.3-1.4,3.3-2C279.9,129.8,283.4,128.7,285.6,124.5z"/>
						<path class="st7" d="M104.8,158.7c-2,0.1-2.7,0.1-3.7-0.8c-1-0.9-1.1-1.6-1.1-3.6c-0.1-2.4-0.3-6-3.8-9.2s-7.1-3-9.6-2.9
							c-2,0.1-2.7,0.1-3.7-0.8c-1.6-1.5-4.2-1.4-5.7,0.3c-1.5,1.6-1.4,4.2,0.3,5.7c3.5,3.2,7.1,3,9.6,2.9c2-0.1,2.7-0.1,3.7,0.8
							c1,0.9,1.1,1.6,1.1,3.6c0.1,2.4,0.3,6,3.8,9.2s7.1,3,9.6,2.9c2-0.1,2.7-0.1,3.7,0.8c1.4,1.3,3.4,1.4,4.9,0.4
							c0.3-0.2,0.5-0.4,0.8-0.7c1.5-1.6,1.4-4.2-0.3-5.7C110.9,158.4,107.2,158.6,104.8,158.7z"/>
						<path class="st7" d="M164.7,128.2c-0.2-2.2-2.1-3.9-4.3-3.7c-2.2,0.2-3.9,2.1-3.7,4.3c0.4,4.7,3.1,7.1,5,8.7
							c1.6,1.3,2.1,1.8,2.2,3.1c0.1,1.3-0.3,1.9-1.7,3.4c-1.6,1.8-3.9,4.6-3.6,9.3c0.4,4.7,3.1,7.1,5,8.7c1.6,1.3,2.1,1.8,2.2,3.1
							c0.2,2.2,2.1,3.9,4.3,3.7c0.7-0.1,1.3-0.3,1.9-0.6c1.2-0.8,1.9-2.2,1.8-3.7c-0.4-4.7-3.1-7.1-5-8.7c-1.6-1.3-2.1-1.8-2.2-3.1
							c-0.1-1.3,0.3-1.9,1.7-3.4c1.6-1.8,4-4.6,3.6-9.3s-3.1-7.1-5-8.7C165.3,130,164.8,129.6,164.7,128.2z"/>
						<path class="st5" d="M60.4,195.7l9.9,5.3l1.2,11.1l8.1-7.8l11,2.3l-4.9-10.1l5.6-9.7l-11.1,1.5l-7.5-8.3l-2,11L60.4,195.7z"/>
						<path class="st6" d="M189.4,98.6c4.3-2.8-0.1-9.6-4.4-6.7C180.6,94.7,185,101.4,189.4,98.6z"/>
						<path class="st6" d="M98.6,119.2c4.3-2.8-0.1-9.6-4.4-6.7C89.9,115.3,94.3,122,98.6,119.2z"/>
					</g>
				</g>
			</g>
			<path class="st1" d="M179.1,164.2c0.9-1.5,2-3,3.2-4.2c2.7-2.7,6.4-4.3,10-5.7c5.7-2.2,11.5-4,17.4-5.5c2.5-0.6,5.3-1.2,7.6,0
				c1.9,0.9,3.1,2.8,4,4.6c1.8,3.5,4.7,6.9,4.9,10.8l1.6,19.6l4.2-1.9c4.5-0.5,6.7,3.2,6.9,5.1c0.2,1.4-0.2,2.7-0.8,4l0,0
				c0,0.1-0.1,0.1-0.1,0.2c-0.2,0.4-0.4,0.7-0.6,1.1c-0.1,0.2-0.3,0.4-0.5,0.7c-1.8,2.7-4.1,5.3-6.9,7.5c-1.7,1.3-3.5,2.5-5.5,3.3
				c-1,0.4-1.9,0.8-3,1l-1.5,0.4c-0.5,0.2-1,0.3-2.3-0.8l-0.6-0.8c-0.1-0.2-0.1-0.3-0.1-0.4c-2.1,2.7-4.4,5.2-7.2,7.2
				c-4,2.8-9,4.5-13.8,3.5c-2.2-0.4-4.2-1.4-6.2-2.4c-6.6-3.5-12.7-8-18.1-13.3C170.4,186.5,172.9,174.3,179.1,164.2L179.1,164.2z"
				/>
			<path class="st8" d="M218.7,205.6c-3.4-0.4-2.6-4-1.6-6.2c2.1-4.5,5.2-8.7,7.8-12.9c0.6-1,2.1,0.1,1.5,1l-4.6,7.5
				c-0.5,0.8-5.7,8.4-2.9,8.7C220.1,204,219.9,205.8,218.7,205.6L218.7,205.6z"/>
			<path class="st9" d="M180.8,54.7l0.2-0.2C181,54.6,180.9,54.6,180.8,54.7z"/>
			<path class="st9" d="M187.8,59.9L187.8,59.9L187.8,59.9z"/>
			<path class="st9" d="M188.2,49L188.2,49L188.2,49L188.2,49z"/>
			<path class="st9" d="M177.1,53.1c2.8-1.4,3.5-2,6.6-2.9c1.5-0.5,3.1-0.9,4.5-1.2c0.8,0.1,1.9-0.5,2.8-0.4l0.3-0.3
				c0.3,0,0.6,0,0.9-0.1v-0.1c0.5,0,0.9-0.1,1.1-0.1v-0.1l0.5-0.1l-0.1-0.1c0.8,0,1.5-0.1,2.2-0.3v0.2c1.4-0.5,2-0.1,3.3-0.6v-0.1
				c1.7,0.4,2.6-0.7,4.4-0.2c-0.2-0.1,0.1-0.1,0.1-0.2c0.8,0.1,1.7,0.1,1.7,0.5c0.6,0,0.5-0.1,0.6-0.3c0,0.2,0.5,0.3,1,0.4l-0.2-0.1
				c0.5,0.1,0.9,0.1,1.4,0.3l-0.3,0.3c0.7,0,0.3-0.4,0.9-0.2l-0.1,0.3c1,0.3,2.3,0.1,3.2,1.3c0.8,1.3,0.1,3-1.1,4.1
				c-0.9,0.9-1.8,1.4-2.7,1.9c-1.8,1-3.5,1.8-5.1,2.7l-0.1,0.3c0.1,0.3-1.1-0.1-1.1,0.3h-0.4c-0.1,0.1-0.3,0.3-0.1,0.2
				c-0.4,0.2-0.4,0.1-0.7,0.1l-0.3,0.4c-1.4,0.7-2.7,0.7-4.2,1.3c-1.7,1-5.3,1.6-7.3,1.8c-2.9,0.1-6,2.1-9.1,1.7
				c-0.1,0.1-0.4,0-0.4-0.1c-0.9,0.1-1.8,0.2-2.8,0.2c0,0-3.4,0.2-5.7-1.2c-1.3-0.7-1.4-2.2-0.9-2s1.3,0.7,3.6,0.3v-0.1
				c1.3,0,2.2,0,3.2,0.3c0.1-0.4,1.2-0.1,1.5-0.2l0,0c0.9,0.3,1.8-0.4,2.6-0.2c0,0-0.1-0.2-0.3-0.1c0.6,0,1.5,0,1.5-0.3
				c1.5-0.1,3.4-0.6,4.5-0.4l-0.1-0.1c0.6,0.2,0.7-0.1,1.3-0.1l0.1-0.1c0.6,0.1,1.7-0.3,2.2-0.3v-0.2l1.1-0.2l-0.4,0.1
				c0.3,0.4,0.8-0.5,1.7-0.4c0.7-0.3,1.8,0.5,2.6,0.1c0.4,0.1-0.4-0.3,0.2-0.3c-0.1-0.2-0.3-0.1-0.2-0.3c0.6-0.1,0.8-0.5,1.6-0.6
				v-0.2c1,0.1,1.6-0.8,2.3-0.7c1-0.2,0.4-0.8,1.4-0.8l0.3-0.4c0.4-0.2,0.4,0.2,0.8-0.1c-0.1-0.1,0.5-0.4,0.2-0.4
				c0.9-0.6,2.1-0.5,3.1-1.5c0.4,0.2,0.9-0.4,1.2-0.2c0-0.1,1.1-0.7,0.3-0.6c-0.1,0-0.2,0.1-0.1,0.1l-0.2-0.1c0.4-0.7,1.3-0.5,1.8-1
				c-0.1,0.2-0.4,0.3-0.1,0.3c0.2-0.1,0.4-0.3,0.5-0.4h-0.2c0.2-0.2,0.5-0.5,0.5-0.6l0.1,0.2c0-0.2-0.3-0.3,0-0.3
				c0.2,0,0.2,0.2,0.4,0.1c0-0.3-0.4-0.4-0.6-0.4c0.2-0.2,0.1-0.2,0.1-0.3l-0.1,0.2c-0.1-0.3-0.1,0.4-0.7,0.1v0.2l-0.1-0.4
				c-0.7-0.5-0.4,0.3-1.3-0.3c0.4,0,0.2-0.4-0.3-0.4l0.1,0.2c-0.2-0.1-0.3-0.1-0.5-0.1c0.1,0.1,0.1,0.3-0.3,0.2l0.2,0.3
				c-0.2-0.1-0.5-0.2-0.7-0.4c-0.5,0.2-1.4,0-1.6,0.3c0,0-1.2,0.2-1.5-0.1c0.3,0.2-0.4,0.3-0.2,0.5c-0.3-0.2-1.2-0.3-1.6,0h0.1
				c-1.3,0.4-2.3,0-3.5,0.5c0-0.2-0.6,0-0.5-0.3c-1.3-0.1-2.1,1-2.8,0.2c-0.6,0.1-0.6,0.4-0.9,0.5h0.1c-1.1,0.2-1.4,0.2-2.1,0.5
				c-0.4,0-0.6-0.4-1.3-0.1c0.3,0.1,0,0.1-0.3,0.2c0.2,0,0.2,0-0.1,0.2c-0.1,0-0.1-0.1-0.2-0.1l0,0c-0.4,0.1-0.4,0-0.2-0.1V52
				c-0.4,0.3-1.3,0.3-1.2,0.6c-1.3,0.3-2.3,0.3-3.4,0.6c-0.1,0.2,0.2,0.2,0.5,0.2l-0.8,0.2c0.1,0.2,0.5,0,0.7-0.1
				c-0.8,0.6-2,0.3-2.9,1l-0.3-0.1v0.1c0-0.1-0.3-0.1-0.5-0.1c-0.1,0.2,0.2,0.4-0.3,0.6c-0.3,0.3-1.2,0.4-1.7,0.5
				c0.3-0.2,0.1-0.2,0-0.2c-0.2,0.1-0.3,0.3-0.5,0.4l0.1,0.2c0-0.3-0.8,0.1-0.9,0c-0.1,0.2,0.5,0,0.6,0.1c-1,0.5-0.5,0.2-1.5,0.7
				c-0.6,0.1,0-0.3-0.4-0.3c-0.5,0.2-1,0.3-1.4,0.7v-0.3c-0.9,0.4-1.4,0.7-1.8,1.3c-3.5,1.2-3,3.9-3.7,2.6c-0.3-0.6-0.1-1.7,0.2-2.2
				c0.3-0.7,0.6-1,0.6-1C172,54.6,173.8,54.6,177.1,53.1L177.1,53.1z"/>
			<path class="st9" d="M252.2,206.2l0.3-0.1C252.5,206.1,252.4,206.1,252.2,206.2z"/>
			<path class="st9" d="M265.7,208.2L265.7,208.2c0-0.1,0-0.1,0-0.2V208.2z"/>
			<path class="st9" d="M247.9,203.6c4.6-0.5,5.8-1.1,10.8-0.5c1.2,0.1,2.5,0.3,3.8,0.9c0.3,0.1,0.7,0.3,1,0.5s0.7,0.4,1,0.8
				c0.4,0.4,0.7,0.8,0.9,1.3c0.3,0.5,0.3,1,0.3,1.5c-0.3,2.2-1.7,3.9-2.9,4.6l-0.3,0.5c-0.4,0.3-0.9,0.5-1.2,0.9h0.1
				c-0.6,0.3-1.2,0.8-1.5,0.9h0.1l-0.7,0.4h0.2c-1.1,0.5-2.1,1-3,1.6v-0.2c-1.8,1.2-2.8,1.1-4.4,2.2l0,0c-2.5,0.4-3.5,1.9-6.1,2.2
				c0.3,0-0.1,0.2,0,0.2c-1.1,0.3-2.3,0.7-2.5,0.3c-0.8,0.3-0.6,0.4-0.7,0.6c-0.1-0.2-0.8,0-1.4,0.2h0.3l-1.8,0.5l0.2-0.5
				c-0.9,0.4-0.1,0.5-1.1,0.7l-0.1-0.3c-1.3,0.5-2,1.1-3.2,1.7c-5.4,1.6-11.5,2-16.6,3.2l-0.2,0.3c-0.1,0.4-1.5-0.3-1.7,0l-0.6-0.1
				c-0.2,0.1-0.5,0.2-0.2,0.2c-0.6,0.1-0.6,0-1-0.1l-0.6,0.3c-2.2,0.3-4.2,0-6.6-0.1c-1.5,0-3.6,0-5.9-1.3c-1.2-0.6-2.4-2.5-1.9-4
				c0.4-1.6,1.2-2.2,1.8-2.8c3.6-2.9,7.5-6.1,11.8-7.4c0.1-0.1,0.5-0.2,0.5-0.1c1.2-0.5,2.5-1.1,3.7-1.5c0-0.3,18.4-6,5.3,1h0.1
				c-2,0.9-3.2,1.3-4.8,1.5c-0.1,0.5-1.6,0.7-2,1h0.1c-1.4,0.2-2.4,1.3-3.6,1.5c0.1,0,0.1,0.1,0.4,0c-0.9,0.3-2,0.8-2,1
				c-2,0.9-4.5,2.5-5.8,3h0.1c-0.8,0.2-0.8,0.5-1.5,1c0,0.1,0,0.1,0,0.1c-0.8,0.3-1.6,1.7-1.7,2l0.2,0.1c-0.1,0.2,0,0.5,0.1,0.7
				l-0.2-0.2c-0.3,0.4,0.4,0.3,1.2,1c0.9,0.3,1.9,1.6,3.1,1.5c0.6,0.3-0.5-0.4,0.4-0.2c0.1-0.3-0.4-0.2-0.1-0.4
				c0.8,0.2,1.4-0.2,2.4,0.1v-0.2c1.4,0.4,2.6-0.3,3.5,0c1.4,0.1,0.9-0.6,2.4-0.4l0.5-0.3c0.6-0.1,0.5,0.3,1.2,0.1
				c-0.1-0.2,0.9-0.2,0.4-0.3c1.5-0.4,3.2,0,5.2-0.8c0.5,0.2,1.5-0.1,1.9,0.1c0-0.1,2.1-0.4,0.9-0.5c-0.1,0-0.3,0-0.3,0.1l-0.2-0.2
				c1.1-0.6,2.2-0.2,3.3-0.5c-0.3,0.1-0.8,0.2-0.5,0.3l1.1-0.3l-0.3-0.1l1.6-0.5l-0.2,0.2c0.8-0.3,0.9-0.7,1.9-0.6
				c0.4,0.1-0.7,0.4,0.2,0.3c1-0.4,2.5-1,3.8-1.4c-0.1,0.3,0.3,0.1,0.7,0.1v-0.2c1.5-0.1,0.4-0.6,1.8-0.8l-0.2-0.1l0.5,0.3
				c1.4,0,0.5-0.6,2.1-0.5c-0.5,0.1-0.1,0.5,0.5,0.2l-0.2-0.1c0.4-0.1,0.5,0,0.8-0.2c-0.3,0-0.2-0.2,0.3-0.4l-0.4-0.1h1.1
				c0.7-0.5,2-0.7,2.3-1c0,0,1.6-0.8,2.1-0.6c-0.4,0,0.5-0.5,0.1-0.6c0.5,0,1.8-0.3,2.2-0.8h-0.1c1.8-1,3.3-1.1,4.7-2.2
				c0,0.2,0.8-0.3,0.7,0.1c1.8-0.6,2.6-2.2,3.6-1.8c0.7-0.4,0.7-0.7,1-1l-0.2,0.1c1.2-0.9,1.5-1.2,2.1-2c0.3-0.3,0.8-0.3,0.8-0.9
				c-0.2,0.2-0.1-0.1-0.2-0.2c0,0.1-0.1,0.1-0.2,0v-0.1l0,0c-0.1-0.3-0.1-0.3,0.1-0.2h0.1c-0.2-0.1-1-0.8-1.2-0.6
				c-1.5-0.7-3-1.1-4.6-1.4c-0.2,0.1,0.2,0.3,0.6,0.4l-1.1-0.1c0,0.2,0.7,0.2,1,0.2c-1.4,0.2-2.8-0.5-4.5-0.1l-0.4-0.2h-0.1
				c0-0.1-0.4-0.2-0.6-0.2c-0.2,0.2,0,0.4-0.8,0.5c-0.6,0.2-1.8,0-2.7,0c0.5-0.1,0.3-0.2,0.1-0.2c-0.4,0-0.6,0.2-0.9,0.2v0.3
				c0.1-0.3-1.1-0.1-1.3-0.2c-0.2,0.2,0.7,0.1,0.8,0.2c-1.6,0.2-0.8,0.1-2.4,0.3c-0.9-0.1,0.1-0.3-0.3-0.4c-0.8,0.1-1.6,0-2.4,0.3
				l0.2-0.3c-1.5,0.1-2.3,0.3-3.3,0.7c-5.5,0.2-6.3-0.2-5.6-0.7c0.7-0.6,2.8-1.2,2.8-1.2C240.3,203.9,242.7,204.1,247.9,203.6
				L247.9,203.6z"/>
			<path class="st9" d="M221.6,72l0.3,0.3C221.8,72.4,221.8,72.3,221.6,72z"/>
			<path class="st9" d="M223.6,174.1v0.1C223.6,174.2,223.6,174.1,223.6,174.1z"/>
			<path class="st9" d="M231.7,85.9L231.7,85.9C231.7,85.8,231.7,85.8,231.7,85.9L231.7,85.9z"/>
			<path class="st9" d="M221.7,66c2.9,5.1,4,6.3,6.5,11.8c1.3,2.6,2.5,5.4,3.6,8.1c0.2,1.4,1.5,3.4,1.8,5l0.4,0.5
				c0.1,0.5,0.3,1.2,0.6,1.6v-0.1c0.2,0.8,0.6,1.6,0.7,2v-0.1l0.3,0.9v-0.2c0.4,1.4,0.9,2.8,1.4,4h-0.3c1.2,2.5,1.1,3.6,2.1,6l0,0
				c0.2,3.2,1.7,5,1.1,8.5c0.1-0.4,0.1,0.2,0.2,0.2c-0.2,1.6-0.4,3.3-0.9,3.2c-0.2,1.1,0,0.9,0.1,1.1c-0.2,0-0.5,0.9-0.7,1.8
				c0.1-0.1,0.1-0.2,0.2-0.4c-0.2,0.8-0.5,1.6-0.8,2.4l-0.2-0.6c-0.3,1.3,0.4,0.5-0.2,1.6l-0.3-0.1c-0.6,1.7-0.6,2.9-1.2,4.6
				c-3.2,6.7-8.4,12.5-10.7,18.6l0.1,0.4c0.3,0.3-1.2,1.4-1,1.8l-0.4,0.6c0,0.2-0.1,0.7,0.1,0.3c-0.2,0.6-0.3,0.6-0.6,1.1v0.8
				c-0.6,2.6-1.5,4.7-1,7.5c0.8,3.2,2.3,9.9,3,13.7c0.8,5.4,3.7,11.2,4.5,16.8c0.1,0.2,0.1,0.6,0.1,0.7l1.3,4.9c0,0,6.2,24-1.2,6.5
				v0.1c-0.9-2.7-1.3-4.4-1.4-6.3c-0.5-0.2-0.6-2.2-0.9-2.8v0.1c-0.1-1.7-1.1-3.3-1.2-5c0,0.1-0.1,0.1,0,0.5
				c-0.2-1.2-0.5-2.8-0.8-2.8c-0.6-2.8-1.7-6.6-1.8-8.5v0.1c0-1.1-0.3-1.3-0.4-2.5c-0.1-0.1-0.1-0.1-0.1-0.1c0-1.2-0.8-3.2-0.9-4.2
				h-0.2l-0.5-2.2l0.2,0.8c0.4-0.4-0.7-1.6-0.8-3.3c-0.4-1.5,0.2-3.3-0.3-4.8c0.1-0.8-0.2,0.7-0.3-0.4c-0.3,0-0.1,0.6-0.3,0.3
				c-0.1-1.2-0.5-1.9-0.4-3.3L220,157c0.4-1.9,0.2-3.6,0.8-4.8c0.7-1.8-0.3-1.5,0.8-3.2v-0.8c0.3-0.8,0.5-0.5,0.8-1.4
				c-0.2,0,0.4-1.1,0-0.7c0.6-2.1,2.2-3.7,3.2-6.3c0.6-0.4,1.1-1.6,1.6-1.9c-0.1-0.1,1.4-2.4,0.3-1.2c-0.1,0.1-0.2,0.3-0.2,0.3
				l-0.3,0.1c0.5-1.5,1.7-2.3,2.4-3.7c-0.2,0.4-0.5,0.9-0.2,0.7l0.7-1.2l-0.3,0.2l1-1.9v0.4c0.4-0.9,0.3-1.4,1.1-2.3
				c0.4-0.4-0.2,1,0.4,0.1c0.6-1.4,1.4-3.4,1.9-4.8c0.2,0.2,0.3-0.2,0.5-0.6l-0.2-0.1c0.9-1.6-0.1-0.8,0.7-2.4l-0.2,0.1l0.5-0.3
				c0.8-1.4-0.1-0.9,0.8-2.5c-0.2,0.7,0.4,0.4,0.5-0.5l-0.2,0.2c0.1-0.5,0.3-0.6,0.3-0.9c-0.2,0.3-0.3,0.1-0.1-0.6
				c-0.1,0.1-0.2,0.3-0.3,0.4c0.2-0.4,0.3-0.8,0.5-1.3c-0.1-1,0.3-2.6-0.1-3c0,0-0.3-2.1-0.1-2.7c-0.1,0.5-0.4-0.7-0.5-0.3
				c0.1-0.6-0.1-2.3-0.5-2.9v0.1c-0.9-2.4-1-4.3-2.1-6.4c0.3,0-0.3-1.1,0.1-0.9c-0.6-2.4-2.2-3.9-1.6-5.1c-0.4-1-0.7-1.1-1-1.7
				l0.1,0.3c-0.7-2-1-2.5-1.6-3.9c-0.2-0.7,0.1-1-0.5-2.3c0,0.5-0.2-0.1-0.4-0.5c0.1,0.3,0.1,0.4-0.3-0.1c0-0.1,0-0.3-0.1-0.4l0,0
				c-0.3-0.8-0.2-0.7,0-0.3c0,0,0.1,0,0.2,0.1c-0.6-0.7-1-2.3-1.3-2.3c-0.8-2-1.7-4.4-2.4-6.2c-0.2-0.2-0.1,0.4,0.1,1l-0.6-1.4
				c-0.2,0.1,0.3,0.8,0.4,1.3c-1.1-1.5-1.4-3.5-2.6-5.3l-0.1-0.5l-0.1-0.1c0.1,0,0-0.5-0.2-0.8c-0.3-0.2-0.4,0.2-0.9-0.7
				c-0.5-0.7-1-2.2-1.5-3.2c0.3,0.5,0.3,0.3,0.2,0c-0.2-0.5-0.6-0.7-0.7-1.1l-0.2,0.1c0.3,0.1-0.4-1.3-0.4-1.6
				c-0.3-0.2,0.3,0.8,0.2,1c-1-1.9-0.5-0.9-1.5-2.8c-0.4-1.1,0.3,0.1,0.2-0.5c-0.5-0.9-0.8-1.8-1.5-2.8l0.4,0.2
				c-0.8-1.7-1.4-2.7-2.2-3.7c-5.7-13,0.6-3.8,0.6-3.8C217.7,57.2,218.6,60,221.7,66L221.7,66z"/>
			<path class="st9" d="M223,185.3l-0.2-0.4C222.8,184.9,222.9,185,223,185.3z"/>
			<path class="st9" d="M172.2,95.8L172.2,95.8C172.2,95.7,172.2,95.8,172.2,95.8z"/>
			<path class="st9" d="M215.5,169.9L215.5,169.9c0,0.1,0,0.1,0,0.1V169.9L215.5,169.9z"/>
			<path class="st9" d="M221.6,191.2c-1.6-5.6-2.5-6.9-3.9-12.8c-0.8-2.8-1.5-5.7-2.2-8.5c0-1.4-1-3.6-1.2-5.1l-0.4-0.5
				c-0.1-0.5-0.2-1.1-0.5-1.6l0,0c-0.1-0.8-0.5-1.5-0.6-1.9v0.1l-0.4-0.8v0.2c-0.4-1.2-1.3-2.2-2.1-3.1l0.2-0.1
				c-1.9-1.7-2.3-2.7-4.4-4v0.1c-2.1-2.3-4.2-2.4-6.6-4.5c0.3,0.3-0.2,0-0.2,0.1c-1.3-0.8-2.6-1.6-2.4-2c-1-0.5-0.8-0.3-1-0.2
				c0.1-0.2-0.7-0.7-1.4-1.1l0.3,0.3l-2.1-1.2l0.6-0.1c-1.2-0.5-0.5,0.2-1.5-0.5l0.2-0.3c-1.6-0.9-2.7-1-4.3-1.7
				c-3.1-1.9-6.1-4.4-8.6-7.4s-4.2-6.4-5.3-9.7l-0.3-0.2c-0.4,0,0-2-0.4-2.1v-0.8c-0.1-0.2-0.3-0.7-0.3-0.2
				c-0.2-0.7-0.1-0.7-0.1-1.3l-0.4-0.7c-0.7-2.8-0.6-5.2-1.1-8.2c-0.9-3.5-1.3-10.3-1.3-14.2c0.1-5.5-1.6-11.8-1.1-17.4
				c-0.1-0.2,0-0.7,0.1-0.7l-0.1-5.1c-0.2,0,0.4-24.8,2.8-5.9l0.1-0.1c0.1,2.8,0.2,4.5-0.2,6.5c0.5,0.3,0.1,2.3,0.2,2.9v-0.1
				c-0.3,1.7,0.4,3.5,0.1,5.1c0-0.1,0.2-0.1,0.2-0.5c0,1.2-0.1,2.8,0.2,2.9c0,2.8,0.4,6.8,0.1,8.7l0.1-0.1c-0.2,1.1,0.1,1.3,0,2.5
				c0,0.1,0.1,0.1,0.1,0.1c-0.2,1.2,0.2,3.3,0.2,4.2h0.2l0.2,2.2l-0.1-0.8c-0.5,0.3,0.5,1.7,0.3,3.3c0.2,1.5-0.6,3.2-0.2,4.8
				c-0.1,0.8,0.3-0.7,0.3,0.4c0.3,0,0.1-0.5,0.3-0.3c0,1.1,0.5,1.8,0.5,3.2h0.2c-0.1,1.8,0.8,3.3,0.6,4.5c0.2,1.8,0.8,1.1,0.8,3
				l0.4,0.7c0.2,0.8-0.2,0.6,0.1,1.5c0.1-0.1,0.4,1,0.4,0.5c0.8,1.8,0.8,4,2.4,6c0,0.7,0.9,1.6,0.9,2.1c0.1,0,1.6,2,0.9,0.7
				c-0.1-0.1-0.2-0.3-0.2-0.2l0.1-0.3c1.2,0.9,1.5,2.2,2.6,3.1c-0.4-0.2-0.8-0.7-0.6-0.3l1,0.9l-0.1-0.3c0.5,0.5,1,0.9,1.6,1.2h-0.4
				c0.9,0.5,1.3,0.5,2.1,1.4c0.3,0.4-0.9-0.3-0.1,0.3c1.3,0.7,3.3,1.8,4.5,2.5c-0.3,0.1,0.2,0.3,0.5,0.6l0.1-0.1
				c1.5,1.2,0.8,0,2.3,1.1l-0.1-0.2l0.2,0.6c1.3,1.2,1,0.1,2.4,1.5c-0.6-0.4-0.5,0.2,0.3,0.6l-0.1-0.3c0.4,0.3,0.5,0.4,0.8,0.6
				c-0.2-0.2,0-0.3,0.6,0.1l-0.3-0.5l1.1,1c1.1,0.3,2.4,1.4,3,1.5c0,0,2.1,1.1,2.4,1.7c-0.3-0.4,0.8,0.2,0.7-0.1
				c0.4,0.5,1.8,1.7,2.6,2l-0.1-0.1c2.4,1.5,3.5,3.2,5.4,4.9c-0.3,0.1,0.7,1,0.3,0.9c1.5,2.1,3.1,3.9,2.6,5.1
				c0.4,1.1,0.7,1.2,0.9,1.8v-0.3c0.6,2.1,0.7,2.7,1.2,4.2c0.1,0.8-0.3,1,0.2,2.3c0-0.5,0.2,0.1,0.3,0.6c-0.1-0.3,0-0.4,0.3,0.2
				c0,0.1,0,0.3,0,0.4l0,0c0.2,0.9,0.1,0.7,0,0.3c0,0-0.1,0-0.1-0.1c0.4,0.8,0.7,2.4,1,2.5c0.6,2.5,0.8,4.4,1.3,6.6
				c0.2,0.2,0.2-0.3,0.1-1l0.4,1.5c0.2-0.1-0.1-0.9-0.2-1.4c0.8,1.7,0.7,3.7,1.6,5.7v0.5l0.1,0.1c-0.1,0-0.1,0.5,0,0.8
				c0.3,0.2,0.4-0.1,0.7,0.9c0.4,0.8,0.6,2.3,0.7,3.4c-0.2-0.6-0.2-0.4-0.2-0.1c0.1,0.5,0.4,0.8,0.4,1.2h0.3
				c-0.3-0.1,0.1,1.4,0.1,1.6c0.3,0.2-0.1-0.8,0-1c0.5,2.1,0.3,1,0.8,3.1c0.1,1.2-0.3-0.1-0.4,0.4c0.2,1,0.3,2,0.8,3.1l-0.3-0.3
				c0.3,1.9,0.7,3,1.2,4.1c2,14.1-1.6,3.5-1.6,3.5C223.3,200.5,223.2,197.6,221.6,191.2z"/>
			<path class="st10" d="M178.2,114.1c-0.7-7.8-2.2-24.7-2.2-24.7s33.7-9.1,43.9-12.2c4.6,9.8,9.1,19.7,11.9,30.2
				c0.7,2.6,1.3,5.3,1.2,8c-0.2,4.3-2.1,8.4-4.3,12.2c-2.7,4.8-5.7,9.4-9,13.8c-0.8,1-1.6,2-2.6,2.7c-1.6,1.1-3.7,1.3-5.6,1.2
				c-2-0.1-4-0.6-5.9-1.4c-1.5-0.7-2.9-1.6-4.3-2.4c-4.5-2.9-8.9-5.7-13.4-8.6c-1.8-1.2-3.6-2.3-5.1-3.9
				C179.3,125,178.7,119.4,178.2,114.1L178.2,114.1z"/>
			<path class="st11" d="M175.9,89.4c0,0,33.7-9.1,43.9-12.2L175.9,89.4z"/>
			<path class="st11" d="M176.5,88.8c-0.1,0.1-0.1,0.1-0.5,0.5C176.2,89.1,176.4,89,176.5,88.8z M219.7,77.4l-0.2,0.1
				C219.6,77.5,219.6,77.5,219.7,77.4z M186.2,82.2l0.1,0.3c0.5-0.2,0-0.4,0.5-0.6c0.3,0.4,0.8-0.4,1-0.2c0,0,0.2-0.2,0.2-0.3
				c0.1,0.2,0.3,0,0.4,0c0.1,0.1,0,0.1,0,0.2l0.4-0.1c0.1-0.1,0.1-0.3-0.1-0.3c0.8-0.5,4.9-2.4,5.9-2.5c-0.1,0.3-0.4,0.2-0.4,0.6
				c0.3,0.1,0.3-0.2,0.5,0c-0.1-0.5,0.5-0.3,0.6-0.9l0.2,0.3l0.1-0.2c1.2,0,0.3,0.1,1.3-0.3c0.6-0.1,1,0.2,1.3,0c0,0-0.1,0.2,0,0.3
				c0-0.3,0.4,0.1,0.4-0.2c0.2,0,0.6-0.2,0.6,0.2c0-0.2,0.4-0.4,0.1-0.5c0.1,0,0.3-0.1,0.4-0.1l-0.2,0.1c0.5-0.1,0.7-0.4,1.1-0.2
				l-0.1,0.2c0.3-0.1,0.5-0.1,0.6-0.5h-0.3c0.5-0.1,0.8-0.2,1.2-0.1h-0.1c0.6,0.2,3.4-0.1,4,0.2l-0.2,0.3L206,78
				c0,0-0.4-0.7-0.4-0.6c0.9-0.2,5.6-0.7,6.4-0.7c0.3-0.1,0-0.3,0-0.3c0.4,0,0.2,0.2,0.6,0.1c0.1,0,0-0.1-0.1-0.1c0.2,0,0.3,0,0.3,0
				c-0.2,0.1,0,0.2-0.1,0.4h0.5v-0.1c0.1,0,0.3,0.3,0.8,0.2c0.8,0,1.6,0,2.4,0.1c0,0-0.2-0.1-0.4-0.1c0.1,0,0.3,0,0.4,0
				c-0.2,0.1,0.3,0.1,0.2,0.1c0.6,0.1,2.4,0.2,3,0.4l0.1,0.3c0.1-0.1,0.2-0.1,0.3-0.2c-0.3,0.2-0.3,0.3-0.4,0.4l0,0
				c-0.3,0.2-0.1,0.1-0.4,0.3c0,0,0.3-0.2,0.5-0.4c-0.2,0.2-0.4,0.4-0.5,0.4c-0.2,0.2,0,0-0.2,0.2s-0.4,0.3-0.6,0.5
				c-0.5,0.4-0.8,0.5-1.2,0.9h0.1c-0.1,0.2-0.5,0.4-0.7,0.6c0.1-0.1,0.1-0.2,0-0.1c-0.3,0.3-0.5,0.4-0.8,0.7l-0.3,0.1
				c-0.5,0.5-2,1.4-3.5,2.3c-1.5,0.8-3,1.6-3.6,1.9h0.1c-1.9,0.9-5.8,2.6-7.9,2.9c-0.2,0.3-0.7,0.4-1,0.6c0.2-0.2,0-0.3-0.1-0.2
				c-1,0.3-0.1-0.1-1.2,0.1c-1.2,0.2-5.7,1.4-6.7,1.7c-0.7-0.2-1.3,0.1-2,0l0.1,0.1c-0.7-0.1-4.1,0.5-4.9,0.3h0.1
				c-0.7-0.1-0.5,0.1-1,0.2c0-0.2-0.6-0.4-0.8-0.4l0,0c-0.1,0-1.8,0-3.4-0.2c-0.8-0.1-1.6-0.1-2.2-0.2c-0.6-0.1-1-0.2-1-0.2h-0.1
				c0,0-0.3-0.1-0.4-0.1c-0.1,0,0,0.1,0.5-0.4l0,0l0.2-0.2c0.2-0.2,0.4-0.3,0.3-0.3l-0.3,0.3c0.2-0.2,0.1-0.1,0,0
				c0.1-0.1,0.1-0.1,0.3-0.3c0.1,0,0,0-0.1,0.1c0.2-0.1,0.3-0.2,0.5-0.4c0.3-0.2,0-0.1,0.3-0.3c1.6-1.1,3-2.6,4.7-3.4
				c0-0.1,0,0-0.1,0c0.5-0.2,0.9-0.5,1.4-0.7c0.1-0.1,0.1-0.3,0.1-0.3C183.6,83.6,186.2,82.3,186.2,82.2L186.2,82.2z"/>
			<path class="st1" d="M223,140.8c-2.4-0.2-3,0.4-3.6,1.1l-1.9,1.9c-1.3,1.2-2.4,2.6-3.6,3.8c-2.4,2.5-4.4,5-6.6,7.2
				c-2.2,2.2-4.3,4.1-6.6,5.9c-2.3,1.9-4.9,3.7-7.5,5.9l10.5,13.7c2.9-2,5.8-4.4,8.5-7.3c2.8-2.9,5.2-6.3,7-9.6
				c1.8-3.4,3.4-6.8,4.4-10.4c0.5-1.8,1-3.5,1.3-5.4l0.5-2.7c0.2-0.9,0.4-1.7-1.2-3.5L223,140.8z"/>
			<path class="st1" d="M222.2,171.5l0.9,0.4l0.5,0.1c0.3,0.1,0.7,0.2,0.9,0.2l0.9-0.2c0.6-0.2,1-0.4,1.3-0.7c0.7-0.6,1.3-1.2,2-1.8
				c1.3-1.2,2.1-2.7,2.9-4.2c0.8-1.5,1.3-3.1,1.5-4.9c0.1-0.9,0.3-1.7,0.2-2.6c-0.1-0.5-0.2-1-0.5-1.5c-0.3-0.6-0.4-1-2.8-2.3
				l-1.7-0.6c-2.7-0.5-3-0.3-3.6-0.1s-1,0.4-1.4,0.7c-0.6,0.6-1,1.2-1.5,1.8c-1,1.2-1.8,2.5-2.4,3.8c-0.6,1.3-1.2,2.7-1.4,4.3
				l-0.3,2.4c0,0.4,0,0.9,0.2,1.4l0.3,0.9c0.1,0.2,0.4,0.5,0.6,0.7l0.3,0.4l0.8,0.6L222.2,171.5L222.2,171.5z"/>
			<path class="st1" d="M222.9,186.4l0.8,0.5l0.5,0.2c0.3,0.1,0.7,0.3,0.9,0.3h1c0.6-0.1,1.1-0.2,1.5-0.4c0.8-0.4,1.5-0.9,2.3-1.3
				c1.5-0.9,2.7-2.1,3.8-3.4c1.1-1.2,2.1-2.6,2.8-4.2c0.4-0.8,0.8-1.5,1.1-2.4c0.1-0.5,0.2-1,0-1.6c-0.1-0.6,0-1.1-1.8-3.2l-1.3-1.2
				c-2.3-1.4-2.8-1.3-3.4-1.3c-0.7,0-1.1,0.1-1.6,0.3c-0.8,0.4-1.5,0.9-2.2,1.4c-1.5,1-2.7,2.1-3.7,3.4c-1.1,1.3-2.1,2.6-2.8,4.2
				c-0.3,0.8-0.7,1.6-1,2.5c-0.1,0.4-0.2,0.9-0.2,1.5l0.1,0.9c0,0.2,0.3,0.5,0.5,0.8l0.3,0.4l0.6,0.8L222.9,186.4L222.9,186.4z"/>
			<path class="st8" d="M224,153.5c-3.4,9.4-8.9,17.6-16.4,24.2c-0.9,0.8-2-0.6-1.1-1.4c7.3-6.4,12.6-14.3,15.8-23.5
				C222.8,151.8,224.4,152.5,224,153.5z"/>
			<path class="st8" d="M207.6,177.3c3.1,6.8,3.7,14.1,1.9,21.4c-0.3,1.1-2,0.5-1.7-0.6c1.8-6.8,1.1-13.6-1.8-20
				C205.4,177,207.1,176.3,207.6,177.3z"/>
			<path class="st8" d="M235.2,181.7c-3.5,4.8-9.7,8.8-14.6,3.5c-4.4-4.8,1.9-12.5,5.7-15.6c0.9-0.7,2,0.6,1.1,1.4
				c-2.8,2.3-8.4,8.6-5.9,12.5c3.5,5.5,9.6,0.6,12.2-2.9C234.4,179.7,235.8,180.8,235.2,181.7L235.2,181.7z"/>
			<path class="st8" d="M233.2,164c-2.2,4.4-6.8,10.2-12.5,7.4c-5.9-3-1.9-9.9-0.1-14.2c0.5-1.1,2.1-0.4,1.7,0.6
				c-1.3,3-4.8,8.2-1.8,11.2c4.3,4.3,9.3-2.2,11-5.7C232.1,162.3,233.7,163,233.2,164z"/>
			<path class="st8" d="M214.1,148.1c-4,5-8.6,9.4-13.9,13c-0.9,0.7-2.1-0.7-1.1-1.4c5.2-3.6,9.7-7.8,13.6-12.7
				C213.3,146.2,214.8,147.2,214.1,148.1z"/>
		</g>
	</g>
</g>
</svg>
