<svg width="58" height="58" viewBox="0 0 58 58" fill="none" xmlns="http://www.w3.org/2000/svg">
<g id="strawberry 1" clip-path="url(#clip0_491_2297)">
<g id="Group">
<path id="Vector" d="M29.9661 9.41603L27.0301 10.03L24.1631 1.48503L29.1631 0.0300293L29.9661 9.41603Z" fill="#659C35"/>
<path id="Vector_2" d="M36.2681 8.49504C37.3441 7.51604 38.1611 6.33404 38.5771 4.94104C33.1201 2.91004 31.4211 5.54304 31.4211 5.54304C31.3421 4.47404 30.5331 4.02104 29.4961 3.91504L29.9671 9.41504L27.0301 10.03L27.0291 10.028L25.2731 4.79404C24.7491 5.05804 24.3961 5.33204 24.3801 5.54304C24.3801 5.54304 22.6801 2.91004 17.2241 4.94104C17.6531 6.37304 18.4901 7.59504 19.6131 8.58804C15.2261 9.20904 11.1941 10.719 9.16406 14.432C19.4411 17.507 22.5001 12.55 22.5001 12.55C23.1231 19.286 28.3411 21.275 29.1301 21.55C29.9191 21.275 35.1371 19.286 35.7601 12.55C35.7601 12.55 36.8871 17.507 47.1651 14.432C44.9001 10.693 40.6681 9.11204 36.2681 8.49504Z" fill="#88C057"/>
<g id="Group_2">
<path id="Vector_3" d="M45.4509 14.953C45.4359 14.935 45.4239 14.915 45.4089 14.897C36.7619 16.92 35.7589 12.55 35.7589 12.55C35.1359 19.286 29.9179 21.275 29.1289 21.55C28.3399 21.275 23.1219 19.286 22.4989 12.55C22.4989 12.55 19.9439 16.61 11.7729 15.051C11.7549 15.068 11.7369 15.086 11.7179 15.103C11.7419 15.107 11.7679 15.114 11.7909 15.118C9.36494 17.558 8.08594 21.346 8.08594 27.082C8.08694 39.904 20.9729 57.03 28.6249 57.03C36.2769 57.03 49.1629 39.904 49.1629 27.081C49.1629 21.238 47.8349 17.417 45.3209 14.982C45.3629 14.974 45.4089 14.962 45.4509 14.953Z" fill="#E22F37"/>
</g>
<path id="Vector_4" d="M17.4199 20.7021C17.2979 20.3111 16.7449 20.3111 16.6239 20.7021C16.6239 20.7021 15.1079 25.9961 15.1079 26.5071C15.1079 27.0181 15.3069 27.4991 15.6689 27.8611C16.0299 28.2231 16.5109 28.4221 17.0219 28.4221C17.5329 28.4221 18.0139 28.2231 18.3749 27.8611C18.7369 27.4991 18.9359 27.0191 18.9359 26.5071C18.9359 25.9951 17.4199 20.7021 17.4199 20.7021Z" fill="#994530"/>
<path id="Vector_5" d="M29.248 24.7021C29.126 24.3111 28.573 24.3111 28.452 24.7021C28.452 24.7021 26.936 29.9961 26.936 30.5071C26.936 31.0181 27.135 31.4991 27.497 31.8611C27.858 32.2231 28.339 32.4221 28.85 32.4221C29.361 32.4221 29.842 32.2231 30.203 31.8611C30.565 31.4991 30.764 31.0191 30.764 30.5071C30.764 29.9951 29.248 24.7021 29.248 24.7021Z" fill="#994530"/>
<path id="Vector_6" d="M40.4199 20.69C40.2979 20.299 39.7449 20.299 39.6239 20.69C39.6239 20.69 38.1079 25.984 38.1079 26.495C38.1079 27.006 38.3069 27.487 38.6689 27.849C39.0299 28.211 39.5109 28.41 40.0219 28.41C40.5329 28.41 41.0139 28.211 41.3749 27.849C41.7369 27.487 41.9359 27.007 41.9359 26.495C41.9359 25.983 40.4199 20.69 40.4199 20.69Z" fill="#994530"/>
<path id="Vector_7" d="M22.248 33.715C22.126 33.324 21.573 33.324 21.452 33.715C21.452 33.715 19.936 39.009 19.936 39.52C19.936 40.031 20.135 40.512 20.497 40.874C20.858 41.236 21.339 41.435 21.85 41.435C22.361 41.435 22.842 41.236 23.203 40.874C23.565 40.512 23.764 40.032 23.764 39.52C23.764 39.008 22.248 33.715 22.248 33.715Z" fill="#994530"/>
<path id="Vector_8" d="M29.248 42.69C29.126 42.299 28.573 42.299 28.452 42.69C28.452 42.69 26.936 47.984 26.936 48.495C26.936 49.006 27.135 49.487 27.497 49.849C27.858 50.211 28.339 50.41 28.85 50.41C29.361 50.41 29.842 50.211 30.203 49.849C30.565 49.487 30.764 49.007 30.764 48.495C30.764 47.983 29.248 42.69 29.248 42.69Z" fill="#994530"/>
<path id="Vector_9" d="M36.248 33.7021C36.126 33.3111 35.573 33.3111 35.452 33.7021C35.452 33.7021 33.936 38.9961 33.936 39.5071C33.936 40.0181 34.135 40.4991 34.497 40.8611C34.858 41.2231 35.339 41.4221 35.85 41.4221C36.361 41.4221 36.842 41.2231 37.203 40.8611C37.565 40.4991 37.764 40.0191 37.764 39.5071C37.764 38.9951 36.248 33.7021 36.248 33.7021Z" fill="#994530"/>
</g>
</g>
<defs>
<clipPath id="clip0_491_2297">
<rect width="57" height="57" fill="white" transform="translate(0.125 0.0300293)"/>
</clipPath>
</defs>
</svg>
