<svg width="51" height="51" viewBox="0 0 51 51" fill="none" xmlns="http://www.w3.org/2000/svg">
<g id="toast (2) 1" clip-path="url(#clip0_509_4058)">
<g id="Group">
<path id="Vector" d="M46.7394 13.8372C45.7767 7.86359 41.1422 3.33359 35.1522 2.47268C33.2603 2.20086 31.4331 2.31632 29.7322 2.74905C25.8331 3.74177 21.7558 3.74086 17.8567 2.74905C16.1567 2.31632 14.3294 2.20086 12.4385 2.47268C6.50307 3.32541 1.8858 7.78268 0.874888 13.6927C0.0767062 18.3581 1.62398 22.6854 4.52852 25.6981C6.53489 27.779 7.7358 30.5027 7.7358 33.3936V43.75C7.7358 46.469 9.93943 48.6727 12.6585 48.6727H34.5231C37.2422 48.6727 39.4458 46.469 39.4458 43.75V33.7954C39.4458 30.8 40.7476 28.0036 42.8685 25.8881C45.8667 22.9018 47.4976 18.549 46.7394 13.8372Z" fill="#FBD490"/>
<path id="Vector_2" d="M5.10561 16.8718C4.87288 16.8718 4.64015 16.7827 4.46288 16.6054C4.10743 16.2499 4.10743 15.6754 4.46288 15.3199L14.4629 5.31994C14.8183 4.96448 15.3929 4.96448 15.7483 5.31994C16.1038 5.67539 16.1038 6.24994 15.7483 6.60539L5.74833 16.6054C5.57106 16.7827 5.33833 16.8718 5.10561 16.8718Z" fill="#D8AF6F"/>
<path id="Vector_3" d="M7.37807 23.69C7.14534 23.69 6.91261 23.6009 6.73534 23.4236C6.37989 23.0682 6.37989 22.4936 6.73534 22.1382L20.3717 8.50182C20.7272 8.14637 21.3017 8.14637 21.6572 8.50182C22.0126 8.85727 22.0126 9.43182 21.6572 9.78727L8.0208 23.4236C7.84352 23.6009 7.6108 23.69 7.37807 23.69Z" fill="#D8AF6F"/>
<path id="Vector_4" d="M30.5607 46.8718C30.328 46.8718 30.0952 46.7827 29.918 46.6055C29.5625 46.25 29.5625 45.6755 29.918 45.32L35.3725 39.8655C35.728 39.51 36.3025 39.51 36.658 39.8655C37.0134 40.2209 37.0134 40.7955 36.658 41.1509L31.2034 46.6055C31.0261 46.7827 30.7934 46.8718 30.5607 46.8718Z" fill="#D8AF6F"/>
<path id="Vector_5" d="M22.3781 45.9627C22.1453 45.9627 21.9126 45.8736 21.7353 45.6963C21.3799 45.3409 21.3799 44.7663 21.7353 44.4109L35.3717 30.7745C35.7272 30.4191 36.3017 30.4191 36.6572 30.7745C37.0126 31.13 37.0126 31.7045 36.6572 32.06L23.0208 45.6963C22.8435 45.8736 22.6108 45.9627 22.3781 45.9627Z" fill="#D8AF6F"/>
<path id="Vector_6" d="M10.1056 30.0536C9.87288 30.0536 9.64015 29.9645 9.46288 29.7873C9.10743 29.4318 9.10743 28.8573 9.46288 28.5018L32.1901 5.77453C32.5456 5.41907 33.1202 5.41907 33.4756 5.77453C33.8311 6.12998 33.8311 6.70453 33.4756 7.05998L10.7483 29.7873C10.5711 29.9645 10.3383 30.0536 10.1056 30.0536Z" fill="#D8AF6F"/>
<path id="Vector_7" d="M10.5607 39.599C10.328 39.599 10.0952 39.5099 9.91796 39.3326C9.5625 38.9772 9.5625 38.4026 9.91796 38.0472L39.0089 8.95629C39.3643 8.60083 39.9389 8.60083 40.2943 8.95629C40.6498 9.31174 40.6498 9.88629 40.2943 10.2417L11.2034 39.3326C11.0261 39.5099 10.7934 39.599 10.5607 39.599Z" fill="#D8AF6F"/>
<path id="Vector_8" d="M13.2872 45.9627C13.0545 45.9627 12.8218 45.8736 12.6445 45.6963C12.2891 45.3408 12.2891 44.7663 12.6445 44.4108L41.7354 15.3199C42.0909 14.9645 42.6654 14.9645 43.0209 15.3199C43.3763 15.6754 43.3763 16.2499 43.0209 16.6054L13.93 45.6963C13.7527 45.8736 13.52 45.9627 13.2872 45.9627Z" fill="#D8AF6F"/>
<g id="Group_2">
<path id="Vector_9" d="M50.4808 13.8372C49.5181 7.86357 44.8835 3.33357 38.8935 2.47266C37.5608 2.28085 36.2626 2.29175 35.0153 2.45994C35.0608 2.4663 35.1053 2.4663 35.1517 2.47266C41.1417 3.33357 45.7762 7.86357 46.739 13.8372C47.4981 18.549 45.8662 22.9018 42.8699 25.889C40.749 28.0036 39.4471 30.8008 39.4471 33.7963V43.7508C39.4471 46.4699 37.2435 48.6736 34.5244 48.6736H38.2662C40.9853 48.6736 43.189 46.4699 43.189 43.7508V33.7963C43.189 30.8008 44.4908 28.0045 46.6117 25.889C49.6081 22.9018 51.239 18.549 50.4808 13.8372Z" fill="#A46F3E"/>
</g>
<rect id="Rectangle 4" x="9.45117" y="32.7505" width="35.674" height="11.3551" rx="4" transform="rotate(-45.1402 9.45117 32.7505)" fill="#FAEE9A"/>
<rect id="Rectangle 5" x="8.22559" y="23.6807" width="26.354" height="11.3551" rx="4" transform="rotate(-45.1402 8.22559 23.6807)" fill="#FAEE9A"/>
<rect id="Rectangle 7" x="2" y="18.6807" width="19.5444" height="11.3551" rx="4" transform="rotate(-45.1402 2 18.6807)" fill="#FAEE9A"/>
<rect id="Rectangle 6" x="13" y="40.6807" width="26.354" height="11.3551" rx="4" transform="rotate(-45.1402 13 40.6807)" fill="#FAEE9A"/>
</g>
</g>
<defs>
<clipPath id="clip0_509_4058">
<rect width="50" height="50" fill="white" transform="translate(0.666016 0.5)"/>
</clipPath>
</defs>
</svg>
