<svg width="50" height="50" viewBox="0 0 50 50" fill="none" xmlns="http://www.w3.org/2000/svg">
<g id="chocolate 1">
<g id="Group">
<g id="Group_2">
<path id="Vector" d="M22.3377 0V6.21184H16.1259V12.4237H9.91406V25.7348L40.0859 7.09925V0H22.3377Z" fill="#B3674F"/>
</g>
<g id="Group_3">
<path id="Vector_2" d="M40.0853 43.4829V7.09924L32.0986 36.3836L9.91348 26.6222V43.4829L8.13867 47.9199C9.6872 49.3797 13.8997 49.4844 15.5751 48.2332C15.7925 48.0708 16.1031 48.0708 16.3197 48.2332C17.8664 49.3886 20.0627 49.3886 21.6095 48.2332C21.8269 48.0708 22.1375 48.0708 22.354 48.2332C23.9008 49.3886 26.0971 49.3886 27.6439 48.2332C27.8613 48.0708 28.1719 48.0708 28.3884 48.2332C29.9351 49.3886 32.1315 49.3886 33.6782 48.2332C33.8956 48.0708 34.2062 48.0708 34.4228 48.2332C36.0982 49.4844 40.3107 49.3797 41.8592 47.9199L40.0853 43.4829Z" fill="#6F6CFF"/>
</g>
<path id="Vector_3" d="M40.0859 5.32444H35.6488V0H33.874V5.32444H29.437V0H27.6622V5.32444H23.2252V0H22.3377V6.21184H16.1259V12.4237H9.91406V13.3111H15.2385V17.7481H9.91406V19.5229H15.2385V21.4033L9.91406 24.6921V25.7348L40.0859 7.09925V5.32444ZM17.0133 20.3074V19.5229H18.2832L17.0133 20.3074ZM21.4503 17.5662L21.1566 17.7481H17.0133V13.3111H21.4503V17.5662ZM21.4503 11.5363H17.0133V7.09925H21.4503V11.5363ZM27.6622 13.7299L23.2252 16.4703V13.3111H27.6622V13.7299ZM27.6622 11.5363H23.2252V7.09925H27.6622V11.5363ZM33.874 9.8928L31.2118 11.5372V11.5363H29.437V7.09925H33.874V9.8928ZM35.6488 8.79685V7.09925H38.3971L35.6488 8.79685Z" fill="#995844"/>
<path id="Vector_4" d="M12.1625 50C10.3629 50 8.53038 49.5092 7.53027 48.5659L8.74779 47.2748C9.95289 48.4098 13.6614 48.5553 15.0448 47.5223C15.5755 47.1239 16.3183 47.1248 16.8516 47.5215C18.0762 48.4364 19.8537 48.4355 21.0792 47.5223C21.6125 47.1239 22.3553 47.1239 22.8868 47.5223C24.1097 48.4355 25.888 48.4355 27.1144 47.5223C27.6451 47.1239 28.3879 47.1248 28.9212 47.5215C30.1458 48.4364 31.9233 48.4355 33.1488 47.5223C33.6804 47.1239 34.4231 47.1248 34.9556 47.5215C36.3408 48.5553 40.0475 48.4106 41.2526 47.2748L42.4701 48.5659C40.6767 50.2564 36.2112 50.4925 34.0539 49.0576C32.2507 50.3035 29.8219 50.3026 28.0178 49.0584C26.2137 50.3035 23.7867 50.3026 21.9835 49.0584C20.1785 50.3035 17.7505 50.3026 15.9473 49.0576C14.9934 49.6912 13.5877 50 12.1625 50Z" fill="#6563DA"/>
<path id="Vector_5" d="M15.2387 42.5955H13.4639V44.3703H15.2387V42.5955Z" fill="#FFDD62"/>
<path id="Vector_6" d="M17.9008 42.5955H16.126V44.3703H17.9008V42.5955Z" fill="#FFDD62"/>
<path id="Vector_7" d="M20.5629 42.5955H18.7881V44.3703H20.5629V42.5955Z" fill="#FFDD62"/>
<path id="Vector_8" d="M23.225 42.5955H21.4502V44.3703H23.225V42.5955Z" fill="#FFDD62"/>
<path id="Vector_9" d="M25.8871 42.5955H24.1123V44.3703H25.8871V42.5955Z" fill="#FFDD62"/>
<path id="Vector_10" d="M28.5492 42.5955H26.7744V44.3703H28.5492V42.5955Z" fill="#FFDD62"/>
<path id="Vector_11" d="M31.2113 42.5955H29.4365V44.3703H31.2113V42.5955Z" fill="#FFDD62"/>
<path id="Vector_12" d="M33.8734 42.5955H32.0986V44.3703H33.8734V42.5955Z" fill="#FFDD62"/>
<path id="Vector_13" d="M36.5356 42.5955H34.7607V44.3703H36.5356V42.5955Z" fill="#FFDD62"/>
<path id="Vector_14" d="M9.91406 25.7348L40.0859 7.09924L33.874 40.8207L9.91406 26.6222V25.7348Z" fill="#6563DA"/>
<g id="Group_4">
<path id="Vector_15" d="M9.91406 25.7348L40.0859 7.09924L32.0992 36.3836L9.91406 26.6222V25.7348Z" fill="#FFFBEC"/>
<path id="Vector_16" d="M32.3914 36.9969L9.46973 26.9115V25.4872L40.8102 6.13025L32.3914 36.9969ZM10.358 26.3329L31.8066 35.7705L39.362 8.06834L10.358 25.9824V26.3329Z" fill="#FFFBEC"/>
</g>
</g>
</g>
</svg>
