<svg width="50" height="50" viewBox="0 0 50 50" fill="none" xmlns="http://www.w3.org/2000/svg">
<g id="lemon 1" clip-path="url(#clip0_738_11)">
<g id="Group">
<path id="Vector" d="M28.925 0V42C40.523 42 49.925 32.598 49.925 21C49.925 9.402 40.523 0 28.925 0Z" fill="#F9D70B"/>
<path id="Vector_2" d="M8.07495 29.377C8.07495 31.586 6.28395 33.377 4.07495 33.377C1.86595 33.377 0.0749512 31.586 0.0749512 29.377C0.0749512 27.789 2.14295 23.659 3.30495 21.464C3.63195 20.846 4.51795 20.846 4.84495 21.464C6.00695 23.659 8.07495 27.788 8.07495 29.377Z" fill="#F1B501"/>
<path id="Vector_3" d="M22.075 46C22.075 48.209 20.284 50 18.075 50C15.866 50 14.075 48.209 14.075 46C14.075 44.412 16.143 40.282 17.305 38.087C17.632 37.469 18.518 37.469 18.845 38.087C20.007 40.282 22.075 44.412 22.075 46Z" fill="#F9DA49"/>
<path id="Vector_4" d="M28.9249 7.77606C20.735 2.05406 9.38495 2.83006 2.07495 10.1401L28.924 36.9891L28.9249 7.77606Z" fill="#F1B501"/>
<path id="Vector_5" d="M28.9251 12.949C22.2841 6.33001 11.5361 6.33601 4.90405 12.968L28.9251 36.989V12.949Z" fill="#F9DA49"/>
<path id="Vector_6" d="M28.925 12.9489C28.693 12.7169 28.444 12.5129 28.2021 12.2979L17.925 22.5749V8.03694C17.793 8.02894 17.661 8.02294 17.529 8.01794H16.311C16.182 8.02294 16.054 8.02894 15.925 8.03694V23.9889L16.925 24.9879L17.925 25.9879H28.8951V23.9879H19.339L28.9241 14.4019L28.925 12.9489Z" fill="#F9EA80"/>
<path id="Vector_7" d="M28.925 0V42C40.523 42 49.925 32.598 49.925 21C49.925 9.402 40.523 0 28.925 0Z" fill="#F1B501"/>
<path id="Vector_8" d="M28.925 4V38C38.314 38 45.925 30.389 45.925 21C45.925 11.611 38.313 4 28.925 4Z" fill="#F9EA80"/>
<path id="Vector_9" d="M41.619 9.72003C41.533 9.62303 41.446 9.52703 41.358 9.43203L40.493 8.56703C40.398 8.47903 40.302 8.39203 40.206 8.30603L28.926 19.586V21V22.413L40.206 33.693C40.304 33.606 40.4 33.519 40.496 33.43L41.357 32.569C41.446 32.473 41.534 32.377 41.621 32.279L31.339 22H45.874C45.893 21.667 45.924 21.338 45.924 21C45.924 20.662 45.893 20.333 45.874 20H31.339L41.619 9.72003Z" fill="#F9DA49"/>
</g>
</g>
<defs>
<clipPath id="clip0_738_11">
<rect width="50" height="50" fill="white"/>
</clipPath>
</defs>
</svg>
