<svg width="51" height="50" viewBox="0 0 51 50" fill="none" xmlns="http://www.w3.org/2000/svg">
<g id="lemon (1) 1" clip-path="url(#clip0_491_2203)">
<g id="Group">
<g id="Group_2">
<path id="Vector" d="M31.6101 11.5265C31.4907 11.5265 31.3698 11.4977 31.2574 11.4371C30.8962 11.242 30.7615 10.7911 30.9566 10.4298L32.4107 7.73756C32.4125 7.73433 32.4143 7.73111 32.4161 7.72789C33.594 5.62213 33.2209 2.96715 31.5091 1.27135C31.2175 0.982479 31.2152 0.511776 31.5041 0.220174C31.793 -0.0714271 32.2637 -0.0736732 32.5553 0.215194C34.7386 2.37799 35.2156 5.76285 33.7163 8.44869L32.2648 11.1363C32.1303 11.3851 31.8743 11.5265 31.6101 11.5265Z" fill="#8CC825"/>
</g>
<path id="Vector_2" d="M38.9996 26.3713C38.9996 26.3713 38.0405 23.3988 37.8753 23.3532C37.7101 23.3075 34.4396 19.93 34.2413 19.5666C34.0431 19.2032 32.7261 13.8183 32.7261 13.8183L32.4589 10.777L32.0047 10.0026C32.0053 10.0013 32.0058 9.99988 32.0064 9.99861C32.0042 9.99734 32.0022 9.99587 32.0001 9.9946C31.1234 9.50427 29.9239 9.69714 28.5187 10.4582C27.7123 10.895 26.7739 11.0255 25.874 10.8485C25.8104 10.836 25.7467 10.8249 25.683 10.8132H23.1414L19.5402 12.416L15.1463 15.47L9.57374 21.6752L6.12744 31.044L8.90245 41.1352L12.8108 46.3999L14.5748 48.8376C15.0127 48.7776 15.4613 48.7901 15.9006 48.8765C23.4742 50.366 31.8699 46.3405 36.2731 38.4684C38.4509 34.575 39.3149 30.3421 38.9996 26.3713Z" fill="#FFE02F"/>
<g id="Group_3">
<path id="Vector_3" d="M14.3601 46.5213C14.3102 45.6054 13.9302 44.7376 13.3085 44.0634C8.07534 38.3898 7.11088 29.129 11.5141 21.2567C14.7314 15.5046 20.0806 11.8069 25.6828 10.8132C18.1596 9.42796 9.86763 13.4506 5.5015 21.2567C1.09836 29.129 2.06271 38.3898 7.29584 44.0634C7.91762 44.7376 8.2976 45.6055 8.34751 46.5213C8.43452 48.1169 8.898 49.2399 9.77476 49.7304C10.6515 50.2208 11.8509 50.0278 13.2561 49.2668C13.7685 48.9893 14.3342 48.8358 14.9095 48.806C14.5925 48.2276 14.4112 47.4564 14.3601 46.5213Z" fill="#FFE02F"/>
</g>
<path id="Vector_4" d="M44.824 14.56C42.8962 11.8714 40.1934 10.0362 37.1645 9.10693H36.0087L35.5132 11.5266V17.4109C35.5132 17.4109 38.9324 23.8034 39.2793 24.076C39.6262 24.3485 41.9057 25.9838 41.9552 26.0581C42.0047 26.1324 45.2505 27.6066 45.2505 27.6066L46.2804 27.671C46.7686 27.3052 47.1262 26.7636 47.2501 26.1186C48.0167 22.1268 47.2712 17.9727 44.824 14.56Z" fill="#A2E82D"/>
<path id="Vector_5" d="M38.7109 22.1473C36.2637 18.7345 35.5182 14.5804 36.2848 10.5885C36.4009 9.98383 36.7226 9.47015 37.1645 9.10677C36.3486 8.85648 35.5093 8.67123 34.6548 8.55355C33.3156 8.36908 32.0718 9.26088 31.8168 10.5885C31.0501 14.5804 31.7957 18.7345 34.2429 22.1473C36.6901 25.56 40.3854 27.599 44.4123 28.1536C45.1416 28.254 45.8421 28.0348 46.3706 27.6003C43.3416 26.671 40.6387 24.8359 38.7109 22.1473Z" fill="#A2E82D"/>
<g id="Group_4">
<path id="Vector_6" d="M10.2233 24.8397H9.03682C8.62627 24.8397 8.29346 24.5069 8.29346 24.0964C8.29346 23.6858 8.62627 23.353 9.03682 23.353H10.2233C10.6339 23.353 10.9667 23.6858 10.9667 24.0964C10.9667 24.5069 10.6339 24.8397 10.2233 24.8397Z" fill="#FBC700"/>
</g>
<g id="Group_5">
<path id="Vector_7" d="M15.384 27.9419H14.1975C13.7869 27.9419 13.4541 27.6091 13.4541 27.1986C13.4541 26.788 13.7869 26.4552 14.1975 26.4552H15.384C15.7945 26.4552 16.1273 26.788 16.1273 27.1986C16.1272 27.6091 15.7945 27.9419 15.384 27.9419Z" fill="#FBC700"/>
</g>
<g id="Group_6">
<path id="Vector_8" d="M15.384 34.1461H14.1975C13.7869 34.1461 13.4541 33.8133 13.4541 33.4028C13.4541 32.9922 13.7869 32.6594 14.1975 32.6594H15.384C15.7945 32.6594 16.1273 32.9922 16.1273 33.4028C16.1272 33.8133 15.7945 34.1461 15.384 34.1461Z" fill="#FBC700"/>
</g>
<g id="Group_7">
<path id="Vector_9" d="M10.2233 31.044H9.03682C8.62627 31.044 8.29346 30.7112 8.29346 30.3006C8.29346 29.8901 8.62627 29.5573 9.03682 29.5573H10.2233C10.6339 29.5573 10.9667 29.8901 10.9667 30.3006C10.9667 30.7112 10.6339 31.044 10.2233 31.044Z" fill="#FBC700"/>
</g>
<g id="Group_8">
<path id="Vector_10" d="M10.2233 37.2482H9.03682C8.62627 37.2482 8.29346 36.9154 8.29346 36.5048C8.29346 36.0943 8.62627 35.7615 9.03682 35.7615H10.2233C10.6339 35.7615 10.9667 36.0943 10.9667 36.5048C10.9667 36.9154 10.6339 37.2482 10.2233 37.2482Z" fill="#FBC700"/>
</g>
<g id="Group_9">
<path id="Vector_11" d="M15.384 40.3504H14.1975C13.7869 40.3504 13.4541 40.0176 13.4541 39.607C13.4541 39.1965 13.7869 38.8636 14.1975 38.8636H15.384C15.7945 38.8636 16.1273 39.1965 16.1273 39.607C16.1273 40.0176 15.7945 40.3504 15.384 40.3504Z" fill="#FBC700"/>
</g>
<g id="Group_10">
<path id="Vector_12" d="M43.2587 24.2913C43.0273 24.2913 42.7991 24.1835 42.654 23.9812L35.2047 13.5926C34.9655 13.259 35.042 12.7946 35.3756 12.5554C35.7092 12.3162 36.1737 12.3928 36.4128 12.7263L43.8621 23.1149C44.1013 23.4485 44.0248 23.9128 43.6912 24.1521C43.5601 24.2461 43.4086 24.2913 43.2587 24.2913Z" fill="#BCED6B"/>
</g>
</g>
</g>
<defs>
<clipPath id="clip0_491_2203">
<rect width="50" height="50" fill="white" transform="translate(0.125)"/>
</clipPath>
</defs>
</svg>
