<svg width="130" height="47" viewBox="0 0 130 47" fill="none" xmlns="http://www.w3.org/2000/svg">
<g clip-path="url(#clip0_484_1166)">
<path d="M47.0525 46.8847V45.5974C48.49 45.5974 52.4433 44.1746 52.4433 38.3479V25.4749C52.4433 21.2743 51.5808 19.1062 47.6994 18.9707V18.0899L61.2125 13.8215H62.1469V38.3479C62.1469 43.9713 66.3158 45.5974 67.4659 45.5974V46.8847H47.0525ZM62.2907 5.5557C62.2907 8.53681 59.703 11.0437 56.4685 11.0437C53.234 11.0437 50.7183 8.53681 50.7183 5.5557C50.7183 2.57459 53.234 0 56.4685 0C59.703 0 62.2907 2.50684 62.2907 5.5557Z" fill="#FF5E33"/>
<path d="M67.5378 18.0898L81.0509 13.8214H81.9134V17.751C84.7167 15.0409 88.2387 13.7536 93.0546 13.8214C102.83 13.8214 104.843 19.9869 104.843 23.781V38.551C104.843 44.1745 108.293 45.5973 109.443 45.5973V46.8846H89.8919V45.5973C91.3295 45.5973 95.139 44.1745 95.139 38.3478V23.1035C95.139 20.6644 93.3421 16.1927 87.8075 16.5315C85.5792 16.667 82.776 18.293 81.9134 21.6129V38.551C81.9134 44.1745 86.1543 45.5973 87.3043 45.5973V46.8846H67.5378V45.5973C68.9753 45.5973 72.2099 44.1745 72.2099 38.3478V25.4748C72.2099 21.2742 71.3473 19.1061 67.5378 18.9706V18.0898Z" fill="#FF5E33"/>
<path d="M109.587 46.8847V45.5974C111.024 45.5974 114.977 44.1746 114.977 38.3479V25.4749C114.977 21.2743 114.115 19.1062 110.233 18.9707V18.0899L123.747 13.8215H124.681V38.3479C124.681 43.9713 128.85 45.5974 130 45.5974V46.8847H109.587ZM124.822 5.5557C124.822 8.53681 122.235 11.0437 119 11.0437C115.766 11.0437 113.25 8.53681 113.25 5.5557C113.25 2.57459 115.768 0 119.003 0C122.237 0 124.825 2.50684 124.825 5.5557H124.822Z" fill="#FF5E33"/>
<path d="M0 11.5616L14.7698 6.30973H15.8318L31.8398 39.5718C34.228 35.8192 37.7662 27.7348 37.7662 22.0655C37.6781 15.8956 32.5493 14.8968 32.6374 10.2284C32.6374 4.55909 45.1952 3.8925 45.1952 12.3135C45.1952 16.3983 42.807 22.8173 39.9782 28.8189C36.9709 35.1548 33.3446 41.1564 29.1872 46.9918H22.1107L8.57902 19.5652C6.27892 14.8968 4.68832 12.8118 0 12.6457V11.5616Z" fill="#FF5E33"/>
</g>
<defs>
<clipPath id="clip0_484_1166">
<rect width="130" height="46.9918" fill="white"/>
</clipPath>
</defs>
</svg>
