<svg width="50" height="50" viewBox="0 0 50 50" fill="none" xmlns="http://www.w3.org/2000/svg">
<g id="banana-smoothie 1">
<g id="flat">
<g id="Group">
<path id="Vector" d="M34.7656 5.46875H15.2344L13.2812 35.9453V36.0703C13.3203 39.4766 14.8437 42.5312 17.2109 44.6484H17.1875V47.6562H32.8125V44.6562H32.7891C35.1562 42.5312 36.6797 39.4766 36.7188 36.0703V35.9453L34.7656 5.46875Z" fill="#EBF5FD"/>
<g id="Group_2">
<path id="Vector_2" d="M34.7656 5.46875H31.6406L33.5938 36.0859C33.5547 39.4297 32.1328 42.6484 29.6875 44.9766V47.6562H32.8125V44.6562H32.7891C35.1563 42.5312 36.6797 39.4766 36.7188 36.0703V35.9453L34.7656 5.46875Z" fill="#DCEDFA"/>
</g>
<path id="Vector_3" d="M20.3125 15.625L24.2188 11.7188V6.25L20.3125 10.1562V15.625Z" fill="#A3C539"/>
<path id="Vector_4" d="M20.3125 21.0938L24.2188 17.1875V11.7188L20.3125 15.625V21.0938Z" fill="#F5DC3C"/>
<g id="Group_3">
<path id="Vector_5" d="M14.7344 13.2813L13.2812 35.9453V36.0703C13.3203 39.4141 14.7891 42.4141 17.0859 44.5313H32.9141C35.2109 42.4141 36.6797 39.4141 36.7188 36.0703V35.9453L35.2656 13.2813L34.5156 13.5938C31.4531 14.8828 27.9766 14.7656 25 13.2813C22.0234 11.7969 18.5469 11.6797 15.4844 12.9688L14.7344 13.2813Z" fill="#FCF3C0"/>
</g>
<g id="Group_4">
<path id="Vector_6" d="M35.2656 13.2812L34.5156 13.5937C33.7656 13.9062 32.9922 14.1406 32.2031 14.2891L33.5937 36.0859C33.5547 39.2266 32.2891 42.25 30.1094 44.5312H32.9141C35.2109 42.4141 36.6797 39.4141 36.7187 36.0703V35.9453L35.2656 13.2812Z" fill="#FBEFA9"/>
</g>
<g id="Group_5">
<path id="Vector_7" d="M35.7578 40.5234C35.0938 42.0547 34.125 43.4219 32.9141 44.5312H17.0859C14.7891 42.4141 13.3203 39.4141 13.2812 36.0703V35.9453L14.3359 19.4844C17.8203 29.5234 25.8125 37.2656 35.7578 40.5234Z" fill="#FBEFA9"/>
</g>
<path id="Vector_8" d="M16.4062 47.6562V44.9766C13.9609 42.6484 12.5391 39.4297 12.5 36.0859L14.4531 5.42188C14.4766 5.00781 14.8203 4.6875 15.2344 4.6875H34.7656C35.1797 4.6875 35.5156 5.00781 35.5469 5.42188L37.5 35.9531V36.0781C37.4609 39.4219 36.0391 42.6406 33.5938 44.9688V47.6562C33.5938 48.0859 33.2422 48.4375 32.8125 48.4375H17.1875C16.7578 48.4375 16.4062 48.0859 16.4062 47.6562ZM32.0312 44.8516C31.9609 44.5703 32.0469 44.2734 32.2656 44.0703C34.5625 42.0156 35.8984 39.0938 35.9375 36.0625V35.9922L34.0313 6.25H15.9688L14.0625 35.9375V36.0625C14.0938 39.0938 15.4375 42.0156 17.7344 44.0703C17.9375 44.2578 18.0234 44.5312 17.9688 44.7969V46.875H32.0312V44.8516Z" fill="#EBF5FD"/>
<g id="Group_6">
<path id="Vector_9" d="M15 21.2578L14.0625 35.9375V36.0625C14.0938 39.0938 15.4375 42.0156 17.7344 44.0703C17.9375 44.2578 18.0234 44.5312 17.9688 44.7969V46.875H32.0312V44.8516C31.9609 44.5703 32.0469 44.2734 32.2656 44.0703C33.4609 43 34.3906 41.6953 35.0156 40.2656C35.5078 40.4375 36.0078 40.6016 36.5078 40.7578C35.8438 42.3281 34.8594 43.7656 33.5938 44.9688V47.6562C33.5938 48.0859 33.2422 48.4375 32.8125 48.4375H17.1875C16.7578 48.4375 16.4062 48.0859 16.4062 47.6562V44.9766C13.9609 42.6484 12.5391 39.4297 12.5 36.0859L13.6875 17.4375C14.0547 18.75 14.4922 20.0234 15 21.2578Z" fill="#DCEDFA"/>
</g>
<path id="Vector_10" d="M32.8125 48.4375H17.1875C16.7578 48.4375 16.4062 48.0859 16.4062 47.6562V43.75H33.5938V47.6562C33.5938 48.0859 33.2422 48.4375 32.8125 48.4375Z" fill="#DCEDFA"/>
</g>
<g id="Group_7">
<path id="Vector_11" d="M20.3125 0.78125V4.6875L24.2188 0.78125H20.3125Z" fill="#B9DC50"/>
<path id="Vector_12" d="M24.2188 5.46875V0.78125L20.3125 4.6875V5.46875H24.2188Z" fill="#F7E367"/>
</g>
<g id="Group_8">
<path id="Vector_13" d="M20.3125 4.6875V10.1562L24.2188 6.25V4.6875H20.3125Z" fill="#F5DC3C"/>
</g>
<g id="Group_9">
<g id="Group_10">
<path id="Vector_14" d="M35.5469 5.42188C35.5234 5.00781 35.1797 4.6875 34.7656 4.6875H30.8594C31.2734 4.6875 31.6094 5.00781 31.6406 5.42188L31.6953 6.25H34.0391L35.9375 35.9375V36.0625C35.9062 39.0938 34.5625 42.0156 32.2656 44.0703C32.0625 44.2578 31.9766 44.5312 32.0312 44.7969V46.875H29.6875V47.6562C29.6875 48.0859 29.3359 48.4375 28.9062 48.4375H32.8125C33.2422 48.4375 33.5938 48.0859 33.5938 47.6562V44.9766C36.0391 42.6484 37.4609 39.4297 37.5 36.0859L35.5469 5.42188Z" fill="#DCEDFA"/>
</g>
</g>
</g>
</g>
</svg>
