<svg width="51" height="50" viewBox="0 0 51 50" fill="none" xmlns="http://www.w3.org/2000/svg">
<g id="mango 1" clip-path="url(#clip0_499_2366)">
<path id="Vector" d="M37.866 15.2742L35.6229 13.3809L36.7444 14.3276L35.6187 13.386C35.7473 13.2307 38.7372 9.54116 36.0234 5.89907L38.3772 4.14526C40.0886 6.44204 40.5368 9.10981 39.6735 11.8602C39.0555 13.8293 37.9858 15.1321 37.866 15.2742Z" fill="#C27B48"/>
<path id="Vector_2" d="M41.5538 24.2614C41.5538 28.182 40.2476 32.1339 37.7418 35.3286C35.8905 37.6876 33.4914 39.848 30.8036 41.5749C28.1608 43.2735 25.2949 44.5201 22.5152 45.1805C20.6092 45.6326 18.6925 45.8546 16.8149 45.8546C12.9627 45.8546 9.27687 44.9222 6.18106 43.1374C5.38165 42.6776 4.62237 42.161 3.91007 41.5895C1.7545 39.8608 -0.155459 36.9949 0.947275 34.1349C1.42569 32.8922 2.35528 32.0313 3.10284 31.3405C6.31895 28.364 8.10665 25.8885 9.27198 22.7956C10.8219 18.6813 12.7533 15.5972 15.1749 13.3673C18.0192 10.749 21.5603 9.35179 25.6991 9.21381C28.836 9.11009 31.7763 9.73822 34.2028 11.0318C35.4974 11.7216 36.6314 12.5817 37.599 13.6032C37.7663 13.7773 37.9268 13.9564 38.0824 14.1413C38.9249 15.1374 39.6244 16.2704 40.1773 17.5385C41.1027 19.6618 41.5538 21.9562 41.5538 24.2614Z" fill="#FFB13B"/>
<path id="Vector_3" d="M41.5539 24.2613C41.5539 28.1819 40.2477 32.1339 37.7419 35.3285C35.8906 37.6876 33.4915 39.8479 30.8037 41.5749C28.1609 43.2734 25.295 44.52 22.5153 45.1805C20.6093 45.6325 18.6926 45.8546 16.8149 45.8546C12.9628 45.8546 9.27695 44.9222 6.18115 43.1374L37.5991 13.603L38.0825 14.1412C38.925 15.1373 39.6245 16.2703 40.1773 17.5384C41.1028 19.6617 41.5539 21.9562 41.5539 24.2613Z" fill="#FFB13B"/>
<path id="Vector_4" d="M50.6248 9.01924C47.094 13.6585 42.6886 13.9156 38.7041 9.05576C42.4525 4.41875 46.6357 4.21983 50.6248 9.01924Z" fill="#11A892"/>
<path id="Vector_5" d="M50.6248 9.01929C47.094 13.6585 42.6886 13.9157 38.7041 9.05581L50.6248 9.01929Z" fill="#0F9887"/>
</g>
<defs>
<clipPath id="clip0_499_2366">
<rect width="50" height="50" fill="white" transform="translate(0.625)"/>
</clipPath>
</defs>
</svg>
