<svg width="51" height="50" viewBox="0 0 51 50" fill="none" xmlns="http://www.w3.org/2000/svg">
<g id="apple 1" clip-path="url(#clip0_491_2233)">
<g id="Group">
<path id="Vector" d="M28.1511 14.304C26.3293 14.7548 24.4219 14.7548 22.6 14.304C13.1105 11.9572 5.16489 12.8571 5.25665 30.7518C5.30341 39.9185 13.8877 51.8042 22.9097 49.7706C24.5277 49.4062 26.2225 49.4062 27.8406 49.7706C36.8625 51.8042 45.4469 39.9185 45.4936 30.7518C45.5854 12.858 37.6407 11.9572 28.1511 14.304Z" fill="#D13834"/>
<path id="Vector_2" d="M9.6679 26.18C9.18001 26.18 8.78564 25.7848 8.78564 25.2978C8.78564 20.433 12.3473 16.4752 16.7259 16.4752C17.2138 16.4752 17.6082 16.8705 17.6082 17.3575C17.6082 17.8445 17.2138 18.2397 16.7259 18.2397C13.3213 18.2397 10.5502 21.4061 10.5502 25.2978C10.5502 25.7848 10.1549 26.18 9.6679 26.18Z" fill="#F75B57"/>
<path id="Vector_3" d="M25.3119 17.6442C24.8381 17.6442 24.4464 17.2675 24.4314 16.7902C24.3123 13.0565 22.8777 8.36905 19.2067 6.41133C18.777 6.18195 18.6138 5.64818 18.8432 5.21764C19.0734 4.78798 19.6054 4.62477 20.0377 4.85415C24.3731 7.16566 26.0609 12.5059 26.195 16.7337C26.2109 17.2207 25.8289 17.6283 25.341 17.6433C25.3304 17.6442 25.3216 17.6442 25.3119 17.6442Z" fill="#4C312C"/>
<path id="Vector_4" d="M25.2336 20.8142C23.7514 20.8142 22.3565 20.2363 21.3075 19.1864C20.9626 18.8423 20.9626 18.2839 21.3075 17.9389C21.6525 17.5939 22.2101 17.5939 22.5551 17.9389C23.2714 18.6553 24.2234 19.0497 25.2336 19.0497C26.2438 19.0497 27.1957 18.6553 27.9112 17.9389C28.2562 17.5939 28.8138 17.5939 29.1587 17.9389C29.5037 18.283 29.5037 18.8414 29.1587 19.1864C28.1097 20.2363 26.7158 20.8142 25.2336 20.8142Z" fill="#994530"/>
<path id="Vector_5" d="M24.4648 11.5046L25.0021 7.89971C25.5694 4.09278 28.5585 1.1037 32.3654 0.536411L35.9694 0L35.4321 3.60489C34.8649 7.41182 31.8758 10.4009 28.0689 10.9682L24.4648 11.5046Z" fill="#659C35"/>
</g>
</g>
<defs>
<clipPath id="clip0_491_2233">
<rect width="50" height="50" fill="white" transform="translate(0.375)"/>
</clipPath>
</defs>
</svg>
