<svg width="50" height="50" viewBox="0 0 50 50" fill="none" xmlns="http://www.w3.org/2000/svg">
<g id="glass 1" clip-path="url(#clip0_489_1679)">
<g id="Group">
<g id="Group_2">
<path id="Vector" d="M27.4228 49.5175C33.2859 49.5175 38.0389 48.4373 38.0389 47.1048C38.0389 45.7722 33.2859 44.692 27.4228 44.692C21.5596 44.692 16.8066 45.7722 16.8066 47.1048C16.8066 48.4373 21.5596 49.5175 27.4228 49.5175Z" fill="#D8ECFE"/>
<path id="Vector_2" d="M27.5274 50.0764C23.6882 50.0764 16.4287 49.4713 16.4287 47.1811C16.4287 44.8909 23.6882 44.2858 27.5274 44.2858C31.3666 44.2858 38.6261 44.8909 38.6261 47.1811C38.6261 49.4713 31.3666 50.0764 27.5274 50.0764ZM27.5274 45.2509C20.9705 45.2509 17.3938 46.5258 17.3938 47.1811C17.3938 47.8364 20.9705 49.1113 27.5274 49.1113C34.0843 49.1113 37.661 47.8364 37.661 47.1811C37.661 46.5258 34.0843 45.2509 27.5274 45.2509Z" fill="#D8ECFE"/>
</g>
<g id="Group_3">
<path id="Vector_3" d="M27.4226 47.7234C26.8899 47.7234 26.4575 47.292 26.4575 46.7583V32.2818C26.4575 31.7481 26.8899 31.3167 27.4226 31.3167C27.9554 31.3167 28.3877 31.7481 28.3877 32.2818V46.7583C28.3877 47.291 27.9563 47.7234 27.4226 47.7234Z" fill="#D8ECFE"/>
</g>
<path id="Vector_4" d="M9.08527 8.98315C9.08527 10.3864 11.8329 11.4654 16.0765 12.1226C16.5388 11.1739 16.8061 10.1123 16.8061 8.98604C16.8061 5.02141 13.5923 1.80762 9.62766 1.80762C5.66302 1.80762 2.4502 5.02141 2.4502 8.98604C2.4502 12.9507 5.66398 16.1645 9.62766 16.1645C10.698 16.1645 11.7094 15.9242 12.6214 15.5043C10.5377 12.5289 9.08527 10.0679 9.08527 8.98315Z" fill="#A4E869"/>
<g id="Group_4">
<path id="Vector_5" d="M26.9398 4.15771C22.7146 4.15771 18.8388 4.60552 15.7813 5.30329C16.4279 6.38131 16.8062 7.63787 16.8062 8.98516C16.8062 10.1114 16.5399 11.173 16.0766 12.1217C12.1197 11.5089 9.46568 10.5293 9.125 9.26214C9.13272 9.31039 9.13272 9.35093 9.14527 9.40208C9.15395 9.44165 9.16457 9.48218 9.17615 9.52368C9.21669 9.67327 9.26784 9.83348 9.33539 10.0091C9.34118 10.0236 9.34408 10.0362 9.35083 10.0506C9.42804 10.2465 9.52455 10.4598 9.63264 10.6847C9.65484 10.7301 9.678 10.7773 9.70117 10.8237C9.80733 11.0379 9.92314 11.2609 10.0544 11.4973C10.064 11.5157 10.0727 11.5321 10.0833 11.5494C10.231 11.8158 10.3951 12.0957 10.5707 12.3871C10.5891 12.418 10.6084 12.4489 10.6277 12.4798C10.8014 12.7655 10.9848 13.0598 11.1816 13.3648C11.1874 13.3735 11.1922 13.3812 11.198 13.3899C11.6256 14.0539 12.1052 14.7623 12.6245 15.5025C16.2397 20.661 21.7611 27.3684 24.9392 31.1497C26.2266 32.6813 28.5882 32.6543 29.838 31.0918C34.6104 25.1246 44.7971 12.031 44.7971 8.98322C44.7942 6.58495 36.8012 4.15771 26.9398 4.15771Z" fill="#D8ECFE"/>
<path id="Vector_6" d="M27.3627 32.7643C26.2818 32.7643 25.2656 32.2914 24.5678 31.4614C21.5316 27.85 15.8915 21.0103 12.227 15.7804C11.7039 15.0344 11.2214 14.3212 10.791 13.6524C10.5757 13.3175 10.3885 13.0203 10.2138 12.7307L10.1559 12.6371C9.97737 12.3399 9.81138 12.0552 9.65985 11.7859C9.49675 11.4877 9.37804 11.2589 9.26802 11.0408L9.19661 10.8941C9.08369 10.6596 8.98235 10.4347 8.90032 10.2301C8.81057 9.9908 8.75459 9.81515 8.71019 9.65108L8.67449 9.50921C8.67063 9.49087 8.65518 9.38857 8.65325 9.36927C8.62623 9.11835 8.79319 8.86259 9.04122 8.81627C9.28733 8.76898 9.52571 8.89444 9.59133 9.13765C9.68784 9.49474 10.4213 10.7098 15.7902 11.588C16.1444 10.7571 16.3239 9.88271 16.3239 8.98516C16.3239 7.78168 15.9929 6.59364 15.3675 5.55133C15.2874 5.41911 15.2767 5.25601 15.3376 5.11414C15.3984 4.97227 15.5228 4.86707 15.6744 4.83329C18.9441 4.0863 22.9454 3.67517 26.94 3.67517C35.7958 3.67517 45.2769 5.80805 45.2769 8.98323C45.2769 12.0947 35.8382 24.3602 30.2127 31.3939C29.5274 32.2509 28.5054 32.7498 27.409 32.7643C27.3936 32.7643 27.3782 32.7643 27.3627 32.7643ZM11.038 12.2289C11.2098 12.5107 11.3912 12.8031 11.5852 13.1033C12.0263 13.7875 12.5021 14.4911 13.0174 15.2255C16.6607 20.4255 22.2805 27.2391 25.3061 30.8399C25.8272 31.4585 26.5781 31.7789 27.3965 31.7982C28.2024 31.7876 28.9542 31.4199 29.458 30.7897C38.7586 19.1622 44.3118 11.0099 44.3118 8.98227C44.3118 7.25377 37.3834 4.63931 26.94 4.63931C23.2659 4.63931 19.5927 4.99157 16.5121 5.63722C17.0217 6.6805 17.289 7.82607 17.289 8.9842C17.289 10.1471 17.0274 11.2744 16.5101 12.3331C16.4175 12.5232 16.2168 12.6313 16.0025 12.5985C13.4884 12.2096 11.6065 11.6981 10.3711 11.0727C10.4049 11.1354 10.4397 11.1991 10.4754 11.2638C10.6481 11.5755 10.8093 11.8505 10.982 12.1362L10.625 12.4779L11.038 12.2289Z" fill="#CDDEEE"/>
</g>
<path id="Vector_7" d="M38.7065 19.4989C38.7065 20.6203 33.1533 21.5295 27.4235 21.5295C21.6937 21.5295 15.5537 20.6203 15.5537 19.4989C15.5537 18.3775 21.6937 17.6691 27.4235 17.6691C33.1533 17.6691 38.7065 18.3775 38.7065 19.4989Z" fill="#F9EA80"/>
<g id="Group_5">
<path id="Vector_8" d="M27.3666 21.5295C22.4291 21.5295 17.1963 20.8539 15.8413 19.9496C19.003 24.0831 22.5632 28.3942 24.8805 31.1506C26.1679 32.6822 28.5295 32.6552 29.7793 31.0927C31.9817 28.3383 35.3364 24.0667 38.3118 19.965C37.0436 20.8616 32.276 21.5295 27.3666 21.5295Z" fill="#F2E69C"/>
</g>
<path id="Vector_9" d="M37.9653 12.0975C38.9449 11.9422 39.8473 11.7656 40.6454 11.5658L43.5041 7.2981C43.0369 6.99119 42.4617 6.69491 41.7727 6.41406L37.9653 12.0975Z" fill="#FBD490"/>
<g id="Group_6">
<path id="Vector_10" d="M37.9651 12.0976L26.8394 28.7079C26.5431 29.1509 26.6618 29.7502 27.1038 30.0475C27.2688 30.1575 27.4551 30.2106 27.6404 30.2106C27.9512 30.2106 28.2571 30.061 28.4434 29.7831L40.6451 11.5658C39.847 11.7656 38.9446 11.9422 37.9651 12.0976Z" fill="#B0D9EA"/>
</g>
<g id="Group_7">
<g id="Group_8">
<path id="Vector_11" d="M26.9398 4.15771C22.7145 4.15771 18.8387 4.60552 15.7812 5.30329C16.4279 6.38131 16.8062 7.63787 16.8062 8.98515C16.8062 10.1114 16.5398 11.173 16.0766 12.1217C19.0877 12.5879 22.8468 12.8427 26.9398 12.8427C36.8002 12.8427 44.7941 11.3805 44.7941 8.98226C44.7941 6.58398 36.8012 4.15771 26.9398 4.15771Z" fill="#D8ECFE"/>
<path id="Vector_12" d="M26.9398 13.3262C22.8593 13.3262 19.078 13.0743 16.0032 12.5995C15.8517 12.5763 15.7205 12.4817 15.649 12.3456C15.5776 12.2096 15.5757 12.0484 15.6432 11.9114C16.0949 10.9849 16.3236 10.0004 16.3236 8.98516C16.3236 7.78168 15.9926 6.59364 15.3672 5.55133C15.2871 5.41911 15.2765 5.25601 15.3373 5.11414C15.3981 4.97227 15.5226 4.86707 15.6741 4.83329C18.9439 4.0863 22.9452 3.67517 26.9398 3.67517C35.7955 3.67517 45.2767 5.80805 45.2767 8.98323C45.2767 12.1883 35.3989 13.3262 26.9398 13.3262ZM16.7724 11.7367C19.6822 12.1459 23.1807 12.3601 26.9407 12.3601C37.8145 12.3601 44.3126 10.6432 44.3126 8.98227C44.3126 7.25377 37.3841 4.63931 26.9407 4.63931C23.2666 4.63931 19.5934 4.99157 16.5128 5.63722C17.0224 6.6805 17.2897 7.82607 17.2897 8.9842C17.2887 9.93193 17.116 10.8546 16.7724 11.7367Z" fill="#CADFF2"/>
</g>
</g>
<path id="Vector_13" d="M47.1213 0.163106C46.6793 -0.13318 46.078 -0.0164028 45.7818 0.427544L41.6714 6.56463C42.3209 6.69009 42.9357 6.97866 43.4279 7.41102L47.3858 1.5017C47.683 1.05969 47.5643 0.460358 47.1213 0.163106Z" fill="#FBD490"/>
<g id="Group_9">
<path id="Vector_14" d="M32.686 19.9487L26.8403 28.7079C26.5441 29.1509 26.6628 29.7502 27.1048 30.0475C27.2698 30.1575 27.4561 30.2106 27.6414 30.2106C27.9521 30.2106 28.2581 30.061 28.4443 29.7831L35.1933 19.6755C34.4193 19.7846 33.5748 19.8772 32.686 19.9487Z" fill="#F9D70B"/>
</g>
<path id="Vector_15" d="M41.0488 10.9635L43.8813 6.71611C43.4316 6.42369 42.8545 6.1303 42.1403 5.84656L38.3301 11.5542C39.3666 11.3776 40.2709 11.1787 41.0488 10.9635Z" fill="#FBD490"/>
</g>
</g>
<defs>
<clipPath id="clip0_489_1679">
<rect width="50" height="50" fill="white"/>
</clipPath>
</defs>
</svg>
