<svg width="50" height="50" viewBox="0 0 50 50" fill="none" xmlns="http://www.w3.org/2000/svg">
<g id="martini 1" clip-path="url(#clip0_491_1778)">
<g id="Group">
<path id="Vector" d="M35.5436 48.7324L27.2516 45.3984C26.9147 45.2627 26.694 44.9365 26.694 44.5732V26.8428C26.694 25.3242 27.2535 23.8574 28.2633 22.7217L32.651 17.7891L32.6356 17.8049H17.3637L17.3483 17.7891L21.736 22.7217C22.7457 23.8574 23.3053 25.3242 23.3053 26.8428V44.5732C23.3053 44.9365 23.0846 45.2627 22.7477 45.3984L14.4547 48.7324C13.7838 49.0019 13.9772 50 14.7008 50H35.2985C36.0221 50 36.2155 49.0019 35.5436 48.7324Z" fill="#D8ECFE"/>
<path id="Vector_2" d="M44.1072 4.90918L41.9115 7.37725L24.9996 10.3066L8.08786 7.37725L5.89235 4.90918C5.32985 4.27637 5.77907 3.27637 6.62575 3.27637H43.3738C44.2205 3.27637 44.6697 4.27637 44.1072 4.90918Z" fill="#D8ECFE"/>
<path id="Vector_3" d="M22.0293 13.1197C21.791 13.1197 21.557 13.0053 21.4133 12.7933L13.5299 1.16029C13.2996 0.820448 13.3884 0.358241 13.7282 0.127967C14.0681 -0.102404 14.5303 -0.0135367 14.7606 0.326307L22.644 11.9593C22.8742 12.2992 22.7855 12.7614 22.4456 12.9916C22.3178 13.0782 22.1728 13.1197 22.0293 13.1197Z" fill="#AE6C6C"/>
<path id="Vector_4" d="M21.0616 9.62451L16.7597 3.27637H14.9639L19.027 9.27207L21.0616 9.62451Z" fill="#9B5E5E"/>
<path id="Vector_5" d="M44.1072 4.90918L41.9115 7.37725L39.8946 8.35352L38.7402 7.37725L40.9354 4.90918C41.4979 4.27637 41.0496 3.27637 40.202 3.27637H43.3738C44.2205 3.27637 44.6697 4.27637 44.1072 4.90918Z" fill="#D8ECFE"/>
<path id="Vector_6" d="M8.08789 7.3772L17.3638 17.8048C21.4288 22.3749 28.5706 22.3749 32.6356 17.8048L41.9114 7.3772H19.539L18.7461 7.96304L17.7432 7.3772H8.08789Z" fill="#FEF6AD"/>
<path id="Vector_7" d="M38.7403 7.3772L29.4646 17.8047C27.8169 19.6574 25.6639 20.759 23.415 21.1099C26.7142 21.624 30.2188 20.5222 32.6359 17.8049L41.9117 7.37729L38.7403 7.3772Z" fill="#FEED96"/>
<path id="Vector_8" d="M21.4134 12.7933C21.5571 13.0053 21.7911 13.1197 22.0294 13.1197C22.1729 13.1197 22.318 13.0781 22.4457 12.9915C22.7855 12.7613 22.8743 12.299 22.644 11.9592L19.539 7.37708H17.7432L21.4134 12.7933Z" fill="#AE6C6C"/>
<path id="Vector_9" d="M25.9696 18.9338C25.7313 18.9338 25.4974 18.8194 25.3536 18.6073L23.693 16.1565C23.4627 15.8167 23.5516 15.3545 23.8914 15.1242C24.2311 14.894 24.6934 14.9828 24.9237 15.3226L26.5843 17.7734C26.8145 18.1133 26.7257 18.5755 26.3858 18.8057C26.2582 18.8922 26.1131 18.9338 25.9696 18.9338Z" fill="#AE6C6C"/>
<path id="Vector_10" d="M24.7061 16.327C26.3567 15.2084 26.9645 13.224 26.0636 11.8947C25.1627 10.5654 23.0943 10.3947 21.4437 11.5134C19.7931 12.632 19.1854 14.6164 20.0863 15.9456C20.9871 17.2749 23.0555 17.4457 24.7061 16.327Z" fill="#A2E62E"/>
<path id="Vector_11" d="M26.0639 11.8947C25.8651 11.6014 25.6094 11.3647 25.3141 11.1857C25.7298 12.4601 25.0823 14.0589 23.6648 15.0196C22.3784 15.8914 20.8384 15.9798 19.7949 15.3472C19.8633 15.5568 19.9594 15.7578 20.0865 15.9456C20.9874 17.2749 23.0558 17.4456 24.7063 16.3271C26.3569 15.2083 26.9647 13.224 26.0639 11.8947Z" fill="#97D729"/>
</g>
</g>
<defs>
<clipPath id="clip0_491_1778">
<rect width="50" height="50" fill="white"/>
</clipPath>
</defs>
</svg>
