<svg width="51" height="50" viewBox="0 0 51 50" fill="none" xmlns="http://www.w3.org/2000/svg">
<g id="honeydew-melon 1" clip-path="url(#clip0_491_2282)">
<g id="b">
<path id="Vector" d="M49.9825 22.5017C49.085 36.6942 37.5691 48.21 23.3766 49.1075C15.0791 49.6325 7.48413 46.6142 1.96579 41.4083C1.62329 41.0858 1.62496 40.5375 1.95746 40.205L41.08 1.08166C41.4125 0.749161 41.9608 0.748328 42.2833 1.08999C47.4891 6.60833 50.5075 14.2033 49.9825 22.5008V22.5017Z" fill="#F0C419"/>
<path id="Vector_2" d="M39.3292 2.83252C44.5125 8.01585 47.1192 14.9609 46.6559 22.2909C45.8592 34.8859 35.7609 44.9842 23.1659 45.7809C15.83 46.2492 8.82002 43.5725 3.70752 38.4542L39.3292 2.83252Z" fill="#F9EAB0"/>
<path id="Vector_3" d="M6.06592 36.0984C10.1718 40.2092 15.7501 42.4992 21.5501 42.4992C22.0176 42.4992 22.4851 42.4842 22.9543 42.4542C33.8793 41.7634 42.6384 33.0042 43.3293 22.0809C43.7334 15.6925 41.4759 9.69338 36.9726 5.18921L6.06592 36.0984Z" fill="#F3D55B"/>
<path id="Vector_4" d="M14.4473 27.715C18.3539 31.6217 24.6823 31.6217 28.5898 27.715C32.4973 23.8083 32.4964 17.48 28.5898 13.5725L14.4473 27.715Z" fill="#F9EAB0"/>
<g id="Group">
<path id="Vector_5" d="M27.9998 23.245C28.4601 23.245 28.8332 22.8719 28.8332 22.4117C28.8332 21.9515 28.4601 21.5784 27.9998 21.5784C27.5396 21.5784 27.1665 21.9515 27.1665 22.4117C27.1665 22.8719 27.5396 23.245 27.9998 23.245Z" fill="#F0C419"/>
<path id="Vector_6" d="M19.7508 27.9584C20.2111 27.9584 20.5841 27.5853 20.5841 27.1251C20.5841 26.6648 20.2111 26.2917 19.7508 26.2917C19.2906 26.2917 18.9175 26.6648 18.9175 27.1251C18.9175 27.5853 19.2906 27.9584 19.7508 27.9584Z" fill="#F0C419"/>
<path id="Vector_7" d="M28.5902 19.12C29.0504 19.12 29.4235 18.7469 29.4235 18.2867C29.4235 17.8265 29.0504 17.4534 28.5902 17.4534C28.1299 17.4534 27.7568 17.8265 27.7568 18.2867C27.7568 18.7469 28.1299 19.12 28.5902 19.12Z" fill="#F0C419"/>
<path id="Vector_8" d="M23.8758 23.8341C24.3361 23.8341 24.7091 23.4611 24.7091 23.0008C24.7091 22.5406 24.3361 22.1675 23.8758 22.1675C23.4156 22.1675 23.0425 22.5406 23.0425 23.0008C23.0425 23.4611 23.4156 23.8341 23.8758 23.8341Z" fill="#F0C419"/>
<path id="Vector_9" d="M23.8758 27.3692C24.3361 27.3692 24.7091 26.9961 24.7091 26.5358C24.7091 26.0756 24.3361 25.7025 23.8758 25.7025C23.4156 25.7025 23.0425 26.0756 23.0425 26.5358C23.0425 26.9961 23.4156 27.3692 23.8758 27.3692Z" fill="#F0C419"/>
</g>
</g>
</g>
<defs>
<clipPath id="clip0_491_2282">
<rect width="50" height="50" fill="white" transform="translate(0.875)"/>
</clipPath>
</defs>
</svg>
