<svg width="51" height="51" viewBox="0 0 51 51" fill="none" xmlns="http://www.w3.org/2000/svg">
<g id="jam (1) 1" clip-path="url(#clip0_509_4103)">
<g id="Group">
<g id="Group_2">
<path id="Vector" d="M42.3817 16.3271L40.4593 15.0455C39.659 14.5114 38.5805 14.6959 38.0027 15.4665L37.9341 15.5583C37.0744 16.7046 35.2884 16.4486 34.7857 15.1067L34.1533 13.4199C33.6256 12.0131 31.7143 11.8211 30.9178 13.0953L29.1252 15.9636C28.4501 17.044 26.9014 17.1098 26.1363 16.0906L26.089 16.0276C25.3639 15.0604 23.9125 15.0604 23.1874 16.0276L22.8081 16.533C22.1459 17.4158 20.8551 17.5076 20.0752 16.7268L19.5809 16.2325C18.9429 15.5945 17.933 15.5222 17.2106 16.0638L15.9642 16.9985C15.1036 17.644 13.8749 17.4028 13.3213 16.4811L12.0656 14.389C11.6075 13.6257 10.6635 13.3077 9.83721 13.6387L8.18652 14.299V41.8821C8.18652 46.6422 12.0452 50.5019 16.8063 50.5019H25.6652H34.5242C39.2843 50.5019 43.144 46.6432 43.144 41.8821V16.6025C42.8852 16.5673 42.6256 16.4894 42.3817 16.3271Z" fill="#F75B57"/>
<path id="Vector_2" d="M34.525 50.9665H16.807C11.7984 50.9665 7.72363 46.8917 7.72363 41.8831V13.9856L9.66551 13.2094C10.7078 12.7902 11.8856 13.189 12.4643 14.1525L13.7199 16.2446C13.9193 16.5757 14.2383 16.8001 14.6176 16.8743C14.9987 16.9485 15.3771 16.8622 15.6868 16.6295L16.9332 15.6947C17.8318 15.0196 19.1115 15.1086 19.909 15.9071L20.4033 16.4013C20.6797 16.6777 21.0599 16.8251 21.4531 16.7927C21.8435 16.7658 22.2024 16.5701 22.4379 16.2567L22.8172 15.7513C23.2512 15.1726 23.9152 14.8406 24.6385 14.8406C25.3619 14.8406 26.0258 15.1726 26.4598 15.7513C26.7779 16.1751 27.1934 16.3763 27.6431 16.3513C28.0948 16.3318 28.4917 16.1009 28.7309 15.7188L30.5235 12.8496C30.9862 12.1096 31.8171 11.7052 32.6814 11.7906C33.5504 11.8777 34.2802 12.4388 34.5862 13.2558L35.2187 14.9426C35.3939 15.4119 35.7955 15.7346 36.2916 15.8051C36.7831 15.8746 37.2616 15.6799 37.563 15.2802L37.6307 15.1884C38.3568 14.2202 39.7117 13.9884 40.716 14.6598L42.6384 15.9414C42.7979 16.048 42.9787 16.112 43.2069 16.1435L43.6084 16.1983V41.8831C43.6084 46.8917 39.5336 50.9665 34.525 50.9665ZM8.65098 14.6134V41.8822C8.65098 46.3798 12.3094 50.0382 16.807 50.0382H34.525C39.0227 50.0382 42.6811 46.3798 42.6811 41.8822V16.9754C42.4789 16.9142 42.2953 16.827 42.1247 16.7129L40.2023 15.4313C39.605 15.0335 38.8038 15.1726 38.3735 15.7438L38.3058 15.8357C37.7976 16.5117 36.9945 16.8418 36.1609 16.7241C35.3244 16.6044 34.6483 16.0601 34.3516 15.27L33.7191 13.5831C33.5346 13.0916 33.1127 12.7661 32.5896 12.7133C32.0712 12.6604 31.589 12.895 31.3108 13.3411L29.5182 16.2103C29.1204 16.8483 28.4342 17.2462 27.6839 17.2777C26.9319 17.3241 26.2159 16.9698 25.7662 16.3698C25.1578 15.5584 24.0747 15.6205 23.56 16.3077L23.1807 16.8131C22.7847 17.3417 22.1792 17.6718 21.5198 17.7191C20.8633 17.7645 20.2151 17.5244 19.7486 17.0579L19.2543 16.5636C18.7832 16.0935 18.0237 16.0378 17.4905 16.4384L16.2441 17.3732C15.7285 17.7581 15.071 17.9101 14.4404 17.7849C13.8089 17.6616 13.2571 17.274 12.9261 16.7222L11.6704 14.6301C11.3282 14.0598 10.6309 13.8242 10.0114 14.0709L8.65098 14.6134Z" fill="#E24040"/>
</g>
<path id="Vector_3" d="M35.8018 23.3528H36.22C34.3968 23.3528 32.6812 22.5951 31.3505 21.3441C30.4315 20.4798 29.4086 19.8335 28.3171 19.4329C27.6318 19.7343 26.799 19.5952 26.2547 18.997C26.1063 18.9877 25.9588 18.9729 25.8086 18.9729C23.7638 18.9729 21.8618 19.8446 20.2677 21.3441C18.9369 22.5951 17.2213 23.3528 15.3982 23.3528H15.6504C14.0517 23.3528 12.7432 24.6668 12.7432 26.273V38.7014C12.7432 40.3075 14.0517 41.6216 15.6504 41.6216H15.2192C17.0767 41.6216 18.822 42.4052 20.1583 43.7007C21.7737 45.267 23.7156 46.1832 25.8086 46.1832C27.9016 46.1832 29.8435 45.267 31.459 43.7007C32.7953 42.4052 34.5415 41.6216 36.398 41.6216H35.8008C37.3996 41.6216 38.7081 40.3075 38.7081 38.7014V26.2721C38.7099 24.6668 37.4014 23.3528 35.8018 23.3528Z" fill="#F4BDBD"/>
<path id="Vector_4" d="M12.8127 16.7946L13.9988 18.7717C14.5218 19.6434 15.6838 19.8706 16.497 19.2613L17.6748 18.3785C18.3573 17.8666 19.3116 17.9343 19.9153 18.538L20.3817 19.0045C21.119 19.7417 22.3394 19.6555 22.9644 18.8208L23.3223 18.3433C24.0077 17.4289 25.3792 17.4289 26.0645 18.3433L26.109 18.4026C26.8314 19.3661 28.2957 19.304 28.9337 18.283L30.628 15.5723C31.381 14.3677 33.1875 14.5495 33.6864 15.8793L34.2846 17.4734C34.7603 18.7411 36.4481 18.9831 37.2604 17.9L37.3253 17.8128C37.8716 17.0848 38.8907 16.9105 39.6474 17.415L41.4641 18.6261C42.6029 19.3856 44.1284 18.5686 44.1284 17.1998V15.9544C44.1284 8.98443 35.3825 10.9884 35.3825 7.20855V6.22556H35.4419C37.0138 6.22556 38.2991 5.5115 38.2991 3.93964V3.82372C38.2991 2.25186 37.0128 0.966553 35.4419 0.966553H15.8906C14.3187 0.966553 13.0334 2.25186 13.0334 3.82372V3.93964C13.0334 5.5115 14.3187 6.22556 15.8906 6.22556H15.949V7.20763C15.949 10.9875 7.20312 8.9835 7.20312 15.9535V17.4864L10.7067 16.0852C11.4875 15.7726 12.3796 16.0731 12.8127 16.7946Z" fill="#FBD490"/>
<path id="Vector_5" d="M24.7994 6.92853C24.2875 6.92853 23.8721 6.514 23.8721 6.00117C23.8721 5.48835 24.2875 5.07382 24.7994 5.07382C26.502 5.07382 27.5045 5.07104 28.506 5.06826C29.5094 5.06455 30.5128 5.06177 32.2182 5.06177C32.7301 5.06177 33.1456 5.47629 33.1456 5.98912C33.1456 6.50194 32.7301 6.91647 32.2182 6.91647C30.5156 6.91647 29.5131 6.91925 28.5116 6.92203C27.5073 6.92574 26.5039 6.92853 24.7994 6.92853Z" fill="#EEAF4B"/>
<path id="Vector_6" d="M21.0906 6.91733H19.2359C18.724 6.91733 18.3086 6.5028 18.3086 5.98997C18.3086 5.47715 18.724 5.06262 19.2359 5.06262H21.0906C21.6025 5.06262 22.018 5.47715 22.018 5.98997C22.018 6.5028 21.6025 6.91733 21.0906 6.91733Z" fill="#EEAF4B"/>
<path id="Vector_7" d="M30.8935 35.7329C30.8935 38.5984 27.4651 42.1761 25.6113 42.1557C23.9198 42.1557 20.3291 38.5975 20.3291 35.7329C20.3291 32.8674 22.3869 31.2863 25.6113 31.2863C28.8357 31.2863 30.8935 32.8683 30.8935 35.7329Z" fill="#ED3F32"/>
<path id="Vector_8" d="M25.777 31.7796C25.2651 31.7796 24.8496 31.3651 24.8496 30.8523C24.8496 27.5119 27.5668 24.7948 30.9061 24.7948C31.418 24.7948 31.8335 25.2093 31.8335 25.7222C31.8335 26.235 31.418 26.6495 30.9061 26.6495C28.5887 26.6495 26.7043 28.5348 26.7043 30.8523C26.7043 31.3651 26.2889 31.7796 25.777 31.7796Z" fill="#88C057"/>
<path id="Vector_9" d="M25.7772 31.7796C25.2653 31.7796 24.8499 31.3651 24.8499 30.8523C24.8499 28.5348 22.9646 26.6495 20.6481 26.6495C20.1362 26.6495 19.7207 26.235 19.7207 25.7222C19.7207 25.2093 20.1362 24.7948 20.6481 24.7948C23.9884 24.7948 26.7046 27.5129 26.7046 30.8523C26.7046 31.3651 26.2891 31.7796 25.7772 31.7796Z" fill="#659C35"/>
<path id="Vector_10" d="M23.8727 36.5926C23.6316 36.5926 23.3904 36.499 23.2142 36.3237C23.0473 36.1475 22.9453 35.9064 22.9453 35.6653C22.9453 35.4242 23.0473 35.1821 23.2142 35.0069C23.5666 34.6637 24.188 34.6637 24.5311 35.0069C24.698 35.1821 24.8 35.4242 24.8 35.6653C24.8 35.9064 24.698 36.1475 24.5311 36.3237C24.3549 36.4897 24.1128 36.5926 23.8727 36.5926Z" fill="#D13834"/>
<path id="Vector_11" d="M27.5816 36.5926C27.3405 36.5926 27.0994 36.4906 26.9232 36.3237C26.7563 36.1475 26.6543 35.9064 26.6543 35.6653C26.6543 35.4242 26.7563 35.1821 26.9232 35.0069C27.2663 34.6637 27.8969 34.6637 28.2401 35.0069C28.407 35.1821 28.509 35.4242 28.509 35.6653C28.509 35.9064 28.407 36.1475 28.2401 36.3237C28.0639 36.4897 27.8218 36.5926 27.5816 36.5926Z" fill="#D13834"/>
<path id="Vector_12" d="M25.7272 39.3746C25.486 39.3746 25.2449 39.2726 25.0687 39.1057C24.9018 38.9295 24.7998 38.6884 24.7998 38.4473C24.7998 38.2061 24.9018 37.9641 25.0687 37.7888C25.4119 37.4457 26.0425 37.4457 26.3856 37.7888C26.5525 37.9641 26.6545 38.2061 26.6545 38.4473C26.6545 38.6884 26.5525 38.9295 26.3856 39.1057C26.2094 39.2717 25.9673 39.3746 25.7272 39.3746Z" fill="#D13834"/>
</g>
</g>
<defs>
<clipPath id="clip0_509_4103">
<rect width="50" height="50" fill="white" transform="translate(0.666016 0.966553)"/>
</clipPath>
</defs>
</svg>
