<svg width="56" height="56" viewBox="0 0 56 56" fill="none" xmlns="http://www.w3.org/2000/svg">
<g id="honey 1" clip-path="url(#clip0_509_4133)">
<g id="Group">
<path id="Vector" d="M36.6201 16.355V15.933H37.6201C38.7201 15.933 39.6201 15.033 39.6201 13.933V11.933C39.6201 11.339 39.3531 10.81 38.9381 10.443L33.7911 9.93298H15.6201C14.5201 9.93298 13.6201 10.833 13.6201 11.933V13.933C13.6201 15.033 14.5201 15.933 15.6201 15.933H16.6201V16.355C16.6201 20.245 9.62012 18.183 9.62012 25.355V47.549C9.62012 52.179 13.3731 55.932 18.0031 55.932H26.6201H35.2371C39.8671 55.932 43.6201 52.179 43.6201 47.549V25.355C43.6201 18.183 36.6201 20.245 36.6201 16.355Z" fill="#DAE7EF"/>
<path id="Vector_2" d="M45.7949 3.41399L26.6249 22.584L23.7969 19.756L42.9669 0.585994C43.7479 -0.195006 45.0139 -0.195006 45.7949 0.585994C46.5759 1.36699 46.5759 2.63299 45.7949 3.41399Z" fill="#FBD490"/>
<path id="Vector_3" d="M18.0031 55.933H26.6201H35.2371C39.8671 55.933 43.6201 52.18 43.6201 47.55V37.313C39.4321 40.54 36.6341 40.931 32.4461 37.704C28.2581 34.477 25.2211 33.8 21.0331 37.027C16.8451 40.254 13.8081 40.931 9.62012 37.704V47.549C9.62012 52.179 13.3731 55.933 18.0031 55.933Z" fill="#F9DA49"/>
<path id="Vector_4" d="M30.6201 48.933C31.1724 48.933 31.6201 48.4853 31.6201 47.933C31.6201 47.3807 31.1724 46.933 30.6201 46.933C30.0678 46.933 29.6201 47.3807 29.6201 47.933C29.6201 48.4853 30.0678 48.933 30.6201 48.933Z" fill="#EEAF4B"/>
<path id="Vector_5" d="M24.4162 30.622C23.4442 31.594 21.8532 31.594 20.8802 30.622L15.9302 25.672C14.9582 24.7 14.9582 23.109 15.9302 22.136C16.9022 21.164 18.4932 21.164 19.4662 22.136L24.4162 27.086C25.3882 28.059 25.3882 29.65 24.4162 30.622Z" fill="#FBD490"/>
<path id="Vector_6" d="M19.8205 33.097C18.8485 34.069 17.2575 34.069 16.2845 33.097L13.4565 30.269C12.4845 29.297 12.4845 27.706 13.4565 26.733C14.4285 25.761 16.0195 25.761 16.9925 26.733L19.8205 29.561C20.7925 30.534 20.7925 32.125 19.8205 33.097Z" fill="#EEAF4B"/>
<path id="Vector_7" d="M26.8098 26.1059C25.8378 27.0779 24.2468 27.0779 23.2738 26.1059L20.4458 23.2779C19.4738 22.3059 19.4738 20.7149 20.4458 19.7419C21.4178 18.7699 23.0088 18.7699 23.9818 19.7419L26.8098 22.5699C27.7828 23.5429 27.7828 25.1339 26.8098 26.1059Z" fill="#EEAF4B"/>
<path id="Vector_8" d="M27.6201 52.933C28.1724 52.933 28.6201 52.4853 28.6201 51.933C28.6201 51.3807 28.1724 50.933 27.6201 50.933C27.0678 50.933 26.6201 51.3807 26.6201 51.933C26.6201 52.4853 27.0678 52.933 27.6201 52.933Z" fill="#EEAF4B"/>
<path id="Vector_9" d="M33.6201 51.933C34.1724 51.933 34.6201 51.4853 34.6201 50.933C34.6201 50.3807 34.1724 49.933 33.6201 49.933C33.0678 49.933 32.6201 50.3807 32.6201 50.933C32.6201 51.4853 33.0678 51.933 33.6201 51.933Z" fill="#EEAF4B"/>
<path id="Vector_10" d="M37.6201 49.933C38.1724 49.933 38.6201 49.4853 38.6201 48.933C38.6201 48.3807 38.1724 47.933 37.6201 47.933C37.0678 47.933 36.6201 48.3807 36.6201 48.933C36.6201 49.4853 37.0678 49.933 37.6201 49.933Z" fill="#EEAF4B"/>
<path id="Vector_11" d="M15.5018 49.869L14.3838 47.933L15.5018 45.996H17.7378L18.8558 47.933L17.7378 49.869H15.5018Z" fill="#EEAF4B"/>
<path id="Vector_12" d="M21.5018 45.806L20.3838 43.869L21.5018 41.933H23.7378L24.8558 43.869L23.7378 45.806H21.5018Z" fill="#EEAF4B"/>
</g>
</g>
<defs>
<clipPath id="clip0_509_4133">
<rect width="55.933" height="55.933" fill="white" transform="translate(0.0341797)"/>
</clipPath>
</defs>
</svg>
