<svg width="50" height="50" viewBox="0 0 50 50" fill="none" xmlns="http://www.w3.org/2000/svg">
<g id="mimosa 1" clip-path="url(#clip0_491_1762)">
<g id="Group">
<path id="Vector" d="M34.7631 2.38959C32.0084 0.0407634 28.2847 -0.575545 25.0191 0.536076L24.6753 0.927384V2.08442L25.2119 3.07026L25.8155 3.57465L26.4007 3.8474L26.5365 4.39838L27.7396 5.58988L31.7178 5.72719L32.827 5.46625L34.8112 3.48197C35.1189 3.17436 35.0941 2.67192 34.7631 2.38959Z" fill="#FFF1AF"/>
<path id="Vector_2" d="M25.8123 3.25928C25.0674 2.51436 24.8114 1.48369 25.0189 0.536133C23.8514 0.933594 22.7419 1.5499 21.7571 2.38965C21.426 2.67188 21.4012 3.17441 21.7089 3.48203L23.6932 5.46631H24.1594L28.1574 5.60439L25.8123 3.25928Z" fill="#FFE559"/>
<path id="Vector_3" d="M26.4004 3.84743L26.5362 4.39841L30.024 7.85261L30.423 7.86999L32.8268 5.46628C31.0872 3.72682 28.6024 3.18747 26.4004 3.84743Z" fill="#FFE559"/>
<path id="Vector_4" d="M26.4006 3.84741C25.4098 4.14429 24.4761 4.68364 23.6934 5.46636L24.8939 6.66694L24.9896 7.03521L27.618 9.50015L28.25 9.72583C28.443 9.72847 28.6367 9.65659 28.784 9.50933L30.4232 7.87007L26.4006 3.84741Z" fill="#FBC700"/>
<g id="Group_2">
<path id="Vector_5" d="M22.1638 48.5989C21.7471 48.5989 21.4092 48.2611 21.4092 47.8443V31.7973C21.4092 31.3806 21.747 31.0427 22.1638 31.0427C22.5806 31.0427 22.9184 31.3805 22.9184 31.7973V47.8443C22.9184 48.261 22.5806 48.5989 22.1638 48.5989Z" fill="#D8ECFE"/>
</g>
<path id="Vector_6" d="M27.7856 7.31316C27.706 6.93621 27.373 6.66687 26.9877 6.66687C26.8689 6.66687 24.2745 6.66687 21.8061 6.66687C21.537 6.85671 21.3047 7.02263 21.3047 7.02263L20.2231 12.6567L20.4173 13.3753L20.2683 13.7635H27.9448L28.8067 13.3753C28.4486 10.6035 28.0075 8.36296 27.7856 7.31316Z" fill="#D8ECFE"/>
<path id="Vector_7" d="M21.4384 7.31316C21.5181 6.93621 21.8511 6.66687 22.2363 6.66687C19.8372 6.66687 17.4146 6.66687 17.34 6.66687C16.9548 6.66687 16.6218 6.93621 16.5421 7.31316C16.3202 8.36296 15.8791 10.6035 15.521 13.3752L16.2743 13.7634H21.1706L20.4173 13.3752C20.7754 10.6035 21.2165 8.36296 21.4384 7.31316Z" fill="#D8ECFE"/>
<path id="Vector_8" d="M29.1956 17.148L28.2603 16.5302H19.8932L19.8461 16.9074L20.0288 17.148L19.7927 17.4272L19.4185 21.1581L19.7927 27.0436L21.4095 30.8751L23.8201 32.8474L24.5197 32.9723C26.2727 32.1692 28.4621 30.2792 29.0685 25.8292C29.4453 23.0634 29.4096 19.9996 29.1956 17.148Z" fill="#FFE559"/>
<path id="Vector_9" d="M20.1559 25.8291C19.779 23.0633 19.8148 19.9995 20.0288 17.1479L20.9946 16.5299H16.0983L15.1325 17.1479C14.9185 19.9994 14.8828 23.0632 15.2596 25.8291C16.3147 33.5726 22.1639 33.5658 22.1639 33.5658C22.1639 33.5658 23.2729 33.5668 24.6121 32.9291C22.8754 32.1023 20.7516 30.2011 20.1559 25.8291Z" fill="#FFE559"/>
<path id="Vector_10" d="M20.2234 13.8807L19.8462 16.9074L20.0289 17.148H29.1956C29.0966 15.8279 28.9593 14.5537 28.8069 13.3752H20.4175L20.2234 13.8807Z" fill="#FFF1AF"/>
<path id="Vector_11" d="M15.521 13.3751C15.3688 14.5536 15.2314 15.8279 15.1323 17.1479H20.0286C20.1276 15.8278 20.2649 14.5535 20.4173 13.3751H15.521Z" fill="#FFF1AF"/>
<path id="Vector_12" d="M26.0683 46.5938H22.0904C21.8105 46.689 21.5563 46.7754 21.5563 46.7754L20.8018 47.5174V48.9259L21.179 49.605L21.6191 49.8565L21.9868 50.0001H26.0682C27.0088 50.0001 27.7713 49.2376 27.7713 48.297C27.7714 47.3563 27.0089 46.5938 26.0683 46.5938Z" fill="#DBEDFF"/>
<path id="Vector_13" d="M20.8828 48.2969C20.8828 47.3563 21.6453 46.5938 22.5859 46.5938H18.2598C17.3191 46.5938 16.5566 47.3563 16.5566 48.2969C16.5566 49.2375 17.3191 50 18.2598 50H22.5859C21.6453 50 20.8828 49.2375 20.8828 48.2969Z" fill="#DBEDFF"/>
</g>
</g>
<defs>
<clipPath id="clip0_491_1762">
<rect width="50" height="50" fill="white"/>
</clipPath>
</defs>
</svg>
