<svg width="50" height="50" viewBox="0 0 50 50" fill="none" xmlns="http://www.w3.org/2000/svg">
<g id="mojito 1" clip-path="url(#clip0_491_1739)">
<g id="Group">
<path id="Vector" d="M20.9095 2.90784H18.5322C16.892 2.90784 15.4639 3.8317 14.7397 5.18606C14.0155 3.8317 12.5875 2.90784 10.9472 2.90784H8.56984C8.30059 2.90784 8.08154 3.12689 8.08154 3.39614V5.46478C8.08154 7.8347 10.0096 9.76281 12.3796 9.76281H17.0998C19.4698 9.76281 21.3978 7.8347 21.3978 5.46478V3.39614C21.3978 3.12699 21.1788 2.90784 20.9095 2.90784Z" fill="#90EA8F"/>
<g id="Group_2">
<g id="Group_3">
<g id="Group_4">
<path id="Vector_2" d="M11.9249 9.76291C11.1158 9.76291 10.46 10.4188 10.46 11.2278V28.5728C10.46 30.5766 10.9524 32.5735 11.884 34.3476L13.5698 37.5578C14.129 38.6225 14.4245 39.8211 14.4245 41.0239V48.535C14.4245 49.344 15.0804 49.9999 15.8894 49.9999H26.1833L28.1365 32.9892L26.1833 9.76282L11.9249 9.76291Z" fill="#D8ECFE"/>
<path id="Vector_3" d="M40.453 9.76294H26.1831V50H36.4885C37.2975 50 37.9534 49.3442 37.9534 48.5351V41.024C37.9534 39.8212 38.2489 38.6226 38.8081 37.5578L40.4938 34.3477C41.4255 32.5736 41.9179 30.5768 41.9179 28.5729V11.2278C41.9179 10.4188 41.262 9.76294 40.453 9.76294Z" fill="#D8ECFE"/>
</g>
<g id="Group_5">
<path id="Vector_4" d="M14.8546 12.6927C14.0455 12.6927 13.3896 13.3486 13.3896 14.1577V28.5728C13.3896 30.104 13.7659 31.6299 14.4779 32.9856L16.1634 36.1956C16.9424 37.6788 17.3542 39.3483 17.3542 41.024V45.6053C17.3542 46.4143 18.0101 47.0702 18.8191 47.0702H26.1831L27.1597 31.7538L26.1831 12.6927H14.8546Z" fill="#90EA8F"/>
<path id="Vector_5" d="M37.5232 12.6927H26.1831V47.0702H33.5587C34.3677 47.0702 35.0236 46.4143 35.0236 45.6053V41.024C35.0236 39.3486 35.4353 37.6789 36.2142 36.1957L37.8999 32.9855C38.6118 31.63 38.9881 30.104 38.9881 28.5728V14.1577C38.9881 13.3486 38.3322 12.6927 37.5232 12.6927Z" fill="#90EA8F"/>
</g>
</g>
<g id="Group_6">
<path id="Vector_6" d="M17.1655 19.373C16.1398 19.3866 15.4048 18.29 15.8129 17.3475C16.3085 16.1481 18.0226 16.1485 18.5181 17.3475C18.9259 18.2902 18.1916 19.3864 17.1655 19.373Z" fill="#00BA9F"/>
<path id="Vector_7" d="M32.2364 34.6773C31.1433 34.6871 30.4202 33.4829 30.9445 32.5229C31.5151 31.4387 33.1276 31.5177 33.5891 32.6528C33.9954 33.5957 33.2625 34.6909 32.2364 34.6773Z" fill="#008475"/>
<g id="Group_7">
<path id="Vector_8" d="M26.1566 32.9879C25.768 32.9879 25.3954 33.1422 25.1208 33.417L20.9775 37.5605C20.7026 37.8351 20.5483 38.2078 20.5483 38.5963C20.5483 38.9848 20.7027 39.3575 20.9775 39.6321L25.1208 43.7755C25.4068 44.0616 25.7818 44.2046 26.1566 44.2046C26.1655 44.2046 26.1743 44.2035 26.1831 44.2033L27.1597 38.5963L26.1831 32.9894C26.1743 32.9891 26.1655 32.9879 26.1566 32.9879Z" fill="#00BA9F"/>
<path id="Vector_9" d="M31.3359 37.5604L27.1924 33.417C26.9241 33.1485 26.562 32.9961 26.1831 32.9893V44.2032C26.549 44.1967 26.9131 44.0547 27.1924 43.7754L31.3359 39.6321C31.6106 39.3575 31.765 38.9848 31.765 38.5963C31.765 38.2077 31.6107 37.8351 31.3359 37.5604Z" fill="#008475"/>
</g>
<g id="Group_8">
<path id="Vector_10" d="M23.7792 26.0064C23.2071 26.5784 23.2071 27.506 23.7792 28.0781C24.4875 28.7864 25.3076 29.3163 26.1832 29.6684L27.1598 26.6353L26.1832 23.6023L23.7792 26.0064Z" fill="#00BA9F"/>
<path id="Vector_11" d="M33.9955 17.8616C33.7209 17.5868 33.3482 17.4326 32.9597 17.4326C32.5711 17.4326 32.1985 17.5869 31.9239 17.8616L26.1831 23.6024V29.6684C27.0484 30.0163 27.9677 30.1907 28.8872 30.1907C30.7372 30.1907 32.5872 29.4864 33.9955 28.0781C36.8122 25.2614 36.8122 20.6783 33.9955 17.8616Z" fill="#008475"/>
</g>
</g>
</g>
<g id="Group_9">
<path id="Vector_12" d="M16.1322 27.9183C15.6844 28.5922 15.8677 29.5014 16.5416 29.9491C16.7909 30.1148 17.0724 30.1941 17.351 30.1941C17.8251 30.1941 18.2904 29.9643 18.5724 29.5398L26.1831 18.0858L27.1597 14.3609L26.1831 12.7919L16.1322 27.9183Z" fill="#00BA9F"/>
<path id="Vector_13" d="M40.453 0H35.4682C34.9776 0 34.5195 0.245616 34.2481 0.654128L26.1831 12.7917V18.0857L36.2536 2.92981H40.453C41.262 2.92981 41.9179 2.27392 41.9179 1.4649C41.9179 0.655886 41.262 0 40.453 0Z" fill="#008475"/>
</g>
</g>
</g>
<defs>
<clipPath id="clip0_491_1739">
<rect width="50" height="50" fill="white"/>
</clipPath>
</defs>
</svg>
