<svg width="51" height="50" viewBox="0 0 51 50" fill="none" xmlns="http://www.w3.org/2000/svg">
<g clip-path="url(#clip0_509_4021)">
<path d="M46.7394 13.3372C45.7767 7.36359 41.1422 2.83359 35.1522 1.97268C33.2603 1.70086 31.4331 1.81632 29.7322 2.24905C25.8331 3.24177 21.7558 3.24086 17.8567 2.24905C16.1567 1.81632 14.3294 1.70086 12.4385 1.97268C6.50307 2.82541 1.8858 7.28268 0.874888 13.1927C0.0767062 17.8581 1.62398 22.1854 4.52852 25.1981C6.53489 27.279 7.7358 30.0027 7.7358 32.8936V43.25C7.7358 45.969 9.93943 48.1727 12.6585 48.1727H34.5231C37.2422 48.1727 39.4458 45.969 39.4458 43.25V33.2954C39.4458 30.3 40.7476 27.5036 42.8685 25.3881C45.8667 22.4018 47.4976 18.049 46.7394 13.3372Z" fill="#C08248"/>
<path d="M5.10561 16.3719C4.87288 16.3719 4.64015 16.2828 4.46288 16.1055C4.10743 15.7501 4.10743 15.1755 4.46288 14.8201L14.4629 4.82006C14.8183 4.4646 15.3929 4.4646 15.7483 4.82006C16.1038 5.17551 16.1038 5.75006 15.7483 6.10551L5.74833 16.1055C5.57106 16.2828 5.33833 16.3719 5.10561 16.3719Z" fill="#A46F3E"/>
<path d="M7.37807 23.1899C7.14534 23.1899 6.91261 23.1008 6.73534 22.9235C6.37989 22.5681 6.37989 21.9935 6.73534 21.6381L20.3717 8.0017C20.7272 7.64624 21.3017 7.64624 21.6572 8.0017C22.0126 8.35715 22.0126 8.9317 21.6572 9.28715L8.0208 22.9235C7.84352 23.1008 7.6108 23.1899 7.37807 23.1899Z" fill="#A46F3E"/>
<path d="M30.5607 46.3717C30.328 46.3717 30.0952 46.2826 29.918 46.1053C29.5625 45.7499 29.5625 45.1753 29.918 44.8199L35.3725 39.3653C35.728 39.0099 36.3025 39.0099 36.658 39.3653C37.0134 39.7208 37.0134 40.2953 36.658 40.6508L31.2034 46.1053C31.0261 46.2826 30.7934 46.3717 30.5607 46.3717Z" fill="#A46F3E"/>
<path d="M22.3781 45.4627C22.1453 45.4627 21.9126 45.3736 21.7353 45.1963C21.3799 44.8409 21.3799 44.2663 21.7353 43.9109L35.3717 30.2745C35.7272 29.9191 36.3017 29.9191 36.6572 30.2745C37.0126 30.63 37.0126 31.2045 36.6572 31.56L23.0208 45.1963C22.8435 45.3736 22.6108 45.4627 22.3781 45.4627Z" fill="#A46F3E"/>
<path d="M10.1056 29.5535C9.87288 29.5535 9.64015 29.4644 9.46288 29.2871C9.10743 28.9317 9.10743 28.3571 9.46288 28.0017L32.1901 5.2744C32.5456 4.91895 33.1202 4.91895 33.4756 5.2744C33.8311 5.62986 33.8311 6.2044 33.4756 6.55986L10.7483 29.2871C10.5711 29.4644 10.3383 29.5535 10.1056 29.5535Z" fill="#A46F3E"/>
<path d="M10.5607 39.099C10.328 39.099 10.0952 39.0099 9.91796 38.8326C9.5625 38.4772 9.5625 37.9026 9.91796 37.5472L39.0089 8.45629C39.3643 8.10083 39.9389 8.10083 40.2943 8.45629C40.6498 8.81174 40.6498 9.38629 40.2943 9.74174L11.2034 38.8326C11.0261 39.0099 10.7934 39.099 10.5607 39.099Z" fill="#A46F3E"/>
<path d="M13.2872 45.4628C13.0545 45.4628 12.8218 45.3737 12.6445 45.1964C12.2891 44.841 12.2891 44.2664 12.6445 43.911L41.7354 14.8201C42.0909 14.4646 42.6654 14.4646 43.0209 14.8201C43.3763 15.1755 43.3763 15.7501 43.0209 16.1055L13.93 45.1964C13.7527 45.3737 13.52 45.4628 13.2872 45.4628Z" fill="#A46F3E"/>
<path d="M50.4808 13.3372C49.5181 7.36357 44.8835 2.83357 38.8935 1.97266C37.5608 1.78085 36.2626 1.79175 35.0153 1.95994C35.0608 1.9663 35.1053 1.9663 35.1517 1.97266C41.1417 2.83357 45.7762 7.36357 46.739 13.3372C47.4981 18.049 45.8662 22.4018 42.8699 25.389C40.749 27.5036 39.4471 30.3008 39.4471 33.2963V43.2508C39.4471 45.9699 37.2435 48.1736 34.5244 48.1736H38.2662C40.9853 48.1736 43.189 45.9699 43.189 43.2508V33.2963C43.189 30.3008 44.4908 27.5045 46.6117 25.389C49.6081 22.4018 51.239 18.049 50.4808 13.3372Z" fill="#A46F3E"/>
</g>
<defs>
<clipPath id="clip0_509_4021">
<rect width="50" height="50" fill="white" transform="translate(0.666016)"/>
</clipPath>
</defs>
</svg>
