<svg width="50" height="50" viewBox="0 0 50 50" fill="none" xmlns="http://www.w3.org/2000/svg">
<g id="nuts 1">
<path id="Vector" d="M8.74647 33.8281C8.87538 34.7662 7.45341 34.9838 7.31093 34.0383C6.95458 31.9973 5.66054 31.1984 2.91874 30.5227C1.99813 30.3125 2.30985 28.8992 3.23759 29.1094C5.42811 29.5028 8.45526 30.941 8.74647 33.8281Z" fill="#663014"/>
<path id="Vector_2" d="M12.3924 48.1934C6.31541 48.1961 2.71278 44.7221 3.01356 38.7275L3.02782 38.7207L14.5883 34.959L14.5955 34.9663C18.6242 39.757 18.4908 44.8308 12.3924 48.1934Z" fill="#FDB62F"/>
<path id="Vector_3" d="M27.1003 28.7434C23.6596 33.8786 16.3467 32.2356 13.1527 27.6816C10.9887 24.9821 10.8076 21.1959 12.7099 18.397C13.7543 16.8603 15.7799 16.6419 17.1846 17.6518C17.901 18.083 18.4634 19.312 18.8848 20.0283L19.6699 21.4097C20.4121 22.8797 22.0403 23.1125 23.4897 23.339L24.9221 23.6027C27.2636 24.0304 28.4291 26.7882 27.1003 28.7434Z" fill="#77A226"/>
<path id="Vector_4" d="M26.8368 29.095C23.3142 33.7988 16.2765 32.1247 13.1527 27.6817C10.7504 24.752 10.6161 19.5562 13.8992 17.3606C12.2756 20.1076 12.5366 23.6664 14.6023 26.2321C17.3347 30.1243 23.0824 31.8927 26.8368 29.095Z" fill="#658920"/>
<path id="Vector_5" d="M23.1425 24.0599C20.4617 27.5604 15.6866 22.9128 18.8846 20.0283C19.5653 21.3108 20.3636 22.8519 21.9585 23.0557L23.4895 23.3396C23.4098 23.5954 23.2928 23.8381 23.1425 24.0599Z" fill="#5E801E"/>
<path id="Vector_6" d="M23.4888 23.3398C23.41 23.5953 23.2926 23.8373 23.1408 24.0574C21.6333 26.0288 19.4592 25.4199 18.4297 23.9921C19.5723 24.8921 21.4483 24.8547 22.5248 23.1586L23.4888 23.3398Z" fill="#4C6718"/>
<path id="Vector_7" d="M12.3123 14.7804C12.1661 14.8973 12.0137 15.0062 11.8557 15.1065C11.4584 15.3766 11.0301 15.598 10.58 15.7661C10.5763 15.7702 10.5711 15.7728 10.5656 15.7733C2.85953 18.362 -0.41352 7.94189 3.42632 2.87207C3.51409 2.74931 3.61625 2.63751 3.73062 2.53906V2.53183C3.90544 2.36063 4.10296 2.21428 4.31763 2.09687C7.24117 1.00781 11.7942 3.39267 13.6458 6.76484C15.3127 9.98232 14.5301 13.0191 12.3123 14.7804Z" fill="#8C421C"/>
<path id="Vector_8" d="M13.4937 13.5337C12.6009 14.7837 11.4088 15.5385 9.97807 15.9473C2.60542 17.85 -0.39849 7.54556 3.57856 2.68354C3.7062 2.54733 3.84432 2.42133 3.99165 2.30669C4.04008 2.26397 4.09365 2.22746 4.15112 2.198C4.15835 2.19067 4.1729 2.18345 4.18042 2.17622C4.20361 2.16696 4.22553 2.15478 4.24565 2.13999C4.26813 2.12286 4.29243 2.10825 4.31811 2.09644V2.11099C3.902 3.88755 2.6101 13.2101 7.13774 14.6063C8.64028 15.2186 11.6994 14.8401 13.4937 13.5337Z" fill="#733617"/>
<path id="Vector_9" d="M5.97751 6.89451C6.06739 7.06298 6.22 7.18927 6.40231 7.24604C6.58462 7.30281 6.78196 7.28549 6.95159 7.19783C7.12123 7.11017 7.24951 6.95922 7.30866 6.77767C7.36782 6.59612 7.35308 6.39857 7.26765 6.22781C6.95241 5.62156 6.42028 4.59695 5.92468 3.64226C7.22448 4.3533 8.48972 5.32039 9.26814 6.62644C9.36425 6.79368 9.52286 6.91588 9.70908 6.96617C9.8953 7.01646 10.0939 6.99072 10.2611 6.8946C10.4283 6.79849 10.5505 6.63988 10.6008 6.45366C10.6511 6.26744 10.6254 6.06887 10.5293 5.90164C9.28982 3.76355 6.87624 2.42263 5.52087 1.81384C4.66032 1.85173 3.92321 2.16843 3.42624 2.87205C3.18708 4.32166 2.9407 7.12654 4.07136 9.38074C4.11419 9.46544 4.17329 9.54088 4.24528 9.60275C4.31727 9.66461 4.40074 9.71169 4.49092 9.7413C4.5811 9.77091 4.67624 9.78246 4.77088 9.77531C4.86553 9.76815 4.95785 9.74242 5.04255 9.69958C5.12726 9.65675 5.2027 9.59765 5.26456 9.52567C5.32643 9.45368 5.37351 9.37021 5.40311 9.28003C5.43272 9.18984 5.44428 9.09471 5.43712 9.00006C5.42996 8.90541 5.40423 8.8131 5.3614 8.72839C4.70945 7.36726 4.59831 5.84753 4.70427 4.42771L5.97751 6.89451Z" fill="#663014"/>
<path id="Vector_10" d="M11.7322 9.81563C11.5505 9.87844 11.4008 10.0102 11.3154 10.1824C11.23 10.3546 11.2157 10.5535 11.2756 10.7361C11.5773 11.6947 11.4267 12.7654 11.1373 13.7203C10.7271 12.9275 10.2797 12.064 10.0217 11.5621C9.93314 11.3929 9.78139 11.2655 9.5994 11.2075C9.41742 11.1496 9.21992 11.1659 9.04988 11.2528C8.87983 11.3398 8.75098 11.4903 8.69137 11.6718C8.63175 11.8532 8.64618 12.0508 8.73153 12.2217C8.98944 12.7197 9.43563 13.5838 9.84549 14.3781C8.88592 14.0579 7.92772 13.5561 7.33992 12.7653C7.22513 12.6112 7.05405 12.5087 6.86397 12.4801C6.6739 12.4516 6.48026 12.4994 6.32528 12.6131C4.96268 14.1211 9.35203 15.8197 9.97821 15.9473C10.8303 15.7286 11.626 15.3308 12.3122 14.7803C12.6388 14.1959 13.6983 9.46289 11.7322 9.81563Z" fill="#663014"/>
<path id="Vector_11" d="M3.88298 8.9604C2.96979 6.79331 3.20163 4.23472 3.42634 2.87212C3.62165 2.62124 4.01227 2.19829 4.31784 2.11108C4.31061 2.29233 3.57136 5.7061 3.88298 8.9604Z" fill="#4C240F"/>
<path id="Vector_12" d="M12.5509 14.0774C12.4934 14.3131 12.4158 14.5435 12.3189 14.766C12.3189 14.7732 12.3116 14.7732 12.3116 14.7804C12.2174 14.853 12.1232 14.9254 12.029 14.9907C11.8778 15.1008 11.7205 15.2024 11.5579 15.2951C11.5282 15.317 11.4966 15.3364 11.4637 15.3531C10.9927 15.6073 10.4942 15.8067 9.97783 15.9474C9.53574 15.8604 8.13682 15.3096 7.13672 14.6065C8.42725 15.0921 10.6733 14.9903 12.5509 14.0774Z" fill="#4C240F"/>
<path id="Vector_13" d="M44.0217 31.8276C43.3042 34.4731 45.3046 36.1981 43.4999 41.0325C41.3871 46.5763 37.1669 49.0785 32.5195 47.9035C27.2383 46.3991 23.0291 41.7595 25.3585 35.5531C27.562 29.6749 31.3308 28.8995 32.1498 27.1527C32.9689 25.3987 32.2948 23.7461 34.1213 19.8903C35.7815 16.3677 39.7602 14.3601 42.8261 14.9977C46.7714 15.9558 49.107 20.6638 47.8417 25.065C46.5513 29.2328 44.7393 29.1821 44.0217 31.8276Z" fill="#E8A864"/>
<path id="Vector_14" d="M43.0359 15.0558C42.8982 15.0851 42.7532 15.121 42.6155 15.1645C40.3541 15.8023 38.1507 17.4985 37.0198 19.8902C35.1936 23.746 35.8674 25.3986 35.0484 27.1526C34.2293 28.8994 30.4604 29.6748 28.2571 35.5529C26.2711 40.8511 29.0471 44.9969 33.1783 47.0481H33.1857C33.9043 47.3957 34.6511 47.6819 35.418 47.9034C35.6687 47.968 35.9228 48.0188 36.179 48.0556C35.5004 48.1792 34.8087 48.2156 34.1208 48.164C34.077 48.1628 34.0334 48.1579 33.9904 48.1496H33.9758C33.4841 48.1093 32.9968 48.027 32.5193 47.9034C31.2143 47.537 29.9762 46.9644 28.8519 46.2074C25.5146 43.9613 23.6257 40.2113 25.3583 35.5531C27.5617 29.6749 31.3306 28.8995 32.1496 27.1527C32.9687 25.3987 32.2946 23.7461 34.1211 19.8903C35.8272 16.3085 39.889 14.2545 43.0359 15.0558Z" fill="#E49949"/>
<g id="Group">
<path id="Vector_15" d="M32.5195 47.9034C32.5437 47.7683 32.6096 47.6441 32.708 47.5483C33.0342 47.2076 33.3604 46.867 33.665 46.5118C33.7928 46.3691 33.9715 46.2822 34.1627 46.27C34.3538 46.2578 34.5422 46.3212 34.687 46.4466C35.3491 47.0597 34.542 47.7081 34.1144 48.1716L32.5195 47.9034Z" fill="#E08A2E"/>
<path id="Vector_16" d="M37.9771 41.4891C37.8077 41.3982 37.6093 41.3777 37.4249 41.4319C37.2404 41.4862 37.0847 41.6108 36.9914 41.7789C36.5352 42.6285 36.0268 43.4491 35.4693 44.2359C35.4141 44.3135 35.3747 44.4012 35.3534 44.494C35.332 44.5868 35.3292 44.6829 35.345 44.7768C35.3609 44.8707 35.395 44.9606 35.4456 45.0413C35.4961 45.122 35.5621 45.1919 35.6397 45.2472C35.7173 45.3024 35.805 45.3418 35.8978 45.3631C35.9906 45.3844 36.0867 45.3872 36.1806 45.3714C36.2745 45.3556 36.3644 45.3214 36.4451 45.2708C36.5258 45.2203 36.5957 45.1543 36.6509 45.0767C37.2408 44.2422 37.7805 43.3733 38.2672 42.4747C38.3575 42.3051 38.3777 42.1069 38.3234 41.9226C38.2692 41.7383 38.1448 41.5827 37.9771 41.4891ZM39.9993 35.9009C39.8138 35.8526 39.6168 35.8797 39.4511 35.9761C39.2855 36.0725 39.1647 36.2304 39.1151 36.4155C38.8725 37.3488 38.5724 38.2662 38.2166 39.1624C38.1804 39.2511 38.162 39.3461 38.1627 39.442C38.1633 39.5379 38.183 39.6326 38.2205 39.7208C38.258 39.8091 38.3126 39.889 38.3812 39.9559C38.4497 40.0229 38.5309 40.0757 38.62 40.1111C38.709 40.1465 38.8042 40.164 38.9001 40.1624C38.9959 40.1608 39.0905 40.1402 39.1784 40.1019C39.2662 40.0636 39.3456 40.0082 39.4119 39.939C39.4782 39.8698 39.5302 39.7881 39.5648 39.6987C39.9409 38.748 40.258 37.7749 40.5143 36.7851C40.5625 36.5996 40.5354 36.4025 40.439 36.2369C40.3425 36.0712 40.1844 35.9505 39.9993 35.9009ZM40.6588 29.9938C40.4668 29.9889 40.2806 30.06 40.1408 30.1917C40.001 30.3234 39.9188 30.505 39.9122 30.697C39.8902 31.6622 39.8128 32.6253 39.6803 33.5816C39.666 33.676 39.6707 33.7723 39.694 33.8648C39.7174 33.9573 39.759 34.0443 39.8163 34.1205C39.8737 34.1968 39.9457 34.2608 40.0282 34.3089C40.1106 34.357 40.2018 34.3882 40.2964 34.4006C40.4867 34.4272 40.6797 34.3773 40.8332 34.2618C40.9867 34.1463 41.0882 33.9747 41.1155 33.7846C41.2563 32.773 41.3386 31.7542 41.3618 30.7332C41.3649 30.6383 41.3491 30.5438 41.3153 30.4551C41.2815 30.3663 41.2304 30.2852 41.165 30.2164C41.0996 30.1476 41.0212 30.0925 40.9343 30.0543C40.8474 30.0161 40.7537 29.9955 40.6588 29.9938ZM43.5073 24.7535C43.3275 24.6834 43.1273 24.6875 42.9506 24.765C42.7739 24.8425 42.6352 24.987 42.565 25.1667C42.2141 26.0588 41.8025 26.9257 41.3329 27.7614C41.2863 27.8442 41.2564 27.9354 41.245 28.0297C41.2336 28.1241 41.2409 28.2198 41.2665 28.3113C41.292 28.4028 41.3354 28.4884 41.394 28.5632C41.4527 28.638 41.5255 28.7005 41.6083 28.7471C41.6911 28.7938 41.7823 28.8236 41.8766 28.835C41.971 28.8464 42.0666 28.8392 42.1582 28.8136C42.2497 28.788 42.3353 28.7447 42.4101 28.686C42.4848 28.6274 42.5473 28.5546 42.594 28.4718C43.0977 27.5772 43.5409 26.6498 43.9204 25.6958C43.9896 25.516 43.9851 25.3161 43.9077 25.1397C43.8303 24.9632 43.6864 24.8244 43.5073 24.7535ZM44.377 18.9263C44.182 18.9334 43.9975 19.0159 43.8623 19.1566C43.727 19.2972 43.6518 19.4849 43.6524 19.68C43.6498 20.6047 43.5576 21.527 43.377 22.4339C43.3584 22.5272 43.3583 22.6232 43.3769 22.7165C43.3954 22.8098 43.4321 22.8985 43.4849 22.9776C43.5377 23.0567 43.6056 23.1246 43.6846 23.1775C43.7637 23.2304 43.8524 23.2672 43.9457 23.2858C44.039 23.3044 44.135 23.3044 44.2283 23.2859C44.3216 23.2674 44.4103 23.2307 44.4894 23.1779C44.5685 23.1251 44.6365 23.0572 44.6893 22.9781C44.7422 22.8991 44.779 22.8104 44.7976 22.7171C45.0018 21.6981 45.1037 20.6614 45.102 19.6222C45.1024 19.5282 45.0838 19.4351 45.0471 19.3485C45.0104 19.262 44.9566 19.1838 44.8888 19.1187C44.821 19.0536 44.7406 19.003 44.6526 18.9699C44.5647 18.9368 44.4709 18.922 44.377 18.9263Z" fill="#E08A2E"/>
<path id="Vector_17" d="M44.21 17.3606C43.6665 17.4801 43.3182 16.9984 43.2823 16.5053C43.1954 16.5707 43.1228 16.6431 43.0432 16.7083C42.8977 16.8354 42.7079 16.8998 42.5151 16.8876C42.3224 16.8754 42.1422 16.7875 42.014 16.6431C41.4435 15.9416 42.3382 15.4029 42.8258 14.9978C43.4442 15.1181 44.0344 15.354 44.5652 15.6933C44.735 16.2727 45.0265 17.1654 44.21 17.3606Z" fill="#E08A2E"/>
<path id="Vector_18" d="M29.9754 38.2999C29.7899 38.2517 29.5929 38.2787 29.4273 38.3751C29.2617 38.4715 29.1409 38.6295 29.0912 38.8146C28.8319 39.7942 28.6334 40.7889 28.4969 41.7931C28.4831 41.8874 28.4881 41.9834 28.5116 42.0758C28.5352 42.1681 28.5768 42.2548 28.6341 42.331C28.6914 42.4071 28.7632 42.4712 28.8454 42.5194C28.9275 42.5676 29.0185 42.5991 29.1129 42.612C29.304 42.6373 29.4974 42.586 29.6508 42.4692C29.8043 42.3524 29.9053 42.1797 29.9319 41.9888C30.0599 41.0455 30.2463 40.1112 30.49 39.191C30.5151 39.0987 30.5217 39.0023 30.5094 38.9075C30.4971 38.8126 30.4661 38.7211 30.4183 38.6383C30.3704 38.5554 30.3067 38.4829 30.2306 38.4248C30.1546 38.3667 30.0679 38.3243 29.9754 38.2999ZM32.4252 32.9437C32.3429 32.8953 32.2519 32.8637 32.1574 32.8506C32.0628 32.8376 31.9667 32.8434 31.8744 32.8676C31.7821 32.8919 31.6955 32.9341 31.6196 32.992C31.5437 33.0498 31.48 33.1221 31.4322 33.2047C30.9186 34.081 30.4657 34.9915 30.0769 35.9299C30.0403 36.0175 30.0213 36.1114 30.0209 36.2063C30.0206 36.3012 30.0389 36.3953 30.0749 36.4831C30.111 36.5709 30.1639 36.6508 30.2308 36.7182C30.2977 36.7855 30.3772 36.8391 30.4647 36.8757C30.5523 36.9123 30.6462 36.9314 30.7411 36.9317C30.8361 36.932 30.9301 36.9137 31.0179 36.8777C31.1058 36.8417 31.1856 36.7887 31.253 36.7218C31.3204 36.655 31.3739 36.5755 31.4105 36.4879C31.7773 35.6095 32.2035 34.7571 32.6862 33.9366C32.7343 33.8543 32.7658 33.7633 32.7787 33.6688C32.7916 33.5743 32.7858 33.4782 32.7616 33.386C32.7373 33.2938 32.6951 33.2072 32.6374 33.1313C32.5797 33.0554 32.5076 32.9917 32.4252 32.9437ZM35.6506 28.1166C35.4622 28.0763 35.2655 28.1125 35.1038 28.2171C34.942 28.3218 34.8285 28.4864 34.7881 28.6747L34.7663 28.7834C34.2768 29.4986 32.3048 30.8972 33.2731 31.7043C33.3483 31.7625 33.4342 31.8053 33.5259 31.8302C33.6176 31.8551 33.7133 31.8617 33.8076 31.8496C33.9019 31.8375 33.9928 31.8069 34.0753 31.7596C34.1577 31.7122 34.23 31.6491 34.288 31.5738C34.7953 30.9143 35.3606 30.262 35.955 29.6315C36.3321 29.1716 36.3653 28.2802 35.6506 28.1166ZM37.6368 22.5648C37.4619 22.4842 37.2621 22.4763 37.0814 22.5429C36.9006 22.6094 36.7537 22.745 36.6728 22.9198C36.2503 23.842 35.8824 24.7883 35.5712 25.7538C35.2835 26.6523 36.6563 27.1092 36.9481 26.1959C37.2445 25.2875 37.593 24.3969 37.9918 23.5286C38.0711 23.3535 38.0784 23.1543 38.0119 22.9739C37.9455 22.7935 37.8107 22.6465 37.6368 22.5648ZM40.9636 17.7086C40.8913 17.6466 40.8075 17.5994 40.717 17.5698C40.6264 17.5403 40.531 17.5288 40.436 17.5362C40.3411 17.5437 40.2485 17.5697 40.1637 17.613C40.0788 17.6562 40.0034 17.7158 39.9416 17.7883C39.2783 18.5636 38.6704 19.3847 38.1224 20.2454C38.0216 20.4084 37.9886 20.6044 38.0306 20.7914C38.0726 20.9783 38.1862 21.1414 38.347 21.2456C38.4272 21.2976 38.5168 21.333 38.6108 21.3499C38.7048 21.3667 38.8013 21.3646 38.8944 21.3437C38.9876 21.3228 39.0757 21.2835 39.1534 21.228C39.2312 21.1726 39.2971 21.1022 39.3473 21.021C39.8582 20.2187 40.4249 19.4533 41.043 18.7305C41.1648 18.583 41.2245 18.3941 41.2096 18.2034C41.1948 18.0128 41.1064 17.8354 40.9633 17.7086H40.9636Z" fill="#E08A2E"/>
<path id="Vector_19" d="M29.7215 46.2798C29.7279 46.4231 29.6899 46.5648 29.6128 46.6857C29.1435 46.4175 28.6932 46.1173 28.2651 45.7872C28.2631 45.1514 28.0912 44.1611 29.0044 44.1271C30.0767 44.2266 29.6047 45.5455 29.7215 46.2798Z" fill="#E08A2E"/>
</g>
<path id="Vector_20" d="M34.6141 47.6424C34.4546 47.8309 34.2661 48.0048 34.1212 48.1643L34.1139 48.1715L33.9907 48.1499H33.9762L32.5195 47.9034C32.5437 47.7682 32.6096 47.644 32.708 47.5482C32.8675 47.3816 33.027 47.2148 33.1791 47.0481H33.1864C33.6494 47.2759 34.1262 47.4744 34.6141 47.6424Z" fill="#D07B1F"/>
<path id="Vector_21" d="M43.0356 15.0558C42.8979 15.0851 42.7529 15.121 42.6152 15.1645C42.6877 15.1065 42.7602 15.0485 42.8255 14.9978C42.8967 15.0128 42.9669 15.0322 43.0356 15.0558Z" fill="#D07B1F"/>
<path id="Vector_22" d="M29.7215 46.2799C29.7279 46.4232 29.6899 46.5649 29.6128 46.6858C29.1435 46.4176 28.6932 46.1174 28.2651 45.7874C28.2631 45.1515 28.0912 44.1612 29.0044 44.1272C30.0767 44.2267 29.6047 45.5457 29.7215 46.2799Z" fill="#D07B1F"/>
<path id="Vector_23" d="M34.3743 2.93514C38.4248 7.46639 35.6964 14.3805 30.4565 16.5191C27.4329 17.9781 23.7866 17.1892 21.5159 14.5835C20.2691 13.1528 20.4828 11.0848 21.7381 9.94774C22.3492 9.29178 26.0879 8.38202 25.8371 8.44041C27.812 7.98143 29.0509 3.71161 29.0216 3.78416C29.9167 1.56717 32.7878 1.11493 34.3743 2.93514Z" fill="#E8A864"/>
<path id="Vector_24" d="M34.2231 13.686C33.2265 14.934 31.9298 15.909 30.4541 16.5199C27.4318 17.9767 23.7861 17.1867 21.5174 14.5847C20.2708 13.1492 20.481 11.0839 21.7349 9.94605C21.8581 9.81558 22.1117 9.67056 22.438 9.52612C22.1671 10.1144 22.0728 10.7686 22.1668 11.4094C22.2607 12.0502 22.5388 12.6499 22.9671 13.1356C25.2358 15.7375 28.8815 16.5276 31.9038 15.0708C32.742 14.7281 33.5238 14.2613 34.2231 13.686Z" fill="#E49949"/>
<path id="Vector_25" d="M33.5697 11.0198C33.4616 11.0196 33.355 10.9953 33.2576 10.9486C33.1602 10.902 33.0744 10.8342 33.0065 10.7503C32.9385 10.6663 32.8902 10.5682 32.8649 10.4632C32.8397 10.3582 32.8382 10.2489 32.8605 10.1432C33.2143 8.48976 32.9828 7.12364 32.1519 5.96788C31.6028 5.19767 32.7721 4.35314 33.3297 5.12208C34.3971 6.60802 34.7164 8.39952 34.277 10.4468C34.2423 10.6088 34.1532 10.754 34.0245 10.8582C33.8958 10.9625 33.7353 11.0195 33.5697 11.0198Z" fill="#ECBE8E"/>
<path id="Vector_26" d="M11.4742 46.5171C8.10075 45.9347 5.78864 44.232 4.88239 41.0274C4.68708 40.3507 5.7613 39.972 6.04733 40.6201C6.92536 42.378 8.37722 43.16 10.1121 43.7768C10.4247 43.8867 10.7655 43.8863 11.0778 43.7755C11.3901 43.6648 11.6551 43.4504 11.8286 43.1681C12.8374 41.5196 13.6059 39.8282 13.1964 37.7274C14.0917 37.4347 14.8858 36.8944 15.4867 36.1691C15.2185 35.7704 14.9214 35.3718 14.5952 34.9659C13.8994 35.9444 12.8775 36.5822 11.2104 36.5749C12.3701 38.5174 11.8555 40.4743 10.5944 42.4245C8.54362 41.7794 7.00661 40.5763 6.81101 37.9018C6.10163 38.6112 5.33132 38.9231 4.51149 38.9483C4.49196 38.7216 4.47194 38.4948 4.46267 38.257L3.0319 38.722L3.0277 38.7207L3.01325 38.728C2.84128 44.9896 6.13083 48.0103 12.3921 48.1938C13.9141 47.3023 15.081 46.3455 15.9077 45.3163C15.2996 45.8253 14.5882 46.1963 13.8228 46.4036C13.0574 46.6109 12.2561 46.6496 11.4742 46.5171Z" fill="#FDAB11"/>
<path id="Vector_27" d="M8.746 33.8282C8.76036 33.9312 8.7526 34.0362 8.72323 34.136C8.69385 34.2359 8.64354 34.3283 8.57564 34.4072C8.50775 34.486 8.42382 34.5495 8.32946 34.5934C8.23511 34.6373 8.13248 34.6606 8.02842 34.6617C7.19834 34.667 7.32598 33.6412 7.06445 33.1179C7.51529 32.9449 7.97793 32.8044 8.44883 32.6975C8.59373 33.0608 8.69354 33.4406 8.746 33.8282Z" fill="#4C240F"/>
<path id="Vector_28" d="M15.3782 33.4003C14.6174 35.473 13.4439 36.5847 11.2106 36.5749C12.3703 38.5174 11.8558 40.4743 10.5946 42.4245C8.54385 41.7794 7.00684 40.5763 6.81123 37.9018C5.36397 39.349 3.66221 39.1413 1.81738 38.2352C5.43115 33.9767 10.1904 32.793 15.3782 33.4003Z" fill="#8C421C"/>
<path id="Vector_29" d="M11.332 41.0742C11.1273 41.5455 10.8805 41.9973 10.5946 42.4241C8.54385 41.779 7.00684 40.5759 6.81123 37.9014C5.36152 39.3509 3.66553 39.1407 1.81738 38.2347C2.19414 37.801 2.59587 37.3895 3.02051 37.0026C4.6876 37.7129 6.20957 37.7781 7.53594 36.4518C7.73164 39.09 9.31709 40.4218 11.332 41.0742Z" fill="#733617"/>
</g>
</svg>
