<svg width="60" height="59" viewBox="0 0 60 59" fill="none" xmlns="http://www.w3.org/2000/svg">
<g id="pepper (1) 1">
<g id="Group">
<path id="Vector" d="M41.421 47.766C41.894 47.121 42.116 46.281 41.94 45.395C41.657 43.972 40.32 43 38.868 43H21.132C19.681 43 18.343 43.972 18.061 45.395C17.885 46.281 18.107 47.12 18.58 47.766C19.121 48.505 19.121 49.495 18.58 50.234C18.107 50.879 17.886 51.718 18.061 52.604C18.343 54.028 19.68 55 21.131 55H38.868C40.319 55 41.657 54.028 41.939 52.605C42.115 51.719 41.893 50.88 41.42 50.235C40.88 49.495 40.88 48.505 41.421 47.766Z" fill="#A46F3E"/>
<path id="Vector_2" d="M39 55H21C19.575 55 18.378 53.991 18.077 52.653C18.037 52.795 18 52.938 18 53.084V59H42V53.084C42 52.938 41.963 52.795 41.923 52.653C41.622 53.991 40.425 55 39 55Z" fill="#6A3311"/>
<path id="Vector_3" d="M42 16C42 15.255 41.465 14.551 40.53 13.916C39.428 15.188 37.805 16 36 16H24C22.195 16 20.572 15.188 19.47 13.916C18.535 14.551 18 15.255 18 16V17.375C18 19.035 18.384 20.666 19.052 22.185C21.68 28.156 21.635 32.977 19.067 38.794C18.391 40.325 18 41.966 18 43.64V44C18 44.281 18.099 44.554 18.244 44.822C18.704 43.753 19.768 43 21 43H39C40.232 43 41.296 43.753 41.756 44.822C41.901 44.554 42 44.281 42 44V43.647C42 41.969 41.606 40.324 40.927 38.789C38.362 32.991 38.32 28.172 40.952 22.18C41.618 20.664 41.999 19.037 41.999 17.381L42 16Z" fill="#6A3311"/>
<path id="Vector_4" d="M33 5H27V0H33V5ZM29 3H31V2H29V3Z" fill="#6A3311"/>
<path id="Vector_5" d="M36 16H24C20.7 16 18 13.3 18 10C18 6.7 20.7 4 24 4H36C39.3 4 42 6.7 42 10C42 13.3 39.3 16 36 16Z" fill="#A46F3E"/>
<path id="Vector_6" d="M41.273 49.945C40.963 49.345 40.963 48.655 41.273 48.055C41.184 48.029 41.097 48 41 48H31C30.448 48 30 48.447 30 49C30 49.553 30.448 50 31 50H41C41.097 50 41.184 49.97 41.273 49.945Z" fill="#6A3311"/>
<path id="Vector_7" d="M18.9996 50H22.9996C23.5516 50 23.9996 49.553 23.9996 49C23.9996 48.447 23.5516 48 22.9996 48H18.9996C18.9026 48 18.8156 48.029 18.7266 48.055C19.0366 48.654 19.0366 49.345 18.7266 49.945C18.8156 49.97 18.9026 50 18.9996 50Z" fill="#6A3311"/>
<path id="Vector_8" d="M28 35H26V24H31C33.206 24 35 25.794 35 28C35 30.206 33.206 32 31 32H28V35ZM28 30H31C32.103 30 33 29.103 33 28C33 26.897 32.103 26 31 26H28V30Z" fill="#A46F3E"/>
</g>
</g>
</svg>
