<svg width="50" height="50" viewBox="0 0 50 50" fill="none" xmlns="http://www.w3.org/2000/svg">
<g id="pina-colada 1" clip-path="url(#clip0_489_1722)">
<g id="Group">
<path id="Vector" d="M20.1289 8.10764C20.1289 8.70198 20.145 9.28186 20.1755 9.84172H24.5358C24.5663 9.28186 24.5824 8.70198 24.5824 8.10764C24.5824 4.50169 23.267 1.42053 22.6582 0.18772C22.5347 -0.0625732 22.177 -0.0625732 22.0534 0.18772C21.4446 1.42053 20.1289 4.50169 20.1289 8.10764Z" fill="#97D729"/>
<path id="Vector_2" d="M17.5674 8.66679C17.7652 9.22724 17.9733 9.76874 18.1882 10.2866L22.3002 8.83613C22.1427 8.29804 21.965 7.7458 21.7673 7.18535C20.5678 3.78476 18.3021 1.3165 17.3178 0.35644C17.118 0.161518 16.7809 0.280561 16.7476 0.55771C16.5836 1.92275 16.3679 5.2663 17.5674 8.66679Z" fill="#A2E62E"/>
<path id="Vector_3" d="M23.8998 11.978L25.5805 9.75647C25.7193 9.57307 25.7149 9.31731 25.5675 9.14084C23.8317 7.06204 21.2215 5.73889 18.3014 5.73889C15.4755 5.73889 12.9394 6.97864 11.2054 8.9429C11.0519 9.11682 11.0407 9.37463 11.177 9.56233L12.8066 11.8068" fill="#00F2A6"/>
<path id="Vector_4" d="M18.3026 19.376L23.8998 11.9781C22.7836 10.0442 20.6947 8.74243 18.3015 8.74243C15.9798 8.74243 13.9452 9.96802 12.8066 11.8068L18.3026 19.376Z" fill="#FEDF30"/>
<path id="Vector_5" d="M22.4648 10.264L17.7202 16.5351L18.3025 19.3761L23.8997 11.9781C23.5236 11.3261 23.0365 10.7466 22.4648 10.264Z" fill="#FED402"/>
<path id="Vector_6" d="M31.0894 46.5093H27.9284C27.3644 46.5093 26.9071 46.052 26.9071 45.488V37.6434H23.3632V45.488C23.3632 46.052 22.906 46.5093 22.3419 46.5093H19.182C18.1741 46.5093 17.3569 47.3263 17.3569 48.3344V49.5467C17.3569 49.797 17.56 50.0001 17.8104 50.0001H32.4608C32.7112 50.0001 32.9143 49.797 32.9143 49.5467V48.3344C32.9144 47.3263 32.0973 46.5093 31.0894 46.5093Z" fill="#D8ECFE"/>
<path id="Vector_7" d="M33.6395 12.4847H23.5165L20.2405 14.2816L16.9644 17.5422L24.2312 19.5848L33.3065 17.5422C33.3943 16.1032 33.7364 14.6336 34.1664 13.1946C34.2727 12.8401 34.0092 12.4847 33.6395 12.4847Z" fill="#D8ECFE"/>
<path id="Vector_8" d="M23.5165 12.4844L19.2119 18.1739L17.9855 17.8289H17.9845L16.9723 17.5443L16.9644 17.5334L16.9634 17.5324C16.8753 16.0959 16.5322 14.6306 16.104 13.1941C15.9989 12.8402 16.2606 12.4843 16.6303 12.4843L23.5165 12.4844Z" fill="#FED402"/>
<path id="Vector_9" d="M38.9135 5.23218L38.5458 2.98619C38.5192 2.82408 38.3663 2.71421 38.2042 2.74078L30.7352 3.96412C30.1936 4.05279 29.75 4.44253 29.5924 4.96812L27.3071 12.4848L28.6729 13.4762L30.3114 12.4848L31.9298 7.16802C32.0245 6.8524 32.2909 6.61851 32.6161 6.56529L38.6682 5.57388C38.8301 5.54722 38.9399 5.39429 38.9135 5.23218Z" fill="#FE646F"/>
<path id="Vector_10" d="M30.3114 12.4847H27.3071L25.2158 19.3632L28.4384 18.6379L30.3114 12.4847Z" fill="#FD4755"/>
<path id="Vector_11" d="M16.9647 17.5422C17.0521 18.9696 16.8893 20.3662 16.3117 21.6713C15.2395 24.0944 13.5601 26.3054 13.5601 29.1627C13.5601 35.5558 18.7427 40.7384 25.1357 40.7384C31.5288 40.7384 36.7114 35.5558 36.7114 29.1627C36.7114 26.3054 35.032 24.0944 33.9598 21.6713C33.3822 20.3662 33.2196 18.9696 33.307 17.5422H16.9647Z" fill="#FEE97D"/>
</g>
</g>
<defs>
<clipPath id="clip0_489_1722">
<rect width="50" height="50" fill="white"/>
</clipPath>
</defs>
</svg>
