<svg width="58" height="58" viewBox="0 0 58 58" fill="none" xmlns="http://www.w3.org/2000/svg">
<g id="pineapple 1" clip-path="url(#clip0_491_2240)">
<g id="Group">
<path id="Vector" d="M29.3531 19.0601C45.4111 19.0601 45.2971 27.5671 45.2971 38.0601C45.2971 48.5531 38.1581 57.0601 29.3531 57.0601H28.8971C20.0911 57.0601 12.9531 48.5531 12.9531 38.0601C12.9531 27.5671 12.8391 19.0601 28.8971 19.0601" fill="#D6A550"/>
<g id="Group_2">
<path id="Vector_2" d="M33.1054 13.3891C33.6204 12.7451 34.2004 12.1431 34.8334 11.6191C35.6244 7.05906 41.0674 3.34106 44.9524 2.33906C44.9524 2.33906 41.6344 -0.42094 37.5194 0.0550598C33.2554 0.54806 30.8314 2.63906 29.4644 5.11106C32.3454 7.36106 33.0244 10.9041 33.1054 13.3891Z" fill="#88C057"/>
</g>
<path id="Vector_3" d="M23.8501 19.4111C25.3261 19.1831 26.9951 19.0601 28.8981 19.0601H28.9541C28.9541 19.0601 29.1211 14.0181 23.9541 13.0601C18.7871 12.1021 17.9541 15.0601 17.9541 15.0601C22.4201 16.1311 23.5581 18.3211 23.8501 19.4111Z" fill="#659C35"/>
<path id="Vector_4" d="M35.2071 19.5531C36.0261 18.0011 39.8871 14.2741 44.9531 13.0601C44.9531 13.0601 43.1201 9.10207 37.9531 10.0601C32.7861 11.0181 29.9541 19.0601 29.9541 19.0601C29.9541 19.0601 29.9821 19.0651 30.0231 19.0711C31.9941 19.1021 33.7121 19.2671 35.2071 19.5531Z" fill="#659C35"/>
<path id="Vector_5" d="M26.5831 14.1561C28.8431 15.8081 28.9501 18.5551 28.9531 18.9941C29.2881 19.0101 29.6321 19.0081 29.9781 18.9941C30.1231 18.5991 30.9991 16.3121 32.5431 14.1351C32.6021 14.0201 32.6621 13.9311 32.7241 13.8931C32.7981 13.7921 32.8761 13.6921 32.9521 13.5921C33.0041 13.5251 33.0521 13.4561 33.1061 13.3891C32.9871 9.76308 31.6001 3.88208 23.9531 3.06008C20.0781 2.64308 16.9531 5.06008 16.9531 5.06008C20.9041 6.00708 26.5781 9.72708 26.5831 14.1561Z" fill="#A4E869"/>
<g id="Group_3">
<path id="Vector_6" d="M21.9531 44.6461L18.2461 48.3531L19.6601 49.7671L21.9531 47.4741L24.2461 49.7671L25.6601 48.3531L21.9531 44.6461Z" fill="#F4C44E"/>
<path id="Vector_7" d="M25.2461 53.3531L26.6601 54.7671L28.9531 52.4741L31.2461 54.7671L32.6601 53.3531L28.9531 49.6461L25.2461 53.3531Z" fill="#F4C44E"/>
<path id="Vector_8" d="M32.2461 48.3531L33.6601 49.7671L35.9531 47.4741L38.2461 49.7671L39.6601 48.3531L35.9531 44.6461L32.2461 48.3531Z" fill="#F4C44E"/>
<path id="Vector_9" d="M19.6601 41.7671L21.9531 39.4741L24.2461 41.7671L25.6601 40.3531L21.9531 36.6461L18.2461 40.3531L19.6601 41.7671Z" fill="#F4C44E"/>
<path id="Vector_10" d="M28.9531 43.4741L31.2461 45.7671L32.6601 44.3531L28.9531 40.6461L25.2461 44.3531L26.6601 45.7671L28.9531 43.4741Z" fill="#F4C44E"/>
<path id="Vector_11" d="M15.0932 40.6461L13.3862 42.3531L14.8002 43.7671L15.0932 43.4741L17.3862 45.7671L18.8002 44.3531L15.0932 40.6461Z" fill="#F4C44E"/>
<path id="Vector_12" d="M35.9531 39.4741L38.2461 41.7671L39.6601 40.3531L35.9531 36.6461L32.2461 40.3531L33.6601 41.7671L35.9531 39.4741Z" fill="#F4C44E"/>
<path id="Vector_13" d="M18.2461 32.3531L19.6601 33.7671L21.9531 31.4741L24.2461 33.7671L25.6601 32.3531L21.9531 28.6461L18.2461 32.3531Z" fill="#F4C44E"/>
<path id="Vector_14" d="M28.9531 35.4741L31.2461 37.7671L32.6601 36.3531L28.9531 32.6461L25.2461 36.3531L26.6601 37.7671L28.9531 35.4741Z" fill="#F4C44E"/>
<path id="Vector_15" d="M35.9531 28.6461L32.2461 32.3531L33.6601 33.7671L35.9531 31.4741L38.2461 33.7671L39.6601 32.3531L35.9531 28.6461Z" fill="#F4C44E"/>
<path id="Vector_16" d="M21.9531 23.4741L24.2461 25.7671L25.6601 24.3531L21.9531 20.6461L18.2461 24.3531L19.6601 25.7671L21.9531 23.4741Z" fill="#F4C44E"/>
<path id="Vector_17" d="M26.6601 29.7671L28.9531 27.4741L31.2461 29.7671L32.6601 28.3531L28.9531 24.6461L25.2461 28.3531L26.6601 29.7671Z" fill="#F4C44E"/>
<path id="Vector_18" d="M35.9531 23.4741L38.2461 25.7671L39.6601 24.3531L35.9531 20.6461L32.2461 24.3531L33.6601 25.7671L35.9531 23.4741Z" fill="#F4C44E"/>
<path id="Vector_19" d="M43.8071 25.5381L43.1081 24.4901L39.2461 28.3531L40.6601 29.7671L42.7981 27.6301L44.1211 29.6151L44.8531 29.1271C44.6331 27.8331 44.3001 26.6311 43.8071 25.5381Z" fill="#F4C44E"/>
<path id="Vector_20" d="M42.7551 40.8431L39.2451 44.3531L40.6591 45.7671L43.1491 43.2771L44.5041 43.9551C44.6841 43.2991 44.8401 42.6321 44.9601 41.9471L42.7551 40.8431Z" fill="#F4C44E"/>
<path id="Vector_21" d="M14.825 24.7741C14.442 25.4671 14.137 26.2121 13.895 27.0021L14.66 27.7671L14.953 27.4741L17.246 29.7671L18.66 28.3531L14.953 24.6461L14.825 24.7741Z" fill="#F4C44E"/>
<path id="Vector_22" d="M45.2841 34.9771L42.9531 32.6461L39.2461 36.3531L40.6601 37.7671L42.9531 35.4741L44.2461 36.7671L45.2921 35.7211C45.2901 35.4721 45.2871 35.2231 45.2841 34.9771Z" fill="#F4C44E"/>
<path id="Vector_23" d="M12.9731 34.6261C12.9651 35.1001 12.9591 35.5781 12.9561 36.0631L13.6601 36.7671L14.9531 35.4741L17.2461 37.7671L18.6601 36.3531L14.9531 32.6461L12.9731 34.6261Z" fill="#F4C44E"/>
</g>
</g>
</g>
<defs>
<clipPath id="clip0_491_2240">
<rect width="57.06" height="57.06" fill="white" transform="translate(0.595215)"/>
</clipPath>
</defs>
</svg>
