<svg width="50" height="51" viewBox="0 0 50 51" fill="none" xmlns="http://www.w3.org/2000/svg">
<g id="toast (2) 1" clip-path="url(#clip0_509_4045)">
<g id="Group">
<path id="Vector" d="M46.0734 13.8372C45.1107 7.86359 40.4761 3.33359 34.4861 2.47268C32.5943 2.20086 30.7671 2.31632 29.0661 2.74905C25.1671 3.74177 21.0898 3.74086 17.1907 2.74905C15.4907 2.31632 13.6634 2.20086 11.7725 2.47268C5.83705 3.32541 1.21978 7.78268 0.208872 13.6927C-0.589309 18.3581 0.957963 22.6854 3.86251 25.6981C5.86887 27.779 7.06978 30.5027 7.06978 33.3936V43.75C7.06978 46.469 9.27342 48.6727 11.9925 48.6727H33.8571C36.5761 48.6727 38.7798 46.469 38.7798 43.75V33.7954C38.7798 30.8 40.0816 28.0036 42.2025 25.8881C45.2007 22.9018 46.8316 18.549 46.0734 13.8372Z" fill="#FBD490"/>
<path id="Vector_2" d="M4.43959 16.8718C4.20686 16.8718 3.97414 16.7827 3.79686 16.6054C3.44141 16.2499 3.44141 15.6754 3.79686 15.3199L13.7969 5.31994C14.1523 4.96448 14.7269 4.96448 15.0823 5.31994C15.4378 5.67539 15.4378 6.24994 15.0823 6.60539L5.08232 16.6054C4.90505 16.7827 4.67232 16.8718 4.43959 16.8718Z" fill="#D8AF6F"/>
<path id="Vector_3" d="M6.71205 23.69C6.47933 23.69 6.2466 23.6009 6.06933 23.4236C5.71387 23.0682 5.71387 22.4936 6.06933 22.1382L19.7057 8.50182C20.0611 8.14637 20.6357 8.14637 20.9911 8.50182C21.3466 8.85727 21.3466 9.43182 20.9911 9.78727L7.35478 23.4236C7.17751 23.6009 6.94478 23.69 6.71205 23.69Z" fill="#D8AF6F"/>
<path id="Vector_4" d="M29.8947 46.8717C29.6619 46.8717 29.4292 46.7826 29.2519 46.6053C28.8965 46.2499 28.8965 45.6753 29.2519 45.3199L34.7065 39.8653C35.0619 39.5099 35.6365 39.5099 35.9919 39.8653C36.3474 40.2208 36.3474 40.7953 35.9919 41.1508L30.5374 46.6053C30.3601 46.7826 30.1274 46.8717 29.8947 46.8717Z" fill="#D8AF6F"/>
<path id="Vector_5" d="M21.7121 45.9627C21.4793 45.9627 21.2466 45.8736 21.0693 45.6963C20.7139 45.3409 20.7139 44.7663 21.0693 44.4109L34.7057 30.7745C35.0611 30.4191 35.6357 30.4191 35.9911 30.7745C36.3466 31.13 36.3466 31.7045 35.9911 32.06L22.3548 45.6963C22.1775 45.8736 21.9448 45.9627 21.7121 45.9627Z" fill="#D8AF6F"/>
<path id="Vector_6" d="M9.43959 30.0536C9.20686 30.0536 8.97414 29.9645 8.79686 29.7873C8.44141 29.4318 8.44141 28.8573 8.79686 28.5018L31.5241 5.77453C31.8796 5.41907 32.4541 5.41907 32.8096 5.77453C33.165 6.12998 33.165 6.70453 32.8096 7.05998L10.0823 29.7873C9.90505 29.9645 9.67232 30.0536 9.43959 30.0536Z" fill="#D8AF6F"/>
<path id="Vector_7" d="M9.89467 39.599C9.66194 39.599 9.42922 39.5099 9.25194 39.3326C8.89649 38.9772 8.89649 38.4026 9.25194 38.0472L38.3428 8.95629C38.6983 8.60083 39.2729 8.60083 39.6283 8.95629C39.9838 9.31174 39.9838 9.88629 39.6283 10.2417L10.5374 39.3326C10.3601 39.5099 10.1274 39.599 9.89467 39.599Z" fill="#D8AF6F"/>
<path id="Vector_8" d="M12.6212 45.9627C12.3885 45.9627 12.1558 45.8736 11.9785 45.6963C11.6231 45.3408 11.6231 44.7663 11.9785 44.4108L41.0694 15.3199C41.4249 14.9645 41.9994 14.9645 42.3549 15.3199C42.7103 15.6754 42.7103 16.2499 42.3549 16.6054L13.264 45.6963C13.0867 45.8736 12.854 45.9627 12.6212 45.9627Z" fill="#D8AF6F"/>
<g id="Group_2">
<path id="Vector_9" d="M49.8148 13.8372C48.852 7.86357 44.2175 3.33357 38.2275 2.47266C36.8948 2.28085 35.5966 2.29175 34.3493 2.45994C34.3948 2.4663 34.4393 2.4663 34.4857 2.47266C40.4757 3.33357 45.1102 7.86357 46.0729 13.8372C46.832 18.549 45.2002 22.9018 42.2039 25.889C40.0829 28.0036 38.7811 30.8008 38.7811 33.7963V43.7508C38.7811 46.4699 36.5775 48.6736 33.8584 48.6736H37.6002C40.3193 48.6736 42.5229 46.4699 42.5229 43.7508V33.7963C42.5229 30.8008 43.8248 28.0045 45.9457 25.889C48.942 22.9018 50.5729 18.549 49.8148 13.8372Z" fill="#A46F3E"/>
</g>
<rect id="Rectangle 1" x="14.0723" y="26.6152" width="17" height="11.2517" rx="4" transform="rotate(-45.1402 14.0723 26.6152)" fill="#FAEE9A"/>
</g>
</g>
<defs>
<clipPath id="clip0_509_4045">
<rect width="50" height="50" fill="white" transform="translate(0 0.5)"/>
</clipPath>
</defs>
</svg>
