<svg width="51" height="50" viewBox="0 0 51 50" fill="none" xmlns="http://www.w3.org/2000/svg">
<g clip-path="url(#clip0_509_3981)">
<path d="M46.4064 13.3372C45.4437 7.36359 40.8092 2.83359 34.8192 1.97268C32.9273 1.70086 31.1001 1.81632 29.3992 2.24905C25.5001 3.24177 21.4228 3.24086 17.5237 2.24905C15.8237 1.81632 13.9964 1.70086 12.1055 1.97268C6.17006 2.82541 1.55279 7.28268 0.54188 13.1927C-0.256302 17.8581 1.29097 22.1854 4.19552 25.1981C6.20188 27.279 7.40279 30.0027 7.40279 32.8936V43.25C7.40279 45.969 9.60643 48.1727 12.3255 48.1727H34.1901C36.9092 48.1727 39.1128 45.969 39.1128 43.25V33.2954C39.1128 30.3 40.4146 27.5036 42.5355 25.3881C45.5337 22.4018 47.1646 18.049 46.4064 13.3372Z" fill="#FBD490"/>
<path d="M4.7726 16.3719C4.53987 16.3719 4.30714 16.2828 4.12987 16.1055C3.77442 15.7501 3.77442 15.1755 4.12987 14.8201L14.1299 4.82006C14.4853 4.4646 15.0599 4.4646 15.4153 4.82006C15.7708 5.17551 15.7708 5.75006 15.4153 6.10551L5.41533 16.1055C5.23805 16.2828 5.00533 16.3719 4.7726 16.3719Z" fill="#D8AF6F"/>
<path d="M7.04506 23.1899C6.81233 23.1899 6.57961 23.1008 6.40233 22.9235C6.04688 22.5681 6.04688 21.9935 6.40233 21.6381L20.0387 8.0017C20.3942 7.64624 20.9687 7.64624 21.3242 8.0017C21.6796 8.35715 21.6796 8.9317 21.3242 9.28715L7.68779 22.9235C7.51051 23.1008 7.27779 23.1899 7.04506 23.1899Z" fill="#D8AF6F"/>
<path d="M30.2277 46.3717C29.995 46.3717 29.7622 46.2826 29.585 46.1053C29.2295 45.7499 29.2295 45.1753 29.585 44.8199L35.0395 39.3653C35.395 39.0099 35.9695 39.0099 36.325 39.3653C36.6804 39.7208 36.6804 40.2953 36.325 40.6508L30.8704 46.1053C30.6931 46.2826 30.4604 46.3717 30.2277 46.3717Z" fill="#D8AF6F"/>
<path d="M22.0451 45.4627C21.8123 45.4627 21.5796 45.3736 21.4023 45.1963C21.0469 44.8409 21.0469 44.2663 21.4023 43.9109L35.0387 30.2745C35.3942 29.9191 35.9687 29.9191 36.3242 30.2745C36.6796 30.63 36.6796 31.2045 36.3242 31.56L22.6878 45.1963C22.5105 45.3736 22.2778 45.4627 22.0451 45.4627Z" fill="#D8AF6F"/>
<path d="M9.7726 29.5535C9.53987 29.5535 9.30714 29.4644 9.12987 29.2871C8.77442 28.9317 8.77442 28.3571 9.12987 28.0017L31.8571 5.2744C32.2126 4.91895 32.7871 4.91895 33.1426 5.2744C33.4981 5.62986 33.4981 6.2044 33.1426 6.55986L10.4153 29.2871C10.2381 29.4644 10.0053 29.5535 9.7726 29.5535Z" fill="#D8AF6F"/>
<path d="M10.2277 39.099C9.99495 39.099 9.76222 39.0099 9.58495 38.8326C9.2295 38.4772 9.2295 37.9026 9.58495 37.5472L38.6759 8.45629C39.0313 8.10083 39.6059 8.10083 39.9613 8.45629C40.3168 8.81174 40.3168 9.38629 39.9613 9.74174L10.8704 38.8326C10.6931 39.0099 10.4604 39.099 10.2277 39.099Z" fill="#D8AF6F"/>
<path d="M12.9542 45.4628C12.7215 45.4628 12.4888 45.3737 12.3115 45.1964C11.9561 44.841 11.9561 44.2664 12.3115 43.911L41.4024 14.8201C41.7579 14.4646 42.3324 14.4646 42.6879 14.8201C43.0433 15.1755 43.0433 15.7501 42.6879 16.1055L13.597 45.1964C13.4197 45.3737 13.187 45.4628 12.9542 45.4628Z" fill="#D8AF6F"/>
<path d="M50.1478 13.3372C49.185 7.36357 44.5505 2.83357 38.5605 1.97266C37.2278 1.78085 35.9296 1.79175 34.6823 1.95994C34.7278 1.9663 34.7723 1.9663 34.8187 1.97266C40.8087 2.83357 45.4432 7.36357 46.406 13.3372C47.165 18.049 45.5332 22.4018 42.5369 25.389C40.416 27.5036 39.1141 30.3008 39.1141 33.2963V43.2508C39.1141 45.9699 36.9105 48.1736 34.1914 48.1736H37.9332C40.6523 48.1736 42.856 45.9699 42.856 43.2508V33.2963C42.856 30.3008 44.1578 27.5045 46.2787 25.389C49.275 22.4018 50.906 18.049 50.1478 13.3372Z" fill="#A46F3E"/>
</g>
<defs>
<clipPath id="clip0_509_3981">
<rect width="50" height="50" fill="white" transform="translate(0.333008)"/>
</clipPath>
</defs>
</svg>
