<svg width="47" height="48" viewBox="0 0 47 48" fill="none" xmlns="http://www.w3.org/2000/svg">
<path d="M46.4064 12.3372C45.4437 6.36359 40.8092 1.83359 34.8192 0.972683C32.9273 0.700865 31.1001 0.816319 29.3992 1.24905C25.5001 2.24177 21.4228 2.24086 17.5237 1.24905C15.8237 0.816319 13.9964 0.700865 12.1055 0.972683C6.17006 1.82541 1.55279 6.28268 0.54188 12.1927C-0.256302 16.8581 1.29097 21.1854 4.19552 24.1981C6.20188 26.279 7.40279 29.0027 7.40279 31.8936V42.25C7.40279 44.969 9.60643 47.1727 12.3255 47.1727H34.1901C36.9092 47.1727 39.1128 44.969 39.1128 42.25V32.2954C39.1128 29.3 40.4146 26.5036 42.5355 24.3881C45.5337 21.4018 47.1646 17.049 46.4064 12.3372Z" fill="#FBD490"/>
</svg>
