<svg width="50" height="50" viewBox="0 0 50 50" fill="none" xmlns="http://www.w3.org/2000/svg">
<g clip-path="url(#clip0_509_4009)">
<path d="M46.0734 13.3372C45.1107 7.36359 40.4761 2.83359 34.4861 1.97268C32.5943 1.70086 30.7671 1.81632 29.0661 2.24905C25.1671 3.24177 21.0898 3.24086 17.1907 2.24905C15.4907 1.81632 13.6634 1.70086 11.7725 1.97268C5.83705 2.82541 1.21978 7.28268 0.208872 13.1927C-0.589309 17.8581 0.957963 22.1854 3.86251 25.1981C5.86887 27.279 7.06978 30.0027 7.06978 32.8936V43.25C7.06978 45.969 9.27342 48.1727 11.9925 48.1727H33.8571C36.5761 48.1727 38.7798 45.969 38.7798 43.25V33.2954C38.7798 30.3 40.0816 27.5036 42.2025 25.3881C45.2007 22.4018 46.8316 18.049 46.0734 13.3372Z" fill="#E4B976"/>
<path d="M4.43959 16.3719C4.20686 16.3719 3.97414 16.2828 3.79686 16.1055C3.44141 15.7501 3.44141 15.1755 3.79686 14.8201L13.7969 4.82006C14.1523 4.4646 14.7269 4.4646 15.0823 4.82006C15.4378 5.17551 15.4378 5.75006 15.0823 6.10551L5.08232 16.1055C4.90505 16.2828 4.67232 16.3719 4.43959 16.3719Z" fill="#D8AF6F"/>
<path d="M6.71205 23.1899C6.47933 23.1899 6.2466 23.1008 6.06933 22.9235C5.71387 22.5681 5.71387 21.9935 6.06933 21.6381L19.7057 8.0017C20.0611 7.64624 20.6357 7.64624 20.9911 8.0017C21.3466 8.35715 21.3466 8.9317 20.9911 9.28715L7.35478 22.9235C7.17751 23.1008 6.94478 23.1899 6.71205 23.1899Z" fill="#D8AF6F"/>
<path d="M29.8947 46.3717C29.6619 46.3717 29.4292 46.2826 29.2519 46.1053C28.8965 45.7499 28.8965 45.1753 29.2519 44.8199L34.7065 39.3653C35.0619 39.0099 35.6365 39.0099 35.9919 39.3653C36.3474 39.7208 36.3474 40.2953 35.9919 40.6508L30.5374 46.1053C30.3601 46.2826 30.1274 46.3717 29.8947 46.3717Z" fill="#D8AF6F"/>
<path d="M21.7121 45.4627C21.4793 45.4627 21.2466 45.3736 21.0693 45.1963C20.7139 44.8409 20.7139 44.2663 21.0693 43.9109L34.7057 30.2745C35.0611 29.9191 35.6357 29.9191 35.9911 30.2745C36.3466 30.63 36.3466 31.2045 35.9911 31.56L22.3548 45.1963C22.1775 45.3736 21.9448 45.4627 21.7121 45.4627Z" fill="#D8AF6F"/>
<path d="M9.43959 29.5535C9.20686 29.5535 8.97414 29.4644 8.79686 29.2871C8.44141 28.9317 8.44141 28.3571 8.79686 28.0017L31.5241 5.2744C31.8796 4.91895 32.4541 4.91895 32.8096 5.2744C33.165 5.62986 33.165 6.2044 32.8096 6.55986L10.0823 29.2871C9.90505 29.4644 9.67232 29.5535 9.43959 29.5535Z" fill="#D8AF6F"/>
<path d="M9.89467 39.099C9.66194 39.099 9.42922 39.0099 9.25194 38.8326C8.89649 38.4772 8.89649 37.9026 9.25194 37.5472L38.3428 8.45629C38.6983 8.10083 39.2729 8.10083 39.6283 8.45629C39.9838 8.81174 39.9838 9.38629 39.6283 9.74174L10.5374 38.8326C10.3601 39.0099 10.1274 39.099 9.89467 39.099Z" fill="#D8AF6F"/>
<path d="M12.6212 45.4628C12.3885 45.4628 12.1558 45.3737 11.9785 45.1964C11.6231 44.841 11.6231 44.2664 11.9785 43.911L41.0694 14.8201C41.4249 14.4646 41.9994 14.4646 42.3549 14.8201C42.7103 15.1755 42.7103 15.7501 42.3549 16.1055L13.264 45.1964C13.0867 45.3737 12.854 45.4628 12.6212 45.4628Z" fill="#D8AF6F"/>
<path d="M49.8148 13.3372C48.852 7.36357 44.2175 2.83357 38.2275 1.97266C36.8948 1.78085 35.5966 1.79175 34.3493 1.95994C34.3948 1.9663 34.4393 1.9663 34.4857 1.97266C40.4757 2.83357 45.1102 7.36357 46.0729 13.3372C46.832 18.049 45.2002 22.4018 42.2039 25.389C40.0829 27.5036 38.7811 30.3008 38.7811 33.2963V43.2508C38.7811 45.9699 36.5775 48.1736 33.8584 48.1736H37.6002C40.3193 48.1736 42.5229 45.9699 42.5229 43.2508V33.2963C42.5229 30.3008 43.8248 27.5045 45.9457 25.389C48.942 22.4018 50.5729 18.049 49.8148 13.3372Z" fill="#A46F3E"/>
</g>
<defs>
<clipPath id="clip0_509_4009">
<rect width="50" height="50" fill="white"/>
</clipPath>
</defs>
</svg>
