<svg width="57" height="57" viewBox="0 0 57 57" fill="none" xmlns="http://www.w3.org/2000/svg">
<g id="grapes (4) 1" clip-path="url(#clip0_491_2334)">
<g id="Group">
<path id="Vector" d="M6.875 55.53C10.1887 55.53 12.875 52.8437 12.875 49.53C12.875 46.2163 10.1887 43.53 6.875 43.53C3.56129 43.53 0.875 46.2163 0.875 49.53C0.875 52.8437 3.56129 55.53 6.875 55.53Z" fill="#9777A8"/>
<path id="Vector_2" d="M10.875 34.53C14.1887 34.53 16.875 31.8437 16.875 28.53C16.875 25.2163 14.1887 22.53 10.875 22.53C7.56129 22.53 4.875 25.2163 4.875 28.53C4.875 31.8437 7.56129 34.53 10.875 34.53Z" fill="#583E68"/>
<path id="Vector_3" d="M16.8748 41.53C14.2968 41.53 12.1058 43.158 11.2568 45.44C12.2578 46.512 12.8748 47.947 12.8748 49.53C12.8748 50.266 12.7358 50.968 12.4928 51.62C13.5888 52.792 15.1438 53.53 16.8748 53.53C20.1888 53.53 22.8748 50.844 22.8748 47.53C22.8748 44.216 20.1888 41.53 16.8748 41.53Z" fill="#583E68"/>
<path id="Vector_4" d="M11.257 45.44C11.851 43.844 13.11 42.582 14.691 41.959C14.803 41.5 14.875 41.024 14.875 40.53C14.875 37.216 12.189 34.53 8.875 34.53C5.561 34.53 2.875 37.216 2.875 40.53C2.875 41.913 3.347 43.183 4.133 44.197C4.956 43.773 5.886 43.53 6.875 43.53C8.805 43.53 10.518 44.445 11.615 45.861C11.502 45.716 11.382 45.575 11.257 45.44Z" fill="#6F58A8"/>
<path id="Vector_5" d="M26.8749 38.53C24.0169 38.53 21.6309 40.53 21.0269 43.205C22.1639 44.296 22.8749 45.829 22.8749 47.53C22.8749 47.986 22.8199 48.428 22.7229 48.855C23.8009 49.89 25.2619 50.53 26.8749 50.53C30.1889 50.53 32.8749 47.844 32.8749 44.53C32.8749 41.216 30.1889 38.53 26.8749 38.53Z" fill="#6F58A8"/>
<path id="Vector_6" d="M24.246 39.158C24.637 38.362 24.875 37.477 24.875 36.53C24.875 33.216 22.189 30.53 18.875 30.53C17.943 30.53 17.064 30.747 16.278 31.127C15.688 32.352 14.697 33.343 13.472 33.933C13.155 34.593 12.954 35.32 12.897 36.088C14.109 37.185 14.875 38.766 14.875 40.53C14.875 40.678 14.857 40.821 14.845 40.966C15.126 41.221 15.433 41.446 15.758 41.645C16.121 41.576 16.492 41.53 16.875 41.53C18.025 41.53 19.095 41.859 20.008 42.42C20.541 42.318 21.038 42.127 21.511 41.894C22.096 40.704 23.056 39.742 24.246 39.158Z" fill="#9777A8"/>
<path id="Vector_7" d="M28.8752 28.53C28.1012 28.53 27.3692 28.692 26.6912 28.959C26.2732 30.66 25.1402 32.078 23.6172 32.863L23.6162 32.862C24.4032 33.875 24.8752 35.146 24.8752 36.53C24.8752 37.264 24.7292 37.96 24.4822 38.607C24.5802 38.712 24.6852 38.809 24.7902 38.907C25.4402 38.666 26.1412 38.53 26.8752 38.53C28.4582 38.53 29.8932 39.147 30.9652 40.148C33.2472 39.299 34.8752 37.108 34.8752 34.53C34.8752 31.216 32.1892 28.53 28.8752 28.53Z" fill="#583E68"/>
<path id="Vector_8" d="M36.8749 34.53C36.1619 34.53 35.4809 34.66 34.8469 34.889C34.7019 37.308 33.1389 39.34 30.9649 40.149C30.9519 40.136 30.9369 40.126 30.9229 40.113C32.1189 41.21 32.8749 42.779 32.8749 44.53C32.8749 44.679 32.8629 44.826 32.8529 44.973C33.9169 45.937 35.3249 46.53 36.8749 46.53C40.1889 46.53 42.8749 43.844 42.8749 40.53C42.8749 37.216 40.1889 34.53 36.8749 34.53Z" fill="#9777A8"/>
<path id="Vector_9" d="M38.875 24.53C38.497 24.53 38.128 24.569 37.769 24.636C37.316 27.062 35.407 28.971 32.981 29.424C32.94 29.641 32.915 29.863 32.897 30.087C34.109 31.185 34.875 32.766 34.875 34.53C34.875 34.675 34.852 34.814 34.841 34.957C34.866 34.927 36.168 34.53 36.875 34.53C38.458 34.53 39.893 35.147 40.965 36.148C43.247 35.299 44.875 33.108 44.875 30.53C44.875 27.216 42.189 24.53 38.875 24.53Z" fill="#583E68"/>
<path id="Vector_10" d="M25.875 11.53C23.413 11.53 21.3 13.014 20.375 15.135C20.695 15.869 20.875 16.678 20.875 17.53C20.875 18.382 20.695 19.191 20.375 19.925C20.639 20.531 21.01 21.077 21.449 21.559C22.971 21.704 24.323 22.42 25.299 23.487C25.49 23.505 25.679 23.53 25.875 23.53C25.875 20.216 28.561 17.53 31.875 17.53C31.875 14.216 29.189 11.53 25.875 11.53Z" fill="#9777A8"/>
<path id="Vector_11" d="M14.875 11.53C11.561 11.53 8.875 14.216 8.875 17.53C8.875 19.657 9.985 21.521 11.654 22.586C12.545 22.702 13.373 23.012 14.097 23.474C14.352 23.507 14.611 23.53 14.875 23.53C18.189 23.53 20.875 20.844 20.875 17.53C20.875 14.216 18.189 11.53 14.875 11.53Z" fill="#6F58A8"/>
<path id="Vector_12" d="M25.9308 24.31C25.9278 24.306 25.9258 24.301 25.9238 24.297C24.8568 22.634 22.9968 21.53 20.8748 21.53C20.2448 21.53 19.6408 21.635 19.0708 21.815C18.4098 22.463 17.5998 22.959 16.6958 23.247C16.2398 23.693 15.8458 24.202 15.5488 24.773C16.3768 25.802 16.8748 27.107 16.8748 28.53C16.8748 29.477 16.6458 30.368 16.2548 31.165C16.2618 31.152 16.2708 31.14 16.2768 31.127C17.0638 30.747 17.9428 30.53 18.8748 30.53C20.8058 30.53 22.5188 31.446 23.6168 32.863C25.5498 31.867 26.8748 29.855 26.8748 27.53C26.8748 27.264 26.8508 27.005 26.8168 26.749C26.3558 26.026 26.0468 25.199 25.9308 24.31Z" fill="#6F58A8"/>
<path id="Vector_13" d="M31.875 17.53C28.561 17.53 25.875 20.216 25.875 23.53C25.875 25.628 26.954 27.472 28.586 28.545C28.682 28.54 28.777 28.53 28.875 28.53C30.091 28.53 31.22 28.894 32.165 29.515C35.343 29.363 37.875 26.746 37.875 23.53C37.875 20.216 35.189 17.53 31.875 17.53Z" fill="#6F58A8"/>
<path id="Vector_14" d="M56.875 26.53C50.242 26.53 44.875 21.163 44.875 14.53C51.508 14.53 56.875 19.897 56.875 26.53Z" fill="#88C057"/>
<path id="Vector_15" d="M34.875 19.53V17.53C42.043 17.53 47.875 10.352 47.875 1.53003H49.875C49.875 11.455 43.146 19.53 34.875 19.53Z" fill="#7A3726"/>
</g>
</g>
<defs>
<clipPath id="clip0_491_2334">
<rect width="56" height="56" fill="white" transform="translate(0.875 0.530029)"/>
</clipPath>
</defs>
</svg>
