<svg width="51" height="51" viewBox="0 0 51 51" fill="none" xmlns="http://www.w3.org/2000/svg">
<g id="vanilla 1" clip-path="url(#clip0_509_4282)">
<g id="Group">
<path id="Vector" d="M2.31199 50.259L1.00965 48.7069C0.832009 48.4952 0.859646 48.1796 1.07136 48.002L3.52429 45.9502L28.4331 22.2273L46.852 9.5874L48.4761 11.5229C48.6537 11.7346 48.6261 12.0502 48.4143 12.2277L3.01697 50.3207C2.80525 50.4983 2.48963 50.4707 2.31199 50.259Z" fill="#D37A5F"/>
<path id="Vector_2" d="M48.0296 8.59932L3.52429 45.9502L1.90027 44.0147C1.72263 43.803 1.75027 43.4874 1.96199 43.3098L46.084 6.28067C46.7287 5.73965 46.8128 4.77842 46.2718 4.1336C45.7307 3.48887 44.7695 3.40479 44.1247 3.9458L43.4049 4.54981C42.7645 5.08711 41.8099 5.00352 41.2726 4.36328C40.7353 3.72295 40.8189 2.76836 41.4592 2.23106L42.179 1.62705C44.1044 0.0115255 46.9748 0.262599 48.5904 2.18799C50.2061 4.11328 49.955 6.98379 48.0296 8.59932Z" fill="#DD9373"/>
<path id="Vector_3" d="M29.8259 25.7334L30.3073 22.1173C30.5017 21.6991 31.993 20.9251 31.993 20.9251C32.5984 19.2447 32.9094 17.4686 32.9094 15.6754C32.9094 12.7118 31.8024 9.85493 29.8057 7.66489C29.304 7.1148 28.8552 6.5187 28.465 5.88462L27.0525 3.58931L26.0596 2.45122C25.8678 2.1394 25.7599 2.0437 25.3938 2.0437C25.0277 2.0437 24.6879 2.23364 24.4961 2.54546L22.9652 5.88472C22.5751 6.5188 22.1263 7.11489 21.6246 7.66499C19.6277 9.85503 18.9355 12.7119 18.9355 15.6755C18.9355 17.9298 19.4277 20.157 20.3777 22.2013L22.019 25.7334H29.8259Z" fill="#FFF5C6"/>
<path id="Vector_4" d="M31.9924 20.925C31.8362 21.3574 31.6611 21.7827 31.467 22.201L29.8258 25.7336H20.7922C19.927 23.7994 18.5007 21.1773 18.0732 19.0167C17.8311 17.923 17.708 16.8021 17.708 15.6753C17.708 14.1943 17.9853 12.7392 18.5116 11.3802C19.038 10.0212 19.8136 8.7603 20.8123 7.6645C21.3137 7.11509 21.763 6.5187 22.1533 5.8852L24.4109 2.2145C24.507 2.05942 24.6401 1.93325 24.7942 1.84722C24.9493 1.76118 25.1255 1.71313 25.3086 1.71313C25.6749 1.71313 26.0141 1.90327 26.2063 2.2145L27.0521 3.5894C26.1883 4.95806 25.0262 7.10356 23.8396 8.26694C22.0192 10.2624 21.0104 12.8663 21.0104 15.5672C21.0006 16.2111 21.0155 16.9185 21.0843 17.638C21.111 17.9183 21.4743 18.0121 21.632 17.7789C22.3931 16.6535 23.087 15.8295 23.4782 15.3921C23.9525 14.8608 24.632 14.5565 25.3436 14.5565C26.0551 14.5565 26.7346 14.8607 27.2089 15.3921C27.8679 16.1288 29.3844 17.962 30.6392 20.4836C30.7128 20.6316 30.8538 20.734 31.0173 20.7583C31.3514 20.8078 31.677 20.8639 31.9924 20.925Z" fill="#FAE2C0"/>
<g id="Group_2">
<path id="Vector_5" d="M25.3434 19.8727C24.9288 19.8727 24.5928 19.5367 24.5928 19.1221V11.8705C24.5928 11.4559 24.9288 11.1199 25.3434 11.1199C25.7579 11.1199 26.0939 11.4559 26.0939 11.8705V19.1221C26.0938 19.5367 25.7578 19.8727 25.3434 19.8727Z" fill="#FAE2C0"/>
</g>
<g id="Group_3">
<path id="Vector_6" d="M26.0939 14.6725V19.1217C26.0939 19.5371 25.7577 19.8723 25.3434 19.8723C24.9291 19.8723 24.5928 19.5371 24.5928 19.1217V14.6725C24.8329 14.5964 25.0861 14.5564 25.3434 14.5564C25.6006 14.5564 25.8538 14.5964 26.0939 14.6725Z" fill="#F4D7C8"/>
</g>
<g id="Group_4">
<path id="Vector_7" d="M24.6251 22.9994L21.3349 21.4241C20.9972 21.11 20.7219 19.4526 20.7219 19.4526C19.3109 18.3575 17.7177 17.5129 16.0123 16.9588C13.1937 16.043 10.1346 16.2129 7.43479 17.4353C6.75657 17.7423 6.051 17.985 5.32737 18.1601L2.70794 18.7942L1.31868 19.3869C0.962917 19.473 0.838503 19.546 0.725417 19.8941C0.612331 20.2422 0.687917 20.6242 0.925124 20.903L3.62786 23.3908C4.11038 23.9578 4.5385 24.5688 4.90676 25.2159C6.37249 27.7918 8.87561 29.3329 11.6943 30.2487C13.8382 30.9453 16.1084 31.1654 18.3463 30.8937L22.2126 30.4243L24.6251 22.9994Z" fill="#FFF5C6"/>
<path id="Vector_8" d="M20.7215 19.4526C21.0844 19.7346 21.4347 20.0327 21.7726 20.3465L24.6252 22.9991L21.8337 31.5906C19.7267 31.8157 16.7923 32.362 14.6053 32.1008C13.4901 31.9931 12.3862 31.7638 11.3145 31.4157C9.90594 30.958 8.60769 30.2447 7.47791 29.3242C6.34812 28.4037 5.38855 27.2763 4.65496 25.9878C4.28738 25.3413 3.85896 24.7296 3.37713 24.1626L0.583768 20.8812C0.465897 20.7419 0.387088 20.5763 0.352909 20.4032C0.319022 20.2291 0.327713 20.0467 0.384354 19.8725C0.497538 19.5242 0.783182 19.2603 1.13855 19.1737L2.7075 18.7942C3.74226 20.0386 5.42361 21.8069 6.16336 23.2949C7.49861 25.6427 9.66336 27.4068 12.2322 28.2414C12.8416 28.4497 13.5189 28.6541 14.2244 28.811C14.4993 28.8721 14.7007 28.5556 14.5275 28.3335C13.6924 27.262 13.1232 26.3474 12.8281 25.8402C12.4693 25.2249 12.3899 24.4846 12.6098 23.8079C12.8297 23.1312 13.329 22.579 13.9809 22.292C14.8851 21.8929 17.0972 21.0171 19.8832 20.6031C20.0467 20.5788 20.1877 20.4763 20.2613 20.3283C20.4119 20.0259 20.5658 19.7337 20.7215 19.4526Z" fill="#FAE2C0"/>
<g id="Group_5">
<path id="Vector_9" d="M17.666 25.4509C17.5378 25.8451 17.1144 26.0608 16.7203 25.9327L9.82348 23.6918C9.42924 23.5637 9.21352 23.1402 9.34164 22.7461C9.46977 22.3518 9.8932 22.1361 10.2873 22.2642L17.1841 24.5052C17.5783 24.6332 17.7941 25.0566 17.666 25.4509Z" fill="#FAE2C0"/>
</g>
<g id="Group_6">
<path id="Vector_10" d="M12.9521 23.13L17.1836 24.5049C17.5786 24.6332 17.7935 25.0567 17.6654 25.4506C17.5374 25.8447 17.1146 26.0609 16.7197 25.9324L12.4883 24.5575C12.4901 24.3056 12.5304 24.0525 12.6099 23.8078C12.6894 23.5634 12.8057 23.335 12.9521 23.13Z" fill="#F4D7C8"/>
</g>
</g>
<g id="Group_7">
<path id="Vector_11" d="M20.4177 27.1008L17.9027 29.7432C17.4997 29.9673 15.8383 29.7169 15.8383 29.7169C14.3606 30.7206 13.0652 31.9748 12.0112 33.4253C10.2692 35.823 9.48555 38.7849 9.81377 41.7303C9.89619 42.4703 9.90898 43.2163 9.85195 43.9585L9.64551 46.6457L9.77988 48.15C9.75186 48.5151 9.78281 48.6559 10.0789 48.871C10.3751 49.0862 10.7616 49.1324 11.1001 48.9928L14.3014 47.1912C14.9897 46.9075 15.7032 46.6891 16.4323 46.5389C19.3351 45.9409 21.5742 44.0366 23.3163 41.6388C24.6413 39.8151 25.5522 37.724 25.9854 35.5117L26.7336 31.6895L20.4177 27.1008Z" fill="#FFF5C6"/>
<path id="Vector_12" d="M15.8383 29.717C16.2187 29.459 16.6104 29.2179 17.0133 28.9936L20.4175 27.1003L27.7258 32.4101C27.2888 34.4834 26.9016 37.4431 25.9774 39.4424C25.5304 40.4697 24.9712 41.4488 24.3089 42.3604C23.4382 43.5586 22.3588 44.5729 21.1341 45.3629C19.9095 46.153 18.5409 46.7172 17.0888 47.0167C16.3603 47.1666 15.6462 47.3849 14.9581 47.668L10.974 49.3106C10.805 49.3796 10.6233 49.4034 10.448 49.3825C10.2719 49.3609 10.1012 49.2962 9.95309 49.1886C9.6568 48.9733 9.49411 48.6201 9.52155 48.2554L9.64547 46.6459C11.1488 46.0464 13.3501 44.9937 14.9938 44.75C17.6394 44.2056 19.986 42.6919 21.5736 40.5069C21.96 39.9917 22.3637 39.4107 22.731 38.7882C22.8741 38.5458 22.6353 38.2564 22.3707 38.3524C21.0934 38.8156 20.0477 39.0742 19.4742 39.1981C18.7781 39.3492 18.0496 39.1958 17.4739 38.7777C16.8983 38.3594 16.5273 37.7139 16.4559 37.0052C16.3558 36.0219 16.2064 33.6475 16.6735 30.8699C16.7009 30.7069 16.647 30.5411 16.529 30.4253C16.288 30.1886 16.0576 29.9519 15.8383 29.717Z" fill="#FAE2C0"/>
<g id="Group_8">
<path id="Vector_13" d="M20.5987 34.4765C20.934 34.7202 21.0083 35.1895 20.7647 35.5249L16.5023 41.3916C16.2586 41.7269 15.7893 41.8012 15.454 41.5576C15.1186 41.3139 15.0443 40.8446 15.2879 40.5093L19.5503 34.6426C19.794 34.3072 20.2633 34.2329 20.5987 34.4765Z" fill="#FAE2C0"/>
</g>
<g id="Group_9">
<path id="Vector_14" d="M16.9346 38.2423L19.5498 34.6428C19.7939 34.3068 20.263 34.2333 20.5981 34.4768C20.9333 34.7204 21.0083 35.1892 20.7642 35.5252L18.1489 39.1247C17.91 39.045 17.6815 38.9286 17.4735 38.7774C17.2654 38.6263 17.0842 38.4451 16.9346 38.2423Z" fill="#F4D7C8"/>
</g>
</g>
<g id="Group_10">
<path id="Vector_15" d="M23.0186 32.3696L24.7545 35.578C24.8431 36.0306 24.0916 37.5333 24.0916 37.5333C24.5895 39.2487 25.3819 40.8684 26.4359 42.319C28.1779 44.7167 30.7526 46.3773 33.6554 46.9754C34.3846 47.1256 35.098 47.344 35.7863 47.6276L38.2781 48.6543L39.7504 48.9914C40.0889 49.1309 40.2323 49.1449 40.5285 48.9298C40.8247 48.7146 40.988 48.3612 40.96 47.9962L40.2357 44.3948C40.1786 43.6525 40.1914 42.9064 40.2739 42.1666C40.6021 39.2212 39.4829 36.503 37.7409 34.1054C36.4159 32.2816 34.7086 30.7691 32.7385 29.6735L29.3346 27.7808L23.0186 32.3696Z" fill="#FFF5C6"/>
<path id="Vector_16" d="M24.0911 37.5333C23.9633 37.0917 23.855 36.6447 23.7662 36.1922L23.0176 32.3697L30.3259 27.0598C32.1628 28.1161 34.8579 29.3991 36.4737 30.8958C37.3126 31.6383 38.0709 32.4727 38.7333 33.3843C39.6039 34.5826 40.2349 35.9227 40.6078 37.3315C40.9808 38.7404 41.0944 40.2164 40.9306 41.6899C40.8479 42.4291 40.835 43.1757 40.8915 43.9176L41.2226 48.2143C41.236 48.3962 41.2024 48.5765 41.1283 48.7367C41.0534 48.8975 40.9392 49.0399 40.791 49.1475C40.4947 49.3628 40.1085 49.4083 39.7701 49.2695L38.2777 48.6543C38.1721 47.0394 37.8512 44.6205 38.1273 42.9819C38.4271 40.2976 37.7127 37.598 36.1251 35.4129C35.7546 34.8863 35.3267 34.3227 34.8481 33.7811C34.6617 33.5701 34.3128 33.7078 34.3223 33.9892C34.3681 35.347 34.2909 36.4215 34.2315 37.0052C34.1602 37.7139 33.7893 38.3594 33.2136 38.7777C32.638 39.1959 31.9094 39.3492 31.2133 39.1981C30.2472 38.9895 27.9428 38.3978 25.4455 37.0953C25.2989 37.0188 25.1246 37.0189 24.9781 37.0954C24.6787 37.2513 24.3823 37.3973 24.0911 37.5333Z" fill="#FAE2C0"/>
<g id="Group_11">
<path id="Vector_17" d="M30.0887 34.4765C30.4241 34.2329 30.8934 34.3072 31.1371 34.6426L35.3995 40.5093C35.6431 40.8446 35.5688 41.3139 35.2334 41.5576C34.8981 41.8012 34.4288 41.7269 34.1851 41.3916L29.9227 35.5249C29.6791 35.1895 29.7534 34.7202 30.0887 34.4765Z" fill="#FAE2C0"/>
</g>
<g id="Group_12">
<path id="Vector_18" d="M32.5381 39.1246L29.9229 35.5251C29.6787 35.1891 29.7537 34.7202 30.0889 34.4768C30.424 34.2332 30.8932 34.3069 31.1372 34.6428L33.7525 38.2423C33.6028 38.445 33.4216 38.6262 33.2135 38.7774C33.0055 38.9286 32.7771 39.045 32.5381 39.1246Z" fill="#F4D7C8"/>
</g>
</g>
<g id="Group_13">
<path id="Vector_19" d="M28.8323 31.5244L32.4201 30.8649C32.8779 30.9205 34.0748 32.0996 34.0748 32.0996C35.8601 32.1561 37.6453 31.903 39.3507 31.3489C42.1693 30.4331 44.5442 28.4975 46.0101 25.9216C46.3782 25.2746 46.8064 24.6635 47.289 24.0965L49.0354 22.0439L49.811 20.7478C50.0482 20.469 50.1061 20.3369 49.9929 19.9887C49.8798 19.6406 49.5941 19.376 49.2383 19.2899L45.5895 18.8659C44.8658 18.6908 44.1603 18.4481 43.482 18.141C40.7821 16.9186 37.8513 17.1431 35.0326 18.0589C32.8887 18.7555 30.9227 19.9119 29.2719 21.4471L26.4199 24.0996L28.8323 31.5244Z" fill="#FFF5C6"/>
<path id="Vector_20" d="M34.0753 32.0996C33.6159 32.0847 33.1573 32.0496 32.6994 31.9942L28.8325 31.525L26.041 22.9334C27.6132 21.5128 29.6662 19.3461 31.589 18.2719C32.5544 17.7036 33.5823 17.2402 34.654 16.8919C36.0626 16.4342 37.5321 16.2483 38.9872 16.329C40.4423 16.4096 41.8813 16.7576 43.232 17.3688C43.9095 17.6758 44.6155 17.9189 45.3387 18.0943L49.5273 19.1072C49.7046 19.1506 49.8656 19.2382 49.9951 19.3583C50.1249 19.4792 50.225 19.6319 50.2816 19.806C50.3948 20.1543 50.3188 20.5358 50.0822 20.8147L49.0359 22.044C47.4674 21.6454 45.0677 21.2032 43.5946 20.4341C41.1344 19.3195 38.3462 19.1648 35.7773 19.9995C35.1619 20.1891 34.4938 20.4219 33.8308 20.7096C33.5725 20.8217 33.5955 21.1961 33.8661 21.2741C35.1717 21.6501 36.1696 22.0555 36.7064 22.2923C37.3584 22.5792 37.8577 23.1315 38.0775 23.8082C38.2974 24.4848 38.2181 25.2251 37.8593 25.8405C37.3623 26.6949 36.0875 28.7036 34.077 30.6762C33.959 30.7919 33.9052 30.9578 33.9326 31.1208C33.9889 31.4538 34.036 31.7807 34.0753 32.0996Z" fill="#FAE2C0"/>
<g id="Group_14">
<path id="Vector_21" d="M33.0213 25.451C32.8932 25.0567 33.109 24.6333 33.5032 24.5053L40.3999 22.2644C40.7942 22.1362 41.2176 22.3521 41.3456 22.7462C41.4738 23.1404 41.2579 23.5639 40.8638 23.6919L33.967 25.9328C33.5729 26.0609 33.1494 25.8452 33.0213 25.451Z" fill="#FAE2C0"/>
</g>
<g id="Group_15">
<path id="Vector_22" d="M38.1995 24.5578L33.968 25.9327C33.573 26.061 33.1504 25.8448 33.0223 25.4509C32.8943 25.0568 33.1092 24.6335 33.5042 24.5052L37.7356 23.1302C37.8822 23.3351 37.9985 23.5635 38.0779 23.8082C38.1574 24.0527 38.1975 24.3059 38.1995 24.5578Z" fill="#F4D7C8"/>
</g>
</g>
<path id="Vector_23" d="M32.8056 17.4596C32.6694 18.6414 32.3963 19.8043 31.993 20.9251C31.6777 20.8641 31.3525 20.808 31.0183 20.758C30.8541 20.734 30.7131 20.632 30.6399 20.4838C30.4128 20.0284 30.1776 19.5951 29.9404 19.1868C30.4288 18.8146 30.9392 18.4723 31.4676 18.1611C31.9019 17.9059 32.3482 17.6717 32.8056 17.4596Z" fill="#FFF5C6"/>
<path id="Vector_24" d="M36.0321 24.4615C35.1768 24.0845 32.5848 23.047 29.4449 22.7917C29.3325 22.7826 29.2348 22.7116 29.1913 22.6076C27.9783 19.7002 26.1906 17.5557 25.5678 16.8586C25.4483 16.7249 25.2398 16.7249 25.1202 16.8586C24.4974 17.5556 22.7097 19.7002 21.4967 22.6076C21.4532 22.7117 21.3556 22.7827 21.2431 22.7917C18.1032 23.0469 15.5112 24.0844 14.6559 24.4615C14.4917 24.5338 14.4273 24.7321 14.5176 24.8872C14.988 25.695 16.4752 28.0579 18.8654 30.1099C18.9509 30.1833 18.9883 30.2981 18.9623 30.4078C18.2348 33.4729 18.4204 36.2587 18.5147 37.1887C18.5327 37.3672 18.7014 37.4897 18.8768 37.4518C19.7904 37.2541 22.4973 36.5698 25.1876 34.9306C25.2838 34.872 25.4044 34.872 25.5006 34.9306C28.1908 36.5698 30.8978 37.2541 31.8114 37.4518C31.9868 37.4898 32.1554 37.3672 32.1735 37.1887C32.2678 36.2587 32.4534 33.4728 31.7259 30.4078C31.6998 30.2981 31.7372 30.1833 31.8228 30.1099C34.213 28.0579 35.7002 25.695 36.1706 24.8872C36.2608 24.7321 36.1963 24.5338 36.0321 24.4615Z" fill="#FFF5C6"/>
<path id="Vector_25" d="M28.8502 27.9455C28.8502 28.1876 28.8225 28.4365 28.7758 28.6648C28.7758 28.6648 28.3837 29.1784 28.2156 29.4826C27.6182 30.5637 26.6658 31.1592 25.3433 31.1592C23.4064 31.1592 22.4287 29.8823 22.4287 27.9455C22.4287 26.7489 22.7977 25.8395 23.7126 25.2067C23.976 25.0245 24.2124 24.6248 24.2124 24.6248C24.5672 24.504 24.9476 24.4386 25.3433 24.4386C27.2802 24.4386 28.8502 26.0087 28.8502 27.9455Z" fill="#FCC16D"/>
<path id="Vector_26" d="M28.776 28.6647C28.4437 30.2569 27.0337 31.4527 25.3435 31.4527C23.407 31.4527 21.8369 29.8826 21.8369 27.9452C21.8369 26.4041 22.8307 25.0951 24.2127 24.6248C24.1637 24.8569 24.1387 25.0971 24.1387 25.3433C24.1387 27.2807 25.7088 28.8508 27.6452 28.8508C28.0405 28.8508 28.4218 28.7858 28.776 28.6647Z" fill="#FCA62F"/>
</g>
</g>
<defs>
<clipPath id="clip0_509_4282">
<rect width="50" height="50" fill="white" transform="translate(0.333008 0.5)"/>
</clipPath>
</defs>
</svg>
