<?xml version="1.0" encoding="utf-8"?>
<!-- Generator: Adobe Illustrator 26.4.1, SVG Export Plug-In . SVG Version: 6.00 Build 0)  -->
<svg version="1.1" id="Capa_1" xmlns="http://www.w3.org/2000/svg" xmlns:xlink="http://www.w3.org/1999/xlink" x="0px" y="0px"
	 viewBox="0 0 167.6 167.6" style="enable-background:new 0 0 167.6 167.6;" xml:space="preserve">
<style type="text/css">
	.st0{clip-path:url(#SVGID_00000076605727726513955120000017923010117894475446_);}
	.st1{fill:#F5EFE9;}
	.st2{fill:#F8C5C5;}
	.st3{clip-path:url(#SVGID_00000145057538311231603340000017035997482920312231_);}
	.st4{fill:#6C86C3;}
	.st5{fill:#B7C6E7;}
	.st6{fill:#FEC923;}
	.st7{fill:#E968A3;}
	.st8{fill:#EEA7CA;}
	.st9{fill:#322B44;}
	.st10{fill:#EB5F3B;}
	.st11{fill:#8C5248;}
	.st12{fill:#E1644A;}
</style>
<g>
	<defs>
		<circle id="SVGID_1_" cx="83.8" cy="83.8" r="82"/>
	</defs>
	<clipPath id="SVGID_00000141435948970354774750000010409792606465716392_">
		<use xlink:href="#SVGID_1_"  style="overflow:visible;"/>
	</clipPath>
	<g style="clip-path:url(#SVGID_00000141435948970354774750000010409792606465716392_);">
		<circle class="st1" cx="83.8" cy="83.8" r="82"/>
		<g>
			<g>
				<path class="st2" d="M77.6,107.9c-22,14-64.7,36.7-88.4,48.3l-45.9-18.3c24.3-6.3,102-37.8,125.7-46.9L77.6,107.9z"/>
				<g>
					<defs>
						
							<rect id="SVGID_00000170237523829672905080000018164821034806463410_" x="-9" y="-7.1" transform="matrix(0.9659 -0.2588 0.2588 0.9659 -19.056 23.1869)" width="175" height="182.2"/>
					</defs>
					<clipPath id="SVGID_00000157290515084422599530000001066282447141071262_">
						<use xlink:href="#SVGID_00000170237523829672905080000018164821034806463410_"  style="overflow:visible;"/>
					</clipPath>
					<g style="clip-path:url(#SVGID_00000157290515084422599530000001066282447141071262_);">
						<g>
							<path class="st4" d="M77.9,97.6c2.7-0.7,4.3-3.5,3.6-6.2c-0.7-2.7-3.5-4.3-6.2-3.6c-2.7,0.7-4.3,3.5-3.6,6.2
								S75.2,98.3,77.9,97.6z"/>
							<path class="st5" d="M67.1,111.8c-0.5,0.1-1.1,0.1-1.7-0.2c-1-0.6-1.4-1.9-0.8-3l2.9-5c0.6-1,1.9-1.4,3-0.8
								c1,0.6,1.4,1.9,0.8,3l-2.9,5C68.1,111.3,67.6,111.7,67.1,111.8L67.1,111.8z"/>
							<path class="st4" d="M121.8,58.6c2.7-0.7,4.3-3.5,3.6-6.2s-3.5-4.3-6.2-3.6c-2.7,0.7-4.3,3.5-3.6,6.2S119.1,59.3,121.8,58.6z
								"/>
							<path class="st4" d="M70.2,155.8c2.7-0.7,4.3-3.5,3.6-6.2c-0.7-2.7-3.5-4.3-6.2-3.6c-2.7,0.7-4.3,3.5-3.6,6.2
								C64.8,154.9,67.6,156.5,70.2,155.8z"/>
							<path class="st6" d="M147.4,79.7l-5.9-1.4l-4.5,4l-0.4-6l-5.2-3l5.6-2.3l1.3-5.9l3.9,4.6l6-0.6l-3.2,5.1L147.4,79.7
								L147.4,79.7z"/>
							<path class="st6" d="M121.4,157.7l-5.9-1.4l-4.5,4l-0.4-6l-5.2-3l5.6-2.3l1.3-5.9l3.9,4.6l6-0.6l-3.2,5.1L121.4,157.7
								L121.4,157.7z"/>
							<path class="st7" d="M114.9,74.5c2.7-0.7,1.6-4.9-1.1-4.2C111.1,71.1,112.2,75.3,114.9,74.5z"/>
							<path class="st7" d="M140.3,96.7c2.7-0.7,1.6-4.9-1.1-4.2C136.5,93.3,137.6,97.5,140.3,96.7z"/>
							<path class="st7" d="M43.7,41c2.7-0.7,1.6-4.9-1.1-4.2C39.8,37.5,41,41.7,43.7,41z"/>
							<path class="st7" d="M135.9,111.7c2.7-0.7,1.6-4.9-1.1-4.2C132.1,108.2,133.2,112.4,135.9,111.7z"/>
							<path class="st5" d="M50,111.6c-0.3,0.1-0.7,0.1-1,0c-1.2-0.3-1.9-1.4-1.6-2.6c2.1-9.5,3.6-28.3-10.3-48.2
								c-0.7-1-0.5-2.3,0.5-3c1-0.7,2.3-0.5,3,0.5c14.9,21.2,13.3,41.4,11,51.6C51.3,110.8,50.7,111.4,50,111.6z"/>
							<path class="st4" d="M33.8,101.9c2.7-0.7,4.3-3.5,3.6-6.2c-0.7-2.7-3.5-4.3-6.2-3.6c-2.7,0.7-4.3,3.5-3.6,6.2
								C28.4,101.1,31.1,102.6,33.8,101.9L33.8,101.9z"/>
							<path class="st8" d="M131.9,124.8c-0.7,0-1-0.2-1.8-1c-0.9-0.9-2.3-2.3-4.9-2.3s-3.9,1.4-4.8,2.4c-0.8,0.8-1.1,1-1.8,1.1
								c-0.7,0-1-0.2-1.8-1c-0.9-0.9-2.3-2.3-4.9-2.3c-1.2,0-2.2,1-2.2,2.2c0,1.2,1,2.2,2.2,2.2c0.7,0,1,0.2,1.8,1
								c0.9,0.9,2.3,2.3,4.9,2.3s3.9-1.4,4.8-2.4c0.8-0.8,1.1-1,1.8-1.1c0.7,0,1,0.2,1.8,1c0.9,0.9,2.3,2.3,4.9,2.3
								c0.2,0,0.4,0,0.5-0.1c0.9-0.2,1.6-1.1,1.6-2.1C134.1,125.8,133.1,124.8,131.9,124.8z"/>
							<path class="st8" d="M127.5,86.2c0.9-0.8,0.9-2.2,0.1-3.1s-2.2-0.9-3.1-0.1c-0.5,0.5-0.9,0.5-2,0.5c-1.3,0-3.3-0.1-5.1,1.7
								c-1.9,1.8-1.9,3.7-1.9,5c0,1.1-0.1,1.5-0.6,2s-0.9,0.5-2,0.5c-1.3,0-3.3-0.1-5.1,1.7c-0.9,0.8-0.9,2.2-0.1,3.1
								s2.2,0.9,3.1,0.1c0.5-0.5,0.9-0.5,2-0.5c0.7,0,1.6,0,2.5-0.2c0.8-0.2,1.7-0.7,2.6-1.5c1.9-1.8,1.9-3.7,1.9-5
								c0-1.1,0.1-1.5,0.6-2s0.9-0.5,2-0.5C123.7,88,125.6,88,127.5,86.2z"/>
							<path class="st8" d="M29,73.4c-1.1-0.3-1.4-0.4-1.8-1s-0.3-1,0-2.1c0.4-1.2,0.9-3.1-0.4-5.4c-1.3-2.2-3.1-2.8-4.4-3.1
								c-1.1-0.3-1.4-0.4-1.8-1c-0.6-1-1.9-1.4-3-0.8c-1,0.6-1.4,1.9-0.8,3c1.3,2.2,3.1,2.8,4.4,3.1c1.1,0.3,1.4,0.4,1.8,1
								s0.3,1,0,2.1c-0.4,1.2-0.9,3.1,0.4,5.4c1.3,2.2,3.1,2.8,4.4,3.1c1.1,0.3,1.4,0.4,1.8,1c0.5,0.9,1.5,1.3,2.5,1
								c0.2-0.1,0.3-0.1,0.5-0.2c1-0.6,1.4-1.9,0.8-3C32.2,74.3,30.3,73.7,29,73.4z"/>
							<path class="st8" d="M64.8,67.8c0.3-1.2-0.4-2.3-1.6-2.6c-1.2-0.3-2.3,0.4-2.6,1.6c-0.6,2.5,0.4,4.2,1.1,5.3
								c0.6,0.9,0.8,1.3,0.6,2c-0.2,0.7-0.5,0.9-1.4,1.5c-1.1,0.7-2.8,1.7-3.4,4.2s0.4,4.2,1.1,5.3c0.6,0.9,0.8,1.3,0.6,2
								c-0.3,1.2,0.4,2.3,1.6,2.6c0.4,0.1,0.7,0.1,1.1,0c0.7-0.2,1.3-0.8,1.5-1.6c0.6-2.5-0.4-4.2-1.1-5.3c-0.6-0.9-0.8-1.3-0.6-2
								c0.2-0.7,0.5-0.9,1.4-1.5c1.1-0.7,2.8-1.7,3.4-4.2s-0.4-4.2-1.1-5.3C64.9,68.8,64.7,68.5,64.8,67.8L64.8,67.8z"/>
							<path class="st6" d="M0.1,84.9l4.2,4.4L3,95.2l5.4-2.6l5.2,3l-0.8-6l4.5-4.1l-5.9-1.1L9,78.9l-2.9,5.3L0.1,84.9L0.1,84.9z"/>
							<path class="st7" d="M82.5,56.8c2.7-0.7,1.6-4.9-1.1-4.2C78.7,53.3,79.8,57.5,82.5,56.8z"/>
							<path class="st7" d="M32.5,52.1c2.7-0.7,1.6-4.9-1.1-4.2C28.7,48.6,29.8,52.8,32.5,52.1z"/>
						</g>
					</g>
				</g>
				<path class="st2" d="M66.2,88.7c0.7-0.6,1.5-1.2,2.4-1.6c1.9-0.9,4-1.1,6.1-1.2c3.3-0.2,6.6-0.1,9.8,0.1
					c1.4,0.1,2.9,0.3,3.9,1.3c0.8,0.8,1.1,1.9,1.3,3c0.3,2.1,1.3,4.3,0.7,6.4l-2.5,10.3l2.5-0.3c2.4,0.5,2.9,2.8,2.7,3.8
					c-0.2,0.7-0.6,1.4-1.1,1.9l0,0c0,0-0.1,0.1-0.1,0.1c-0.2,0.2-0.3,0.3-0.5,0.4c-0.1,0.1-0.2,0.2-0.4,0.3c-1.4,1.1-3,2-4.8,2.7
					c-1.1,0.4-2.2,0.7-3.4,0.8c-0.6,0-1.1,0.1-1.7,0l-0.8-0.1c-0.3,0-0.6,0-1.1-0.8l-0.2-0.5c0-0.1,0-0.2,0-0.2
					c-1.5,1-3.1,1.9-4.9,2.5c-2.5,0.8-5.4,0.8-7.7-0.5c-1-0.6-1.9-1.4-2.8-2.3c-2.8-2.9-5.2-6.2-7-9.8C58,98.7,61.4,92.8,66.2,88.7
					L66.2,88.7L66.2,88.7z"/>
				<path class="st9" d="M79.6,116.6c-1.7-0.8-0.7-2.5,0.2-3.4c1.8-1.9,4.1-3.6,6.2-5.3c0.5-0.4,1,0.4,0.6,0.8l-3.6,3.1
					c-0.4,0.3-4.3,3.4-2.9,4C80.5,115.9,80.1,116.8,79.6,116.6L79.6,116.6z"/>
				<path class="st10" d="M85.4,32.8l0.1-0.1C85.6,32.8,85.5,32.8,85.4,32.8z"/>
				<path class="st10" d="M88.2,36.7L88.2,36.7L88.2,36.7z"/>
				<path class="st10" d="M90.2,31.1L90.2,31.1L90.2,31.1L90.2,31.1L90.2,31.1z"/>
				<path class="st10" d="M83.8,31.4c1.7-0.2,2.1-0.5,3.9-0.4c0.8,0,1.7,0.1,2.5,0.1c0.4,0.2,1.1,0.1,1.5,0.3l0.2-0.1
					c0.2,0.1,0.3,0.1,0.5,0.1v0c0.2,0.1,0.5,0.1,0.6,0.1v0l0.3,0l0,0c0.4,0.1,0.8,0.2,1.2,0.2l-0.1,0.1c0.8,0,1.1,0.3,1.8,0.3v0
					c0.8,0.5,1.5,0.1,2.3,0.6c-0.1-0.1,0.1,0,0.1-0.1c0.4,0.2,0.9,0.3,0.8,0.6c0.3,0.1,0.3,0,0.3,0c0,0.1,0.2,0.2,0.4,0.3l-0.1-0.1
					c0.2,0.1,0.4,0.2,0.7,0.4l-0.2,0.1c0.4,0.1,0.2-0.2,0.5,0.1l-0.1,0.1c0.5,0.3,1.2,0.4,1.4,1.2c0.2,0.8-0.4,1.6-1.2,1.9
					c-0.6,0.3-1.1,0.4-1.7,0.5c-1.1,0.2-2.1,0.3-3.1,0.5l-0.1,0.1c0,0.2-0.6-0.2-0.6,0l-0.2-0.1c-0.1,0-0.2,0.1-0.1,0.1
					c-0.2,0-0.2,0-0.4-0.1l-0.2,0.1c-0.8,0.1-1.5-0.1-2.4,0c-1,0.2-3-0.1-4.1-0.3c-1.5-0.4-3.4,0-5-0.7c-0.1,0-0.2-0.1-0.2-0.1
					c-0.5-0.1-1-0.2-1.4-0.4c0,0-1.8-0.5-2.7-1.5c-0.5-0.6-0.3-1.4-0.1-1.2c0.2,0.2,0.6,0.6,1.8,0.8v0c0.7,0.2,1.1,0.3,1.6,0.7
					c0.2-0.2,0.6,0.2,0.8,0.1v0c0.4,0.3,1,0.1,1.4,0.3c0,0,0-0.1-0.1-0.1c0.3,0.1,0.8,0.2,0.8,0.1c0.8,0.2,1.9,0.3,2.3,0.5l0,0
					c0.3,0.2,0.4,0.1,0.7,0.2c0,0,0,0,0,0c0.3,0.2,0.9,0.1,1.2,0.2l0-0.1l0.6,0.1h-0.2c0.1,0.3,0.5-0.1,0.9,0.1
					c0.4,0,0.8,0.6,1.3,0.5c0.2,0.1-0.2-0.2,0.1-0.1c0-0.1-0.2-0.1-0.1-0.2c0.3,0.1,0.5-0.1,0.9,0v-0.1c0.5,0.2,0.9-0.2,1.3,0
					c0.5,0.1,0.3-0.3,0.9-0.2l0.2-0.2c0.2,0,0.2,0.2,0.4,0.1c0-0.1,0.3-0.1,0.2-0.2c0.6-0.2,1.2,0.1,1.9-0.3c0.2,0.2,0.5,0,0.7,0.1
					c0-0.1,0.7-0.2,0.3-0.2c0,0-0.1,0-0.1,0L98.6,36c0.3-0.3,0.7-0.1,1.1-0.2c-0.1,0.1-0.2,0.1-0.1,0.1c0.1,0,0.2-0.1,0.3-0.1
					l-0.1,0c0.1-0.1,0.3-0.2,0.4-0.2l0,0.1c0.1-0.1-0.1-0.2,0.1-0.2c0.1,0,0.1,0.1,0.2,0.1c0.1-0.1-0.1-0.3-0.2-0.3
					c0.1-0.1,0.1-0.1,0.1-0.1l-0.1,0.1c0-0.2-0.1,0.2-0.4-0.1v0.1V35c-0.3-0.4-0.3,0.1-0.6-0.3c0.2,0.1,0.2-0.2-0.1-0.2l0,0.1
					c-0.1-0.1-0.1-0.1-0.2-0.1c0.1,0.1,0,0.2-0.2,0.1l0.1,0.2c-0.1-0.1-0.2-0.2-0.3-0.3c-0.3,0-0.7-0.2-0.9-0.1c0,0-0.6-0.1-0.7-0.3
					c0.1,0.1-0.2,0.1-0.2,0.2c-0.1-0.2-0.6-0.3-0.8-0.3l0,0c-0.7,0-1.2-0.4-1.9-0.3c0.1-0.1-0.3-0.1-0.2-0.2
					c-0.7-0.2-1.3,0.2-1.5-0.4c-0.3-0.1-0.4,0.1-0.5,0.1l0.1,0C91.4,33,91.2,33,90.8,33c-0.2-0.1-0.2-0.3-0.6-0.3
					c0.1,0.1,0,0.1-0.2,0.1c0.1,0,0.1,0-0.1,0.1c0,0-0.1,0-0.1-0.1v0c-0.2,0-0.2-0.1-0.1-0.1c0,0,0,0,0,0c-0.3,0.1-0.7,0-0.7,0.1
					c-0.7-0.1-1.2-0.2-1.8-0.3c-0.1,0.1,0.1,0.1,0.2,0.2l-0.4,0c0,0.1,0.2,0.1,0.4,0.1c-0.5,0.2-1.1-0.2-1.7,0l-0.1-0.1l0,0
					c0,0-0.1-0.1-0.2-0.1c-0.1,0.1,0,0.2-0.3,0.2c-0.2,0.1-0.7,0-1,0c0.2,0,0.1-0.1,0-0.1c-0.2,0-0.2,0.1-0.3,0.1V33
					c0.1-0.1-0.4-0.1-0.5-0.1c-0.1,0.1,0.2,0.1,0.3,0.1c-0.6,0.1-0.3,0-0.9,0.1c-0.3,0,0-0.1-0.1-0.2c-0.3,0-0.6,0-0.9,0.1l0.1-0.1
					c-0.5,0-0.8,0.1-1.1,0.4c-2,0-2.2,1.5-2.3,0.7c-0.1-0.4,0.2-0.9,0.4-1.1c0.3-0.3,0.5-0.4,0.5-0.4C81,31.3,81.9,31.6,83.8,31.4
					L83.8,31.4L83.8,31.4z"/>
				<path class="st10" d="M96.6,122.5h0.2C96.8,122.5,96.7,122.5,96.6,122.5z"/>
				<path class="st10" d="M103.2,125.8L103.2,125.8C103.2,125.7,103.3,125.7,103.2,125.8L103.2,125.8z"/>
				<path class="st10" d="M94.8,120.4c2.4,0.5,3.2,0.4,5.6,1.5c0.6,0.3,1.2,0.6,1.8,1.1c0.2,0.1,0.3,0.3,0.4,0.4s0.3,0.3,0.4,0.6
					c0.2,0.2,0.2,0.5,0.2,0.8c0.1,0.3,0,0.6-0.1,0.8c-0.5,1.1-1.6,1.7-2.3,1.9l-0.2,0.2c-0.3,0.1-0.5,0.1-0.8,0.2l0,0
					c-0.4,0.1-0.8,0.2-0.9,0.2l0,0l-0.4,0.1l0.1,0c-0.6,0.1-1.2,0.2-1.8,0.3l0-0.1c-1.2,0.3-1.6,0.1-2.6,0.4l0,0
					c-1.4-0.2-2.1,0.4-3.5,0.1c0.2,0-0.1,0.1-0.1,0.1c-0.6,0-1.3,0-1.3-0.3c-0.5,0-0.4,0.1-0.4,0.2c0-0.1-0.4-0.1-0.8-0.2l0.2,0
					l-1-0.1l0.2-0.2c-0.5,0.1-0.1,0.2-0.7,0.2v-0.2c-0.7,0-1.2,0.2-1.9,0.3c-3.1-0.1-6.2-0.9-9.1-1.2l-0.2,0.1
					c-0.1,0.2-0.7-0.4-0.8-0.3l-0.3-0.2c-0.1,0-0.3,0-0.2,0.1c-0.3-0.1-0.3-0.1-0.5-0.2l-0.3,0c-1.2-0.2-2.1-0.7-3.3-1.2
					c-0.8-0.2-1.8-0.6-2.8-1.7c-0.5-0.5-0.8-1.7-0.3-2.4c0.5-0.7,1-0.9,1.4-1.1c2.3-0.9,4.9-1.9,7.3-1.8c0.1,0,0.3,0,0.3,0
					c0.7-0.1,1.4-0.1,2.2-0.2c0-0.2,10.4,0,2.5,1.4l0.1,0c-1.2,0.1-1.9,0.1-2.7,0c-0.1,0.2-0.9,0.1-1.2,0.2l0,0
					c-0.7-0.2-1.4,0.3-2.1,0.2c0,0,0.1,0.1,0.2,0.1c-0.5,0-1.2,0.1-1.2,0.2c-1.2,0.1-2.7,0.5-3.5,0.6l0.1,0c-0.4,0-0.5,0.1-0.9,0.2
					c0,0,0,0.1,0,0.1c-0.5,0-1.1,0.6-1.2,0.7l0.1,0.1c-0.1,0.1-0.1,0.2-0.1,0.4l0-0.2c-0.2,0.1,0.1,0.2,0.4,0.7
					c0.4,0.3,0.7,1.1,1.4,1.3c0.2,0.2-0.2-0.3,0.2,0c0.1-0.1-0.2-0.2,0-0.2c0.4,0.3,0.7,0.2,1.2,0.4l0.1-0.1
					c0.6,0.4,1.4,0.3,1.8,0.6c0.7,0.3,0.6-0.2,1.3,0.2l0.3-0.1c0.3,0.1,0.2,0.2,0.6,0.2c0-0.1,0.5,0,0.3-0.1c0.9,0,1.7,0.5,2.8,0.5
					c0.2,0.2,0.8,0.2,1,0.3c0-0.1,1.1,0.1,0.5-0.1c-0.1,0-0.2,0-0.1,0l-0.1-0.1c0.7-0.1,1.1,0.3,1.8,0.3c-0.2,0-0.4,0-0.3,0.1l0.6,0
					l-0.1-0.1l0.9,0l-0.1,0.1c0.4,0,0.6-0.2,1.1,0c0.2,0.1-0.4,0.1,0,0.2c0.6,0,1.4-0.1,2.2-0.1c-0.1,0.1,0.1,0.1,0.3,0.2l0-0.1
					c0.8,0.2,0.3-0.2,1.1-0.1l-0.1-0.1l0.2,0.2c0.7,0.2,0.4-0.2,1.2,0.1c-0.3,0-0.1,0.2,0.2,0.2l-0.1-0.1c0.2,0,0.3,0.1,0.4,0
					c-0.1-0.1-0.1-0.2,0.2-0.1l-0.2-0.1l0.6,0.2c0.4-0.1,1.2,0,1.3-0.2c0,0,1-0.1,1.2,0c-0.2-0.1,0.3-0.2,0.2-0.3
					c0.3,0.1,1,0.1,1.3,0h-0.1c1.1-0.2,1.9,0,2.8-0.3c0,0.1,0.5,0,0.4,0.2c1,0,1.7-0.7,2.2-0.3c0.4-0.1,0.5-0.3,0.7-0.4h-0.1
					c0.8-0.2,1-0.3,1.4-0.7c0.2-0.1,0.5,0,0.6-0.3c-0.1,0.1-0.1-0.1,0-0.2c0,0.1-0.1,0.1-0.1-0.1c0,0,0,0,0.1-0.1h0
					c0-0.2,0-0.1,0.1-0.1c0,0,0,0,0.1,0c-0.1-0.1-0.4-0.6-0.5-0.5c-0.7-0.6-1.3-1.1-2.1-1.5c-0.1,0,0,0.2,0.3,0.3l-0.6-0.3
					c0,0.1,0.3,0.2,0.5,0.3c-0.7-0.1-1.4-0.7-2.3-0.8l-0.2-0.1h-0.1c0,0-0.2-0.2-0.3-0.2c-0.2,0.1-0.1,0.2-0.5,0.1
					c-0.4,0-0.9-0.3-1.4-0.4c0.2,0,0.2,0,0.1-0.1c-0.2-0.1-0.4,0-0.5-0.1l-0.1,0.1c0.1-0.1-0.5-0.2-0.6-0.3
					c-0.1,0.1,0.3,0.2,0.4,0.2c-0.9-0.2-0.4-0.1-1.3-0.3c-0.4-0.2,0.1-0.1-0.1-0.3c-0.4-0.1-0.8-0.3-1.3-0.2l0.2-0.1
					c-0.8-0.2-1.2-0.3-1.8-0.2c-2.9-0.8-3.2-1.1-2.7-1.3c0.4-0.2,1.6-0.2,1.6-0.2C91,119.3,92.1,119.8,94.8,120.4L94.8,120.4
					L94.8,120.4z"/>
				<path class="st10" d="M103.5,48.6l0.1,0.2C103.6,48.8,103.5,48.7,103.5,48.6z"/>
				<path class="st10" d="M87.3,101.2C87.3,101.2,87.3,101.3,87.3,101.2C87.3,101.3,87.3,101.2,87.3,101.2z"/>
				<path class="st10" d="M106.3,57.4L106.3,57.4C106.3,57.4,106.3,57.3,106.3,57.4L106.3,57.4z"/>
				<path class="st10" d="M104.5,45.5c0.6,3.1,1,3.9,1.3,7.1c0.2,1.5,0.4,3.2,0.5,4.7c-0.1,0.7,0.2,2,0.1,2.9l0.1,0.3
					c0,0.3,0,0.7,0,0.9l0,0c0,0.5,0,0.9,0,1.2l0,0l0,0.5l0-0.1c0,0.8,0,1.6,0.1,2.3l-0.1,0c0.2,1.5-0.1,2,0.1,3.4l0,0
					c-0.4,1.7,0,2.8-0.9,4.6c0.1-0.2,0,0.1,0.1,0.1c-0.4,0.8-0.8,1.6-1,1.5c-0.3,0.5-0.2,0.5-0.1,0.6c-0.1-0.1-0.4,0.4-0.7,0.8
					c0.1-0.1,0.1-0.1,0.2-0.2c-0.2,0.4-0.5,0.7-0.8,1.1v-0.3c-0.4,0.6,0.1,0.3-0.4,0.8l-0.1-0.1c-0.6,0.8-0.8,1.4-1.4,2.2
					c-2.7,2.9-6.4,5-8.6,7.8v0.2c0.1,0.2-0.9,0.5-0.8,0.7l-0.3,0.3c-0.1,0.1-0.2,0.3,0,0.2c-0.2,0.3-0.3,0.3-0.5,0.5l-0.1,0.4
					c-0.8,1.2-1.5,2.2-1.8,3.7c-0.1,1.8-0.5,5.5-0.8,7.5c-0.5,2.9,0,6.4-0.5,9.3c0,0.1-0.1,0.3-0.1,0.3l-0.2,2.8
					c0,0-0.9,13.3-1.7,3.1l-0.1,0.1c0-1.5,0.1-2.5,0.3-3.5c-0.2-0.2,0.1-1.2,0-1.6l0,0c0.3-0.9,0-1.9,0.2-2.8c0,0-0.1,0.1-0.1,0.2
					c0.1-0.7,0.2-1.5,0.1-1.6c0.2-1.5,0.2-3.7,0.5-4.7l0,0.1c0.2-0.6,0.1-0.7,0.2-1.3c0,0,0-0.1,0-0.1c0.2-0.6,0.2-1.8,0.2-2.3
					l-0.1,0l0.1-1.2v0.5c0.3-0.1-0.1-0.9,0.1-1.8c0-0.8,0.7-1.6,0.7-2.5c0.2-0.4-0.2,0.3-0.1-0.3c-0.1,0-0.1,0.3-0.2,0.1
					c0.2-0.6,0-1.1,0.4-1.8l-0.1-0.1c0.5-0.9,0.7-1.8,1.2-2.3c0.7-0.8,0.1-0.8,0.9-1.5l0.2-0.4c0.3-0.4,0.3-0.2,0.6-0.6
					c-0.1,0,0.4-0.5,0.1-0.4c0.7-1,1.8-1.5,2.7-2.7c0.4-0.1,0.9-0.7,1.1-0.7c0-0.1,1.1-1,0.4-0.6c-0.1,0-0.2,0.1-0.1,0.1h-0.1
					c0.5-0.7,1.2-0.9,1.8-1.5c-0.2,0.2-0.4,0.4-0.2,0.3l0.6-0.5l-0.2,0l0.8-0.8l0,0.2c0.4-0.4,0.4-0.7,1-1c0.3-0.1-0.3,0.5,0.2,0.1
					c0.5-0.6,1.3-1.5,1.8-2.1c0,0.2,0.2,0,0.4-0.2l-0.1-0.1c0.7-0.7,0.1-0.4,0.7-1.1l-0.1,0l0.3-0.1c0.7-0.6,0.1-0.5,0.8-1.2
					c-0.2,0.3,0.1,0.3,0.3-0.2l-0.2,0.1c0.2-0.2,0.2-0.3,0.3-0.4c-0.1,0.1-0.2,0,0-0.3c-0.1,0.1-0.2,0.1-0.2,0.2
					c0.2-0.2,0.3-0.4,0.5-0.6c0.1-0.5,0.6-1.3,0.5-1.6c0,0,0.2-1.1,0.4-1.4c-0.1,0.2-0.1-0.4-0.2-0.3c0.2-0.3,0.3-1.2,0.2-1.6l0,0.1
					c-0.1-1.4,0.2-2.4,0-3.6c0.1,0,0-0.6,0.2-0.5c0.1-1.3-0.4-2.4,0-2.9c0-0.6-0.2-0.7-0.2-1l0,0.1c0-1.1-0.1-1.5-0.2-2.3
					c0-0.4,0.2-0.5,0.1-1.2c-0.1,0.2-0.1-0.1-0.1-0.3c0,0.2,0,0.2-0.1-0.1c0-0.1,0-0.1,0-0.2c0,0,0,0,0,0c0-0.5,0-0.4,0.1-0.2
					c0,0,0,0,0.1,0.1c-0.2-0.5-0.1-1.3-0.3-1.4c-0.1-1.2-0.1-2.5-0.2-3.6c-0.1-0.1-0.1,0.2-0.1,0.5l-0.1-0.8c-0.1,0,0,0.5,0,0.7
					c-0.3-1-0.1-2-0.5-3.2l0.1-0.2l0-0.1c0,0,0.1-0.3,0.1-0.4c-0.1-0.2-0.2,0-0.3-0.5c-0.2-0.4-0.2-1.3-0.2-1.9
					c0.1,0.3,0.1,0.2,0.1,0.1c-0.1-0.3-0.2-0.4-0.2-0.7h-0.1c0.2,0.1,0-0.8,0-0.9c-0.1-0.1,0,0.5-0.1,0.5c-0.2-1.1-0.1-0.6-0.3-1.7
					c0-0.6,0.2,0.1,0.2-0.2c-0.1-0.5-0.1-1.1-0.3-1.7l0.2,0.2c-0.1-1-0.3-1.6-0.5-2.3c-0.8-7.6,1-1.9,1-1.9
					C103.9,40.3,103.9,41.9,104.5,45.5L104.5,45.5L104.5,45.5z"/>
				<path class="st10" d="M85.2,106.9l0-0.2C85.1,106.6,85.2,106.7,85.2,106.9z"/>
				<path class="st10" d="M74.1,52.4C74.1,52.4,74.2,52.4,74.1,52.4C74.2,52.4,74.1,52.4,74.1,52.4z"/>
				<path class="st10" d="M83.9,97.7L83.9,97.7C83.9,97.7,83.9,97.7,83.9,97.7L83.9,97.7L83.9,97.7z"/>
				<path class="st10" d="M83.5,109.6c0.1-3.1-0.1-4,0.2-7.2c0.1-1.6,0.2-3.2,0.3-4.7c0.2-0.7,0.1-2,0.3-2.8l-0.1-0.3
					c0.1-0.3,0.1-0.6,0-0.9l0,0c0.1-0.4,0-0.9,0-1.1l0,0L84,92.2l0,0.1c0-0.7-0.3-1.3-0.6-1.9h0.1c-0.7-1.2-0.8-1.8-1.6-2.8v0
					c-0.7-1.5-1.8-1.9-2.7-3.4c0.1,0.2-0.1,0-0.1,0c-0.5-0.6-1.1-1.2-0.9-1.4c-0.4-0.4-0.4-0.3-0.5-0.3c0.1-0.1-0.2-0.5-0.5-0.8
					l0.1,0.2l-0.9-1l0.3,0.1c-0.5-0.5-0.3,0-0.7-0.5l0.1-0.1c-0.7-0.7-1.2-0.9-1.9-1.6c-1.3-1.5-2.4-3.3-3.2-5.2
					c-0.8-1.9-1.1-4-1.1-5.9l-0.1-0.2c-0.2-0.1,0.3-1,0.2-1.2l0.1-0.4c0-0.1,0-0.4-0.1-0.2c0-0.4,0.1-0.4,0.2-0.7l-0.1-0.4
					c0.1-1.5,0.6-2.8,0.8-4.4c0.1-2,1.1-5.5,1.7-7.5c0.9-2.8,1.2-6.3,2.4-9.1c0-0.1,0.1-0.3,0.2-0.3l0.8-2.6
					c-0.1,0,4.4-12.7,2.4-2.6l0.1,0c-0.4,1.5-0.7,2.4-1.2,3.3c0.2,0.2-0.3,1.2-0.4,1.5l0,0c-0.5,0.8-0.4,1.8-0.8,2.6
					c0,0,0.1,0,0.2-0.2c-0.2,0.6-0.5,1.4-0.4,1.5c-0.5,1.5-1,3.5-1.4,4.4l0.1-0.1c-0.3,0.5-0.2,0.7-0.4,1.3c0,0,0,0.1,0,0.1
					c-0.3,0.6-0.4,1.7-0.6,2.2l0.1,0l-0.3,1.2l0.1-0.5c-0.3,0.1,0,0.9-0.4,1.8c-0.1,0.8-0.9,1.5-0.9,2.4c-0.2,0.4,0.3-0.3,0.1,0.3
					c0.1,0,0.1-0.3,0.2-0.1c-0.2,0.6,0,1-0.3,1.7l0.1,0c-0.4,0.9-0.2,1.8-0.4,2.4c-0.2,1,0.2,0.7-0.1,1.7l0.1,0.4
					c0,0.4-0.2,0.3-0.2,0.8c0.1,0,0,0.6,0.1,0.3c0.1,1.1-0.3,2.2,0.2,3.5c-0.1,0.3,0.2,1,0.1,1.2c0,0,0.5,1.3,0.4,0.5
					c0-0.1-0.1-0.2-0.1-0.2l0.1-0.1c0.5,0.6,0.4,1.4,0.8,2c-0.1-0.2-0.3-0.5-0.2-0.2l0.4,0.6v-0.2c0.2,0.3,0.4,0.6,0.6,0.9l-0.2-0.1
					c0.3,0.4,0.6,0.5,0.8,1.1c0.1,0.3-0.4-0.3-0.1,0.2c0.6,0.6,1.4,1.5,1.9,2c-0.2,0,0,0.2,0.2,0.4l0.1-0.1c0.6,0.8,0.4,0.1,1,0.9
					v-0.1v0.3c0.5,0.8,0.5,0.2,1,1.2c-0.3-0.3-0.3,0,0.1,0.3v-0.2c0.2,0.2,0.2,0.3,0.3,0.4c-0.1-0.2,0.1-0.2,0.3,0.1l-0.1-0.3
					l0.4,0.7c0.5,0.4,1,1.2,1.3,1.2c0,0,0.9,0.9,1,1.3c-0.1-0.3,0.4,0.3,0.4,0c0.1,0.3,0.7,1.2,1,1.4l0-0.1c1,1.2,1.3,2.2,1.9,3.4
					c-0.1,0,0.2,0.6,0,0.5c0.4,1.3,0.9,2.5,0.5,3.1c0,0.6,0.1,0.7,0.2,1.1l0-0.2c-0.1,1.2-0.1,1.5-0.1,2.3c-0.1,0.4-0.3,0.5-0.3,1.2
					c0.1-0.2,0.1,0.1,0.1,0.3c0-0.2,0.1-0.2,0.1,0.1c0,0.1-0.1,0.1-0.1,0.2c0,0,0,0,0,0c-0.1,0.5-0.1,0.4-0.1,0.2c0,0,0,0-0.1-0.1
					c0.1,0.5-0.1,1.4,0.1,1.4c-0.1,1.4-0.3,2.4-0.4,3.6c0.1,0.1,0.2-0.1,0.2-0.5l-0.1,0.8c0.1,0,0.1-0.5,0.1-0.7
					c0.1,1-0.3,2-0.2,3.2l-0.1,0.2v0.1c0,0-0.1,0.2-0.1,0.4c0.1,0.2,0.2,0,0.2,0.6c0.1,0.5-0.1,1.3-0.2,1.9c0-0.3-0.1-0.2-0.1-0.1
					c0,0.3,0.1,0.5,0,0.7l0.1,0c-0.1-0.1-0.2,0.8-0.2,0.8c0.1,0.2,0.1-0.4,0.2-0.5c-0.1,1.2,0,0.6-0.1,1.7c-0.1,0.6-0.1-0.1-0.2,0.2
					c-0.1,0.5-0.2,1.1-0.1,1.7l-0.1-0.2c-0.1,1-0.2,1.6-0.1,2.3c-1.3,7.5-1.4,1.5-1.4,1.5C82.8,114.7,83.2,113.2,83.5,109.6
					L83.5,109.6z"/>
				<path class="st11" d="M74.2,62.8c0.9-4.1,3-13,3-13s18.8,1,24.6,1.1c0.7,5.8,1.3,11.6,1.1,17.5c-0.1,1.5-0.2,2.9-0.7,4.3
					c-0.8,2.2-2.5,3.9-4.2,5.5c-2.2,2-4.5,3.8-6.9,5.6c-0.6,0.4-1.1,0.8-1.8,1c-1,0.3-2.1,0.1-3.1-0.3c-1-0.4-2-1-2.8-1.7
					c-0.7-0.6-1.2-1.3-1.8-2c-1.8-2.2-3.6-4.4-5.4-6.6c-0.7-0.9-1.5-1.8-1.9-2.8C72.9,68.6,73.5,65.6,74.2,62.8L74.2,62.8L74.2,62.8
					z"/>
				<path class="st12" d="M77.1,49.8c0,0,18.8,1,24.6,1.1L77.1,49.8z"/>
				<path class="st12" d="M77.5,49.6c-0.1,0-0.1,0-0.3,0.2C77.3,49.7,77.4,49.7,77.5,49.6z M101.6,51L101.6,51
					C101.5,51,101.5,51,101.6,51z M83.6,47.9V48c0.3,0,0.1-0.2,0.4-0.2c0.1,0.2,0.4-0.1,0.5,0c0,0,0.1,0,0.1-0.1c0,0.1,0.1,0,0.2,0
					c0,0,0,0-0.1,0.1l0.2,0c0.1,0,0.1-0.2,0-0.2c0.5-0.1,2.9-0.4,3.5-0.3c-0.1,0.1-0.2,0-0.3,0.2c0.1,0.1,0.2,0,0.3,0.1
					c0.1-0.3,0.3-0.1,0.4-0.4l0,0.2l0.1-0.1c0.6,0.2,0.1,0.1,0.7,0c0.3,0,0.5,0.3,0.7,0.2c0,0-0.1,0.1,0,0.1c0-0.1,0.2,0.1,0.3,0
					c0.1,0,0.3,0,0.2,0.2c0.1-0.1,0.3-0.1,0.2-0.2c0.1,0,0.2,0,0.2,0l-0.1,0c0.3,0,0.4-0.1,0.6,0.1L91.6,48c0.2,0,0.3,0,0.4-0.1
					l-0.2-0.1c0.3,0,0.4,0,0.6,0.2h-0.1c0.3,0.2,1.8,0.5,2,0.8l-0.1,0.1l0.2,0.1c0,0-0.1-0.4-0.1-0.4c0.5,0.1,3,0.6,3.4,0.7
					c0.2,0,0-0.1,0-0.2c0.2,0.1,0.1,0.1,0.3,0.2c0.1,0,0-0.1,0-0.1c0.1,0,0.2,0,0.2,0.1c-0.1,0-0.1,0.1-0.1,0.2l0.2,0v-0.1
					c0,0,0.1,0.2,0.3,0.2c0.4,0.1,0.8,0.3,1.2,0.4c0,0-0.1-0.1-0.2-0.1c0.1,0,0.1,0.1,0.2,0.1c-0.1,0,0.2,0.1,0.1,0.1
					c0.3,0.2,1.2,0.5,1.4,0.7c0,0,0,0.2,0,0.2c0.1,0,0.1,0,0.2-0.1c-0.2,0.1-0.2,0.1-0.3,0.1h0c-0.2,0.1-0.1,0-0.2,0.1
					c0,0,0.2-0.1,0.3-0.1c-0.1,0.1-0.3,0.1-0.3,0.1c-0.1,0.1,0,0-0.1,0.1c-0.1,0.1-0.3,0.1-0.4,0.1c-0.3,0.2-0.5,0.1-0.8,0.3h0
					c-0.1,0.1-0.3,0.1-0.5,0.2c0.1,0,0.1-0.1,0,0c-0.2,0.1-0.3,0.1-0.5,0.2h-0.2c-0.4,0.2-1.3,0.4-2.2,0.6c-0.9,0.2-1.8,0.3-2.2,0.4
					h0c-1.1,0.2-3.4,0.4-4.5,0.2c-0.2,0.1-0.4,0.1-0.6,0.1c0.1,0,0.1-0.2,0-0.1c-0.6,0,0-0.1-0.6-0.2c-0.7-0.1-3.2-0.2-3.7-0.3
					c-0.3-0.2-0.7-0.2-1-0.3l0,0c-0.3-0.2-2.2-0.5-2.5-0.7h0.1c-0.3-0.2-0.3,0-0.5-0.1c0-0.1-0.2-0.3-0.3-0.3v0
					c-0.1,0-0.9-0.3-1.7-0.7c-0.4-0.2-0.8-0.3-1.1-0.5c-0.3-0.2-0.5-0.3-0.5-0.3l-0.1,0c0,0-0.1-0.1-0.2-0.1c-0.1,0,0,0,0.3-0.1h0
					l0.1-0.1c0.2-0.1,0.2-0.1,0.2-0.1l-0.2,0.1c0.2-0.1,0.1,0,0,0c0,0,0.1,0,0.2-0.1c0,0,0,0-0.1,0c0.1,0,0.2-0.1,0.3-0.1
					c0.2,0,0,0,0.2-0.1c1-0.3,2-0.8,3-1c0,0,0,0,0,0c0.3,0,0.6-0.1,0.8-0.1c0.1,0,0.1-0.1,0.1-0.2C82.1,48.1,83.6,47.9,83.6,47.9
					L83.6,47.9L83.6,47.9z"/>
				<path class="st2" d="M92.6,84c-1.2-0.5-1.6-0.3-2,0l-1.3,0.7c-0.9,0.4-1.7,0.9-2.5,1.3c-1.6,0.9-3.1,1.8-4.6,2.6
					c-1.5,0.8-2.9,1.4-4.4,1.9c-1.5,0.6-3.1,1.1-4.8,1.8l3.1,8.8c1.8-0.5,3.7-1.3,5.6-2.3c1.9-1,3.7-2.3,5.2-3.8
					c1.5-1.4,2.9-2.9,4-4.6c0.5-0.8,1.1-1.7,1.6-2.5l0.7-1.3c0.2-0.4,0.5-0.8,0-2L92.6,84L92.6,84z"/>
				<path class="st2" d="M87.1,99.7l0.4,0.3l0.2,0.1c0.1,0.1,0.3,0.2,0.4,0.2l0.5,0.1c0.3,0,0.6,0,0.8-0.1c0.4-0.2,0.9-0.4,1.3-0.6
					c0.8-0.4,1.6-1,2.2-1.7c0.6-0.7,1.2-1.4,1.6-2.2c0.2-0.4,0.4-0.8,0.6-1.3c0-0.3,0.1-0.5,0-0.9c-0.1-0.3,0-0.6-1-1.7l-0.8-0.6
					c-1.3-0.7-1.5-0.7-1.8-0.7c-0.3,0-0.6,0.1-0.8,0.1c-0.4,0.2-0.7,0.4-1.1,0.7c-0.7,0.4-1.3,1-1.8,1.6c-0.5,0.6-1.1,1.2-1.4,2
					l-0.6,1.2c-0.1,0.2-0.1,0.4-0.1,0.8l0,0.5c0,0.1,0.1,0.3,0.2,0.4l0.1,0.2l0.3,0.4L87.1,99.7L87.1,99.7L87.1,99.7z"/>
				<path class="st2" d="M84.9,107.4l0.3,0.4l0.2,0.2c0.1,0.1,0.3,0.3,0.4,0.3l0.5,0.2c0.3,0.1,0.6,0.1,0.8,0
					c0.5-0.1,0.9-0.2,1.4-0.3c0.9-0.2,1.7-0.6,2.5-1.1c0.8-0.4,1.5-1,2.1-1.7c0.3-0.3,0.7-0.7,0.9-1.1c0.1-0.2,0.2-0.5,0.3-0.8
					c0.1-0.3,0.2-0.6-0.4-1.9l-0.5-0.8c-0.9-1.1-1.2-1.1-1.5-1.2c-0.3-0.1-0.6-0.1-0.9-0.1c-0.5,0.1-0.9,0.2-1.4,0.3
					c-0.9,0.2-1.7,0.6-2.5,1.1c-0.8,0.5-1.5,1-2.1,1.7c-0.3,0.4-0.6,0.7-0.9,1.1c-0.2,0.2-0.3,0.4-0.3,0.7l-0.1,0.5
					c0,0.1,0.1,0.3,0.1,0.5l0.1,0.3l0.2,0.5L84.9,107.4L84.9,107.4L84.9,107.4z"/>
				<path class="st9" d="M91,90.8c-3.3,4.3-7.5,7.5-12.5,9.7c-0.6,0.2-0.9-0.7-0.3-0.9c4.8-2.1,8.8-5.2,12.1-9.4
					C90.7,89.7,91.4,90.3,91,90.8L91,90.8z"/>
				<path class="st9" d="M78.6,100.2c0.5,4-0.4,7.9-2.6,11.3c-0.3,0.5-1.1-0.1-0.8-0.6c2-3.2,2.9-6.8,2.4-10.6
					C77.6,99.7,78.5,99.6,78.6,100.2z"/>
				<path class="st9" d="M92,107.1c-2.6,1.9-6.5,2.9-8.1-0.6c-1.4-3.2,3.1-6.1,5.5-7c0.6-0.2,0.9,0.7,0.3,0.9
					c-1.8,0.7-5.8,3-5.1,5.4c0.9,3.4,4.8,1.9,6.8,0.6C91.9,105.9,92.5,106.7,92,107.1L92,107.1L92,107.1z"/>
				<path class="st9" d="M94,97.7c-1.9,1.9-5.2,4.1-7.6,1.7c-2.5-2.5,0.7-5.4,2.3-7.3c0.4-0.5,1.2,0.1,0.8,0.6
					c-1.2,1.3-3.8,3.4-2.8,5.4c1.5,2.9,5.1,0.4,6.6-1.1C93.7,96.6,94.4,97.2,94,97.7L94,97.7z"/>
				<path class="st9" d="M86.8,86.3c-2.9,1.9-6,3.3-9.3,4.3c-0.6,0.2-0.9-0.7-0.3-0.9c3.2-1,6.3-2.4,9.1-4.2
					C86.8,85.2,87.4,86,86.8,86.3z"/>
			</g>
		</g>
		<path class="st4" d="M95.2,22.8c2.7-0.7,4.3-3.5,3.6-6.2s-3.5-4.3-6.2-3.6c-2.7,0.7-4.3,3.5-3.6,6.2S92.6,23.5,95.2,22.8z"/>
		<path class="st6" d="M54.7,21.4l4.2,4.4l-1.2,5.9l5.5-2.6l5.2,3l-0.8-6L72,22L66,21l-2.5-5.5l-2.9,5.3L54.7,21.4L54.7,21.4z"/>
		<path class="st6" d="M127.7,40.2l-4-6.6l-7.7-0.4l5.1-5.9l-2-7.5l7.2,3l6.5-4.2l-0.6,7.7l6,4.9l-7.5,1.8L127.7,40.2L127.7,40.2z"
			/>
	</g>
</g>
</svg>
