<svg width="52" height="50" viewBox="0 0 52 50" fill="none" xmlns="http://www.w3.org/2000/svg">
<g id="whiskey 1" clip-path="url(#clip0_491_1791)">
<g id="Group">
<path id="Vector" d="M45.4022 0H6.59766V10.3516L22.0922 24.3894L6.59766 33.584V50H45.4022V33.584L29.9076 24.3894L45.4022 10.3516V0Z" fill="#D8ECFE"/>
<path id="Vector_2" d="M45.4023 33.584L29.9077 24.3894L45.4023 10.3516V0H26V50H45.4023V33.584Z" fill="#D8ECFE"/>
<g id="Group_2">
<path id="Vector_3" d="M45.4022 10.3516V33.584C43.3724 37.2168 39.4621 39.6484 34.9548 39.6484H17.045C12.5377 39.6484 8.62743 37.2167 6.59766 33.584V10.3516H45.4022Z" fill="#FF9100"/>
</g>
<path id="Vector_4" d="M45.4023 10.3516H26V39.6484H34.9549C39.4622 39.6484 43.3725 37.2167 45.4023 33.584V10.3516Z" fill="#FF641A"/>
<g id="Whiskey_glass_2_">
<g id="Group_3">
<path id="Vector_5" d="M39.4319 35.2539H30.4771V26.4648H39.4319V35.2539Z" fill="#F03800"/>
</g>
<g id="Group_4">
<g id="Group_5">
<g id="Group_6">
<g id="Group_7">
<path id="Vector_6" d="M15.6311 35.2539L12.5674 26.9956L20.983 23.9901L24.0438 32.2484L15.6311 35.2539Z" fill="#FF641A"/>
</g>
</g>
</g>
</g>
<g id="Group_8">
<path id="Vector_7" d="M29.9381 26.4648L21.5225 23.4593L24.5861 15.201L32.9989 18.2065L29.9381 26.4648Z" fill="#FF641A"/>
</g>
</g>
<path id="Vector_8" d="M26 25.0585L29.9382 26.4649L32.999 18.2066L26 15.7062V25.0585Z" fill="#F03800"/>
</g>
</g>
<defs>
<clipPath id="clip0_491_1791">
<rect width="50.9434" height="50" fill="white" transform="translate(0.52832)"/>
</clipPath>
</defs>
</svg>
