<svg width="51" height="50" viewBox="0 0 51 50" fill="none" xmlns="http://www.w3.org/2000/svg">
<g id="yogurt 1" clip-path="url(#clip0_509_4254)">
<path id="Vector" d="M36.4438 44.8821H14.2229C13.8177 44.8821 13.4893 45.2106 13.4893 45.6158V49.2664C13.4893 49.6715 13.8177 50 14.2229 50H36.4438C36.849 50 37.1775 49.6715 37.1775 49.2664V45.6158C37.1775 45.2106 36.849 44.8821 36.4438 44.8821Z" fill="#F9ECD4"/>
<path id="Vector_2" d="M36.4437 44.8821H32.9219V50H36.4437C36.8489 50 37.1774 49.6715 37.1774 49.2664V45.6158C37.1774 45.2106 36.8489 44.8821 36.4437 44.8821Z" fill="#F7E0BA"/>
<path id="Vector_3" d="M39.8589 1.171C39.3506 0.437695 38.5145 0 37.6222 0C36.4932 0 35.4688 0.710352 35.0731 1.76748L31.7126 10.7427C31.6282 10.968 31.6597 11.2203 31.7968 11.418C31.9339 11.6157 32.1592 11.7337 32.3997 11.7337H36.6455C36.9516 11.7337 37.2254 11.5438 37.3326 11.2572L40.1711 3.67637C40.4841 2.84072 40.3673 1.9042 39.8589 1.171Z" fill="#C6946A"/>
<path id="Vector_4" d="M39.8581 1.171C39.3498 0.437695 38.5137 0 37.6214 0C37.0752 0 36.5542 0.16748 36.1163 0.458887C36.397 0.646191 36.6446 0.885937 36.8422 1.1709C37.3506 1.9041 37.4674 2.84063 37.1545 3.67637L34.316 11.2572C34.2087 11.5437 33.9349 11.7337 33.6289 11.7337H36.6449C36.951 11.7337 37.2248 11.5438 37.332 11.2572L40.1705 3.67637C40.4833 2.84072 40.3665 1.9042 39.8581 1.171Z" fill="#B27C57"/>
<path id="Vector_5" d="M41.5616 13.5723C41.4226 13.4219 41.2273 13.3364 41.0225 13.3364H9.64401C9.43922 13.3364 9.24391 13.422 9.10494 13.5723C8.96598 13.7228 8.89625 13.9242 8.91246 14.1283L11.2792 43.8726C11.3897 45.2614 12.5677 46.3495 13.961 46.3495H36.7053C38.0986 46.3495 39.2766 45.2614 39.3872 43.8726L41.7539 14.1283C41.7703 13.9242 41.7006 13.7228 41.5616 13.5723Z" fill="#73CDFF"/>
<g id="Group">
<path id="Vector_6" d="M41.5615 13.5723C41.4226 13.4219 41.2272 13.3364 41.0225 13.3364H36.7263C36.9311 13.3364 37.1264 13.422 37.2653 13.5723C37.4043 13.7228 37.474 13.9242 37.4578 14.1283L35.091 43.8726C34.9805 45.2614 33.8025 46.3495 32.4092 46.3495H36.7054C38.0986 46.3495 39.2767 45.2614 39.3872 43.8726L41.7539 14.1283C41.7702 13.9242 41.7005 13.7228 41.5615 13.5723Z" fill="#36C2FF"/>
<path id="Vector_7" d="M6.55947 11.7391C6.25508 11.7391 6.07461 11.7345 6.03906 11.7335C5.63408 11.7221 5.31514 11.3846 5.32646 10.9795C5.33779 10.5744 5.67246 10.256 6.08037 10.2666C6.12812 10.268 10.8997 10.3848 16.3327 9.19755C19.4978 8.50595 22.2639 7.51376 24.5546 6.24843C27.3731 4.69159 29.4723 2.71493 30.7933 0.373232C30.9925 0.0204003 31.4401 -0.104502 31.7928 0.0947167C32.1457 0.293838 32.2705 0.741299 32.0714 1.09423C30.6123 3.68056 28.3171 5.8497 25.2493 7.5413C22.8298 8.87538 19.9248 9.91728 16.6153 10.6379C12.0089 11.641 7.96465 11.7391 6.55947 11.7391Z" fill="#36C2FF"/>
</g>
<path id="Vector_8" d="M40.7239 24.1018C40.5849 23.9514 40.3896 23.866 40.1848 23.866H33.1078C31.2849 21.4054 28.4076 19.948 25.3334 19.948C22.2591 19.948 19.3818 21.4054 17.5589 23.866H10.4819C10.2771 23.866 10.0818 23.9515 9.94284 24.1018C9.80387 24.2523 9.73414 24.4538 9.75035 24.6579L10.5492 34.6972C10.5797 35.0787 10.8979 35.3727 11.2806 35.3727H17.5589C19.3818 37.8333 22.2591 39.2907 25.3334 39.2907C28.4076 39.2907 31.2849 37.8333 33.1078 35.3727H39.3861C39.7687 35.3727 40.0872 35.0787 40.1175 34.6972L40.9164 24.6579C40.9325 24.4537 40.8627 24.2522 40.7239 24.1018Z" fill="#F9ECD4"/>
<path id="Vector_9" d="M40.724 24.1018C40.5851 23.9514 40.3897 23.866 40.185 23.866H36.6832L35.7676 35.3728H39.3861C39.7687 35.3728 40.0872 35.0788 40.1176 34.6973L40.9164 24.658C40.9326 24.4537 40.8628 24.2522 40.724 24.1018Z" fill="#F7E0BA"/>
<path id="Vector_10" d="M44.607 10.2664H6.05986C5.65459 10.2664 5.32617 10.5949 5.32617 11V14.0702C5.32617 14.4753 5.65459 14.8039 6.05986 14.8039H44.607C45.0122 14.8039 45.3407 14.4753 45.3407 14.0702V11C45.3407 10.5949 45.0122 10.2664 44.607 10.2664Z" fill="#F9ECD4"/>
<path id="Vector_11" d="M44.6068 10.2664H41.085V14.804H44.6068C45.012 14.804 45.3405 14.4754 45.3405 14.0703V11C45.3405 10.5949 45.012 10.2664 44.6068 10.2664Z" fill="#F7E0BA"/>
</g>
<defs>
<clipPath id="clip0_509_4254">
<rect width="50" height="50" fill="white" transform="translate(0.333008)"/>
</clipPath>
</defs>
</svg>
